<svg width="210" height="193" viewBox="0 0 210 193" fill="none" xmlns="http://www.w3.org/2000/svg">
<path d="M2.4 71.536H10.848V78.736C10.848 83.024 12.256 85.168 15.072 85.168C16.48 85.168 17.504 84.656 18.144 83.632C18.784 82.608 19.104 80.976 19.104 78.736C19.04 75.92 18.496 73.488 17.472 71.44C16.512 69.328 14.656 66.8 11.904 63.856C9.408 61.168 7.456 58.704 6.048 56.464C4.704 54.16 3.744 51.824 3.168 49.456C2.72 47.664 2.496 45.584 2.496 43.216C2.496 37.968 3.584 33.936 5.76 31.12C7.936 28.24 11.04 26.8 15.072 26.8C19.104 26.8 22.144 28.208 24.192 31.024C26.304 33.84 27.36 37.968 27.36 43.408V49.456H19.392V42.736C19.392 38.384 17.984 36.208 15.168 36.208C12.352 36.208 10.944 38.352 10.944 42.64C10.944 45.072 11.52 47.344 12.672 49.456C13.824 51.568 15.68 54 18.24 56.752C21.696 60.464 24.064 63.824 25.344 66.832C26.688 69.84 27.424 73.52 27.552 77.872C27.552 83.12 26.496 87.248 24.384 90.256C22.336 93.264 19.2 94.768 14.976 94.768C10.88 94.768 7.744 93.328 5.568 90.448C3.456 87.568 2.4 83.376 2.4 77.872V71.536ZM40.7543 94H32.3063V26.8H40.7543V71.44H49.7783V26.8H58.2263V94H49.7783V81.04H40.7543V94ZM75.5363 26.8C79.5683 26.8 82.6403 28.208 84.7523 31.024C86.8643 33.84 87.9203 37.872 87.9203 43.12V50.128H71.5043V79.312C71.5043 83.344 72.9123 85.36 75.7283 85.36C78.5443 85.36 79.9523 83.344 79.9523 79.312V53.776H87.9203V78.448C87.9203 83.696 86.8643 87.728 84.7523 90.544C82.6403 93.36 79.5683 94.768 75.5363 94.768C71.5043 94.768 68.4003 93.36 66.2243 90.544C64.1123 87.728 63.0563 83.696 63.0563 78.448V43.12C63.0563 37.872 64.1123 33.84 66.2243 31.024C68.4003 28.208 71.5043 26.8 75.5363 26.8ZM71.5043 43.6H79.9523V42.352C79.9523 38.256 78.5443 36.208 75.7283 36.208C72.9123 36.208 71.5043 38.256 71.5043 42.352V43.6ZM106.838 26.8L130.262 26.896V36.496L106.838 36.4V26.8ZM123.83 60.112L134.39 93.52H124.118L115.286 62.8V94H106.838V39.856H115.286V57.424L120.374 39.856H130.262L123.83 60.112ZM164.717 36.4H147.629V45.808C148.909 45.424 150.285 45.232 151.757 45.232C155.853 45.232 158.957 46.672 161.069 49.552C163.245 52.432 164.333 56.624 164.333 62.128V94H156.173V61.264C156.173 56.976 154.733 54.832 151.853 54.832C149.037 54.832 147.629 56.976 147.629 61.264V94H139.181V26.8H164.717V36.4Z" fill="white"/>
<path d="M102.067 81.04H93.6188V26.8H102.067V81.04ZM102.067 94H93.6188V84.592H102.067V94Z" fill="#FF0015"/>
<path d="M55.168 172H30.4V162.592L46.048 114.4H31.168V104.8H55.168V114.208L39.52 162.4H55.168V172ZM101.098 172H92.65V104.8H101.098V149.44H110.122V104.8H118.57V172H110.122V159.04H101.098V172ZM135.88 104.8C139.912 104.8 142.984 106.208 145.096 109.024C147.208 111.84 148.264 115.872 148.264 121.12V128.128H131.848V157.312C131.848 161.344 133.256 163.36 136.072 163.36C138.888 163.36 140.296 161.344 140.296 157.312V131.776H148.264V156.448C148.264 161.696 147.208 165.728 145.096 168.544C142.984 171.36 139.912 172.768 135.88 172.768C131.848 172.768 128.744 171.36 126.568 168.544C124.456 165.728 123.4 161.696 123.4 156.448V121.12C123.4 115.872 124.456 111.84 126.568 109.024C128.744 106.208 131.848 104.8 135.88 104.8ZM131.848 121.6H140.296V120.352C140.296 116.256 138.888 114.208 136.072 114.208C133.256 114.208 131.848 116.256 131.848 120.352V121.6ZM177.003 114.4H153.963V104.8H177.003V114.4ZM177.003 172H153.963V117.856H177.003V127.456H162.411V149.44H174.027V159.04H162.411V162.4H177.003V172ZM206.574 114.4H181.806V104.8H206.574V114.4ZM181.806 172V117.76H194.286C198.766 117.76 201.966 119.008 203.886 121.504C205.87 124 206.862 128.256 206.862 134.272V142.144C206.862 145.408 206.414 147.872 205.518 149.536C204.686 151.136 203.278 152.448 201.294 153.472V153.664C203.278 154.432 204.686 155.968 205.518 158.272C206.414 160.576 206.862 163.776 206.862 167.872V172H198.414V167.296C198.414 164.224 198.03 162.08 197.262 160.864C196.494 159.648 195.118 159.04 193.134 159.04H190.254V172H181.806ZM193.326 149.44C195.054 149.44 196.334 148.896 197.166 147.808C197.998 146.656 198.414 144.832 198.414 142.336V134.368C198.414 131.872 198.062 130.08 197.358 128.992C196.654 127.904 195.566 127.36 194.094 127.36H190.254V149.44H193.326Z" fill="white"/>
<path d="M67.6113 172H59.9313L67.5153 104.8H80.3793L87.8673 172H80.1873L78.7473 158.944H69.0513L67.6113 172ZM73.9473 115.744L70.1073 150.016H77.7873L73.9473 115.744Z" fill="#FF0015"/>
</svg>
