<svg width="273" height="253" viewBox="0 0 273 253" fill="none" xmlns="http://www.w3.org/2000/svg">
<g clip-path="url(#clip0_7_345)">
<path d="M183.983 15.078C186.388 11.59 190.306 12.115 192.625 14.839C194.944 17.563 195.063 20.655 194.407 23.762L193.558 27.876C193.048 30.499 192.62 33.163 192.851 34.033C193.214 35.401 195.065 40.52 196.341 42.331C197.617 44.141 201.674 46.671 202.893 48.174L204.988 50.959C205.965 52.237 206.956 53.401 207.531 53.476C208.27 53.573 209.077 52.708 209.641 51.975L210.181 51.228C210.629 50.593 212.479 48.281 213.363 48.271C214.247 48.261 215.341 50.094 215.992 51.248C216.643 52.402 219.542 53.894 220.234 55.713C220.926 57.532 223.266 59.743 224.462 61.218C225.658 62.693 226.509 64.065 226.17 64.853C225.83 65.64 224.741 66.757 225.051 67.206C225.361 67.655 232.401 73.39 233.087 74.207C233.545 74.751 233.974 76.092 234.375 78.231C233.583 79.327 232.952 79.979 232.482 80.187C231.948 80.424 228.197 77.204 225.032 74.411L222.309 71.996L220.718 70.636C216.15 66.802 206.158 58.75 202.674 54.987L198.888 50.759C195.61 47.033 190.823 41.493 184.527 34.138C182.988 31.877 181.979 29.409 181.499 26.735C180.779 22.721 181.578 18.566 183.983 15.078ZM184.141 24.743C185.597 29.029 189.523 34.108 190.369 33.816C191.215 33.524 191.161 31.363 191.335 29.166L191.661 25.99C191.78 24.45 191.771 22.774 191.255 21.108C190.352 18.194 188.737 16.478 186.629 17.038C184.521 17.598 182.685 20.456 184.141 24.743Z" fill="#0B0B0B"/>
<path d="M60.467 154.756C62.584 152.591 63.725 151.204 63.892 150.595C64.142 149.681 64.868 148.342 65.932 147.365C66.996 146.388 68.661 144.714 70.032 142.136C71.403 139.558 75.816 131.776 78.161 129.021C79.724 127.184 81.517 125.15 83.539 122.918C83.316 121.471 83.347 120.481 83.634 119.949C83.921 119.417 84.754 118.999 86.134 118.698C85.52 115.265 85.566 112.935 86.271 111.708C86.976 110.481 87.649 110.144 88.289 110.698C88.925 110.062 89.644 109.702 90.446 109.618C91.65 109.493 93.805 106.997 94.146 105.97C94.487 104.943 93.443 102.854 93.219 101.01C92.995 99.166 94.67 97.405 95.655 96.773C96.312 96.352 98.109 96.159 101.045 96.193L101.098 95.179C99.082 93.241 97.954 91.834 97.715 90.958C97.476 90.082 97.965 89.022 99.181 87.777C99.443 86.452 99.826 85.575 100.331 85.147C100.836 84.719 101.326 84.473 101.801 84.412C102.264 83.872 102.111 82.587 101.341 80.558C100.186 77.513 100.155 73.191 99.38 71.432C98.605 69.673 96.551 62.299 95.729 61.026C94.907 59.753 94.796 57.535 94.769 57.116C94.742 56.697 93.256 54.575 92.964 53.51C92.673 52.445 92.821 50.126 93.361 50.097C93.901 50.068 97.242 49.328 102.862 50.58C108.482 51.832 115.303 56.753 118.383 60.032C121.463 63.311 127.054 71.273 127.849 72.779C128.644 74.285 134.453 84.289 136.331 89.728C138.209 95.167 142.782 123.629 143.405 127.259C143.82 129.679 144.64 134.97 145.863 143.134L134.174 152.775C122.491 149.236 110.837 147.347 99.211 147.108C87.589 146.866 74.673 149.416 60.467 154.756Z" fill="#351220"/>
<path d="M96.019 56.395L96.973 56.402C100.061 56.46 109.639 57.241 113.635 63.173L116.123 66.904C118.825 71.021 120.845 74.4 122.384 77.965L123.309 80.198C125.399 85.379 128.772 94.367 130.572 98.3L131.543 100.365C134.209 106.337 141.802 125.867 140.67 127.672C139.444 129.628 124.126 143.108 120.963 143.926C117.944 144.706 115.641 143.656 120.206 138.448L120.906 137.675C126.067 132.144 131.929 123.862 133.321 121.253L134.237 119.374C135.194 117.315 135.909 114.443 130.702 111.606C124.519 108.237 115.984 106.106 113.646 104.652L113.264 104.37C111.692 102.912 102.78 100.916 103.183 99.767C103.585 98.618 103.823 95.126 103.623 94.222C103.489 93.62 102.278 91.937 99.989 89.172L99.454 86.708C99.689 85.966 99.983 85.445 100.337 85.145C100.842 84.717 101.332 84.471 101.807 84.41C102.27 83.87 102.117 82.585 101.347 80.556C100.192 77.511 100.161 73.189 99.386 71.43C98.682 69.831 96.92 63.591 95.988 61.514L95.735 61.024C94.913 59.751 94.802 57.533 94.775 57.114C94.768 57.001 94.655 56.765 94.488 56.46C94.911 56.42 95.424 56.399 96.019 56.395Z" fill="#6F374E"/>
<path d="M98.498 62.812C98.047 63.852 101.156 65.71 103.846 64.017C106.536 62.324 106.668 59.685 104.932 59.014C103.196 58.343 98.948 61.772 98.498 62.812Z" fill="#915970"/>
<path d="M101.701 71.94C101.25 72.98 105.292 74.881 107.775 73.862C110.258 72.843 110.248 69.086 108.788 67.718C107.328 66.35 102.152 70.9 101.701 71.94Z" fill="#915970"/>
<path d="M105.485 81.221C105.55 82.883 108.869 84.811 111.352 83.792C113.835 82.773 113.532 78.683 112.072 77.315C110.612 75.947 105.42 79.559 105.485 81.221Z" fill="#915970"/>
<path d="M125.18 103.069C121.339 103.498 121.728 101.23 118.946 99.39C116.634 97.861 117.415 95.319 115.445 95.579C112.869 95.918 111.806 95.921 109.778 94.709C107.339 93.252 107.669 91.807 106.775 90.644C104.433 87.6 102.554 91.433 101.618 90.044C101.218 89.45 102.823 86.982 105.939 86.118C109.572 85.111 115.309 85.13 115.275 85.04C113.984 81.63 113.555 78.441 113.421 77.257C113.254 75.777 113.488 75.591 113.85 71.434C114.022 69.456 113.28 64.361 109.289 60.885C104.616 56.815 97.504 55.117 98.115 55.155C99.072 55.215 106.689 54.966 111.766 58.821C118.254 63.747 122.402 73.087 122.63 73.736C123.247 75.494 129.021 102.64 125.18 103.069Z" fill="#421A2C"/>
<path d="M93.365 50.095L94.992 49.915C96.582 49.792 99.253 49.773 102.866 50.578C108.486 51.83 115.307 56.751 118.387 60.03C121.261 63.09 126.324 70.23 127.633 72.393L131.375 79.187C133.246 82.687 135.342 86.846 136.336 89.725C136.567 90.395 136.84 91.415 137.141 92.695L136.616 93.663C135.333 96.425 131.145 97.3 130.672 95.659L130.032 93.709C128.768 90.01 126.124 82.672 125.21 80.755C124.067 78.359 116.85 67.964 113.303 63.024C109.756 58.084 102.389 56.267 99.147 55.881C97.638 55.701 96.094 55.907 94.512 56.499L93.659 55.002C93.355 54.454 93.078 53.907 92.969 53.507C92.676 52.443 92.825 50.124 93.365 50.095Z" fill="#380A1D"/>
<path d="M93.365 50.095L94.992 49.915L96.385 49.853C97.977 49.833 100.156 49.974 102.866 50.578C108.486 51.83 115.307 56.751 118.387 60.03C121.261 63.09 126.324 70.23 127.633 72.393L128.895 74.693C121.955 65.225 116.19 59.079 111.6 56.256C106.488 53.111 100.238 51.535 92.85 51.527C92.905 50.758 93.081 50.11 93.365 50.095Z" fill="#653348"/>
<path d="M134.91 116.894L137.539 115.603L138.587 118.622C140.124 123.187 141.135 126.93 140.67 127.672C139.444 129.628 124.126 143.108 120.963 143.926C117.944 144.706 115.641 143.656 120.206 138.448L120.906 137.675C126.067 132.144 131.929 123.862 133.321 121.253L134.237 119.374C134.578 118.639 134.889 117.799 134.91 116.894Z" fill="#4C2435"/>
<path d="M17.143 217.048C15.059 212.427 13.996 209.304 13.954 207.679C13.891 205.242 15.725 201.498 24.264 192.748C32.802 183.998 52.922 164.39 56.029 160.029C57.515 157.237 57.919 155.76 59.603 154.097C61.287 152.434 72.985 147.673 76.843 146.221C80.701 144.768 91.241 142.878 103.595 143.593C111.831 144.07 122.691 146.258 136.178 150.158C119.711 168.324 105.497 180.925 93.534 187.961C75.59 198.515 47.104 210.463 38.517 213.775C32.79 215.983 25.666 217.074 17.143 217.048Z" fill="#E6E4E7"/>
<path d="M76.842 146.222C79.209 145.331 84.092 144.274 90.366 143.756L91.438 141.998C84.52 153.837 74.791 164.726 62.252 174.665L59.158 177.096C43.971 188.919 25.713 201.468 18.279 199.352C19.514 197.834 21.075 196.076 23.037 194.019L26.26 190.717C35.589 181.275 53.144 164.08 56.028 160.03C57.514 157.238 57.918 155.761 59.602 154.098C61.286 152.435 72.984 147.674 76.842 146.222Z" fill="#F5F3F6"/>
<path d="M69.401 153.523C75.299 151.507 87.453 148.547 95.469 148.572C103.485 148.597 113.729 149.881 115.72 150.329C117.639 150.761 126.222 156.887 127.278 159.689C114.517 172.804 103.277 182.229 93.532 187.961C75.588 198.515 47.102 210.463 38.515 213.775C32.79 215.983 25.666 217.074 17.143 217.048L16.015 214.455C14.675 211.237 13.988 208.979 13.954 207.679C13.916 206.222 14.557 204.297 16.905 201.113C17.519 203.206 19.905 203.893 24.064 203.176C34.161 201.435 72.821 183.812 88.785 174.776L91.305 173.069C98.849 167.837 87.579 150.713 85.149 150.915C81.097 151.253 73.047 152.337 69.401 153.523Z" fill="#D4D1D5"/>
<path d="M22.719 207.667C28.001 207.21 51.629 199.367 60.967 195.572L62.985 194.714C70.276 191.419 81.101 188.276 86.718 190.151C87.522 190.419 87.203 191.123 86.042 192.139L82.07 194.214C65.245 202.843 45.43 211.108 38.515 213.775C32.79 215.983 25.666 217.074 17.143 217.048L16.015 214.455C14.675 211.237 13.988 208.979 13.954 207.679C13.93 206.771 14.17 205.682 14.922 204.22C16.176 205.866 18.602 208.023 22.719 207.667Z" fill="#BEBBC0"/>
<path d="M76.053 146.523L76.842 146.222C80.7 144.769 91.24 142.879 103.594 143.594C110.898 144.017 120.267 145.786 131.702 148.901C130.972 149.925 129.729 150.997 127.991 152.121L123.643 150.817C113.201 147.755 105.962 146.174 101.926 146.074L76.053 146.523Z" fill="#BFBAC2"/>
<path d="M57.154 157.798L58.192 157.245C64.194 154.048 72.816 150.008 78.788 148.825C87.746 147.05 99.235 146.546 106.715 147.434C111.037 147.947 118.129 149.509 127.99 152.12L132.738 153.399L132.387 154.282L129.482 157.366L125.809 155.381C116.787 150.988 98.958 149.921 92.246 150.022C85.533 150.123 75.618 151.553 66.259 155.095C62.701 156.442 59.376 157.919 56.285 159.527L57.154 157.798Z" fill="#8F8F91"/>
<path d="M142.247 146.87C137.967 138.283 135.307 130.947 134.269 124.863C132.711 115.736 134.124 92.376 134.364 85.774C134.604 79.172 136.449 72.415 142.196 69.339C147.943 66.263 154.393 66.52 161.765 67.386C169.137 68.252 178.406 66.04 182.679 61.798C186.952 57.556 186.964 51.679 185.605 45.775C184.246 39.87 182.566 34.81 183.622 32.869C184.678 30.928 188.958 35.319 189.855 36.848C190.453 37.867 192.426 40.626 195.774 45.124C203.456 53.36 207.559 57.736 208.082 58.253C208.867 59.029 217.058 65.29 217.85 66.125C218.378 66.682 223.6 71.524 233.518 80.65C222.435 85.779 215.509 89.245 212.739 91.049C208.584 93.755 193.395 114.332 185.262 120.186C177.129 126.04 158.122 133.436 154.569 135.546C152.199 136.954 148.092 140.728 142.247 146.87Z" fill="#C5D5C9"/>
<path d="M149.229 82.159C153.302 79.534 171.581 80.267 176.525 87.945C178.842 91.544 178.384 108.295 175.19 125.949L170.632 128.143C163.509 131.477 156.574 134.355 154.568 135.546C152.199 136.953 148.093 140.727 142.247 146.869C137.967 138.282 135.307 130.946 134.269 124.862C133.244 118.855 133.971 107.008 134.338 97.506L135.399 94.491C146.573 103.574 154.297 110.5 156.308 105.458C159.689 96.981 145.156 84.784 149.229 82.159Z" fill="#B1C9B9"/>
<path d="M189.739 36.681L190.65 38.069C191.63 39.5 193.338 41.852 195.773 45.123L208.081 58.252L209.46 59.399C211.802 61.274 216.305 64.756 217.571 65.866L233.516 80.65L228.761 82.868C226.259 83.315 224.381 83.515 223.132 83.466L222.56 83.421C219.275 83.004 207.892 83.946 204.027 84.577L201.137 85.158C199.008 85.642 197.207 86.361 197.26 88.536C197.307 90.469 198.321 93.765 200.302 98.426L196.361 99.766C179.853 105.25 170.765 106.538 169.095 103.631C166.399 98.934 159.71 94.216 151.764 93.352C144.447 92.557 137.32 93.137 134.101 91.43L134.363 85.774C134.495 82.146 135.111 78.471 136.593 75.386L142.701 75.751C152.98 76.277 171.574 76.674 179.06 72.42C188.963 66.793 193.149 59.05 192.239 52.311L191.635 48.157C191.156 45.036 190.524 41.211 189.739 36.681Z" fill="#A1AEA5"/>
<path d="M188.207 34.839L188.826 36.623C189.41 38.34 189.843 39.782 190.126 40.949L190.31 41.773C190.856 44.477 193.592 51.972 191.83 58.057C190.068 64.142 184.909 70.558 176.138 72.476C167.994 74.257 162.645 73.171 158.271 72.904L157.278 72.859C152.717 72.73 147.538 70.685 144.947 74.372C142.356 78.059 140.251 85.965 139.626 89.683C139.001 93.402 139.645 106.089 140.575 113.467C141.195 118.385 141.89 122.988 142.659 127.274L137.056 131.635L134.215 124.513L134.268 124.862C132.71 115.735 134.123 92.375 134.363 85.773C134.603 79.171 136.448 72.414 142.195 69.338C147.942 66.262 154.392 66.519 161.764 67.385C169.136 68.251 178.405 66.039 182.678 61.797C186.951 57.555 186.963 51.678 185.604 45.774L184.067 39.465C183.357 36.438 182.971 34.063 183.62 32.868C184.344 31.538 186.581 33.181 188.207 34.839Z" fill="#BDC7C0"/>
<path d="M142.168 80.215L142.034 80.57C141.001 83.516 140.409 90.223 139.984 92.412C136.156 92.05 135.081 91.483 135.827 93.094C136.37 94.265 137.126 94.257 139.427 97.817C139.578 102.926 140.027 109.119 140.575 113.467C141.195 118.385 141.89 122.988 142.659 127.274L136.25 133.549L134.217 124.529L134.074 123.533C132.837 113.647 134.135 92.076 134.363 85.774C134.466 82.948 134.862 80.093 135.734 77.511C138.515 77.503 140.656 78.407 142.168 80.215Z" fill="#94A296"/>
<path d="M185.338 32.615L185.492 33.056C186.139 35.127 186.686 38.105 187.311 41.818C188.115 46.592 188.591 51.908 187.05 56.843C185.508 61.777 180.628 65.807 177.285 67.409C174.22 68.878 169.81 69.698 163.311 69.31L161.486 69.174C153.975 68.507 147.422 68.378 144.128 69.919C140.834 71.46 138.973 73.465 137.9 75.623L136.979 77.579C136.358 78.944 135.553 80.772 134.566 83.064C135.179 77.397 137.232 71.995 142.195 69.338C147.942 66.262 154.392 66.519 161.764 67.385C169.136 68.251 178.405 66.039 182.678 61.797C186.951 57.555 186.963 51.678 185.604 45.774L184.067 39.465C183.357 36.438 182.971 34.063 183.62 32.868C183.948 32.266 184.586 32.273 185.338 32.615Z" fill="#E1E1E1"/>
<path d="M147.687 139.36C140.432 126.147 134.642 116.507 130.315 110.441C123.825 101.342 114.098 88.823 113.541 87.799C112.984 86.774 116.159 78.392 117.286 75.536C118.037 73.632 119.995 72.914 123.157 73.381C128.722 73.368 132.473 73.404 134.408 73.491C136.343 73.578 141.439 74.115 149.694 75.102C155.275 75.94 158.152 76.51 158.326 76.81C158.586 77.261 158.596 88.424 157.995 89.161C157.394 89.899 146.32 89.018 143.951 88.331C141.583 87.643 135.538 87.099 134.198 87.684C132.858 88.269 131.811 89.855 133.647 92.727C135.483 95.599 155.486 123.037 158.505 127.407C160.518 130.321 161.39 132.064 161.122 132.636L147.687 139.36Z" fill="#E7E4E7"/>
<path d="M123.158 73.381L128.965 73.389C131.022 73.402 132.624 73.428 133.774 73.467L134.409 73.492C136.344 73.579 141.44 74.116 149.695 75.103L152.079 75.471C156.097 76.11 158.18 76.557 158.327 76.812C158.587 77.263 158.597 88.426 157.996 89.164C157.432 89.855 147.664 89.125 144.494 88.464L143.953 88.333C141.585 87.645 135.54 87.101 134.2 87.686C132.86 88.271 131.813 89.857 133.649 92.729L135.826 95.862C137.298 97.936 139.353 100.797 141.635 103.965C137.337 103.502 129.438 101.747 122.744 100.129L114.126 88.651C113.812 88.217 113.611 87.925 113.543 87.801C112.986 86.776 116.161 78.394 117.288 75.538C118.038 73.632 119.995 72.914 123.158 73.381Z" fill="#D9D5D9"/>
<path d="M120.723 96.395C125.296 97.264 128.147 97.664 129.276 97.595C134.263 97.292 134.057 95.413 133.779 94.91C132.634 92.84 129.525 87.926 133.753 87.219C143.228 85.634 144.548 87.297 147.396 87.569C150.244 87.841 158.005 77.251 151.356 76.097C144.707 74.943 130.615 73.993 127.79 74.216C124.965 74.439 121.104 73.67 119.568 74.469C118.032 75.269 113.633 85.418 113.92 86.405C114.111 87.062 116.379 90.392 120.723 96.395Z" fill="#D1C8CD"/>
<path d="M121.583 81.574C124.717 83.73 124.499 96.176 122.397 96.312C120.995 96.403 119.244 94.931 117.144 91.896C114.771 88.539 114.328 87.594 114.187 87.112C114.043 86.617 118.449 79.418 121.583 81.574Z" fill="#AFA3AA"/>
<path d="M120.589 82.882C120.726 84.568 121.153 84.985 122.189 84.02C123.225 83.056 121.981 81.296 121.498 81.048C121.015 80.799 120.452 81.196 120.589 82.882Z" fill="#4F4F4E"/>
<path d="M144.337 83.342C144.579 84.878 145.175 85.759 146.127 85.986L149.14 86.697C151.89 87.317 155.492 88.029 156.161 87.619L157.286 86.865C157.464 86.756 157.604 86.702 157.722 86.73L157.886 86.839C158.19 87.196 163.985 89.736 165.897 92.75C167.172 94.759 167.856 96.385 167.951 97.627C167.404 96.82 166.887 96.082 166.4 95.414L166.104 94.814C164.629 92.047 162.431 90.267 159.511 89.475L158.497 88.732C158.192 88.576 158.368 87.027 157.906 87.552C157.444 88.077 157.616 89.064 155.654 89.006C153.693 88.947 145.835 87.121 144.908 86.738C144.292 86.483 144.101 85.351 144.337 83.342Z" fill="#F1F1F1"/>
<path d="M196.294 45.189C196.5 45.163 205.928 55.198 206.097 55.582C206.209 55.839 206.339 56.098 206.487 56.361C207.032 56.636 207.388 56.954 207.555 57.315C207.805 57.857 206.682 62.172 206.946 63.413C207.21 64.654 209.49 65.374 211.485 65.168C213.481 64.962 215.027 64.383 215.742 64.556C216.219 64.671 216.746 64.9 217.325 65.243C217.716 65.631 218.092 65.873 218.453 65.971C218.994 66.118 228.198 74.046 229.323 75.39C230.073 76.286 231.374 78.38 233.225 81.672L229.906 83.461C225.138 82.21 221.262 81.59 218.276 81.601C213.797 81.618 204.228 82.225 201.512 82.733C198.797 83.241 195.158 85.301 195.06 88.086C194.995 89.943 196.772 94.054 200.393 100.421L184.156 120.208C181.817 123.024 175.235 126.997 164.41 132.126C162.957 122.584 163.053 115.167 164.697 109.875L166.501 104.281C167.096 102.365 167.457 100.87 167.443 99.424C169.618 99.383 172.046 99.201 174.711 98.88C187.129 97.383 183.857 84.004 179.913 80.677C178.116 79.161 172.848 76.971 164.111 74.107L167.829 74.502C168.583 74.574 169.279 74.633 169.893 74.673C175.128 75.02 183.008 73.429 186.67 71.458C190.332 69.487 195.742 63.938 195.937 59.081C196.132 54.224 194.758 49.821 195.122 47.889C195.488 45.957 196.088 45.214 196.294 45.189Z" fill="#D4CED6"/>
<path d="M196.294 45.189C196.5 45.163 205.928 55.198 206.097 55.582C206.209 55.839 206.339 56.098 206.487 56.361C207.032 56.636 207.388 56.954 207.555 57.315C207.805 57.857 206.682 62.172 206.946 63.413C207.21 64.654 209.49 65.374 211.485 65.168C213.481 64.962 215.027 64.383 215.742 64.556C216.219 64.671 216.746 64.9 217.325 65.243C217.716 65.631 218.092 65.873 218.453 65.971C218.994 66.118 228.198 74.046 229.323 75.39C230.073 76.286 231.374 78.38 233.225 81.672L229.906 83.461C225.138 82.21 221.262 81.59 218.276 81.601C213.797 81.618 204.228 82.225 201.512 82.733C199.774 83.058 197.659 84.019 196.335 85.398C192.871 81.834 189.589 78.264 186.483 74.691C185.858 73.972 185.356 73.146 184.979 72.216C185.624 71.975 186.185 71.72 186.671 71.459C190.333 69.489 195.743 63.939 195.938 59.082C196.133 54.225 194.759 49.822 195.123 47.89C195.488 45.957 196.088 45.214 196.294 45.189Z" fill="#C5BEC7"/>
<path d="M196.294 45.189C196.5 45.163 205.928 55.198 206.097 55.582C206.209 55.839 206.339 56.098 206.487 56.361C207.032 56.636 207.388 56.954 207.555 57.315C207.805 57.857 206.682 62.172 206.946 63.413C207.21 64.654 209.49 65.374 211.485 65.168C213.481 64.962 215.027 64.383 215.742 64.556C216.219 64.671 216.746 64.9 217.325 65.243C217.716 65.631 218.092 65.873 218.453 65.971C218.994 66.118 228.198 74.046 229.323 75.39C230.073 76.286 231.374 78.38 233.225 81.672L229.906 83.461C225.734 82.366 222.245 81.754 219.437 81.626L218.019 81.601C210.415 74.073 202.65 67.933 194.724 63.18C195.428 61.829 195.883 60.428 195.938 59.081C196.133 54.224 194.759 49.821 195.123 47.889C195.488 45.957 196.088 45.214 196.294 45.189Z" fill="#B7B1BA"/>
<path d="M200.394 100.421L184.157 120.208C181.818 123.024 175.236 126.997 164.411 132.126C163.619 126.927 163.287 122.359 163.415 118.422L163.034 118.635C172.661 113.712 179.365 109.249 183.147 105.247L185.88 102.313C188.755 99.187 192.058 95.485 195.789 91.206C196.619 93.407 198.154 96.482 200.394 100.421ZM228.11 74.175L229.141 75.189C229.215 75.267 229.276 75.334 229.322 75.39C230.072 76.286 231.373 78.38 233.224 81.672L229.905 83.461C225.137 82.21 221.261 81.59 218.275 81.601L215.95 81.646C215.087 81.673 214.149 81.711 213.178 81.757C213.996 81.322 214.724 80.921 215.366 80.552L216.266 80.023C219.673 77.971 224.491 75.463 228.11 74.175Z" fill="#C6C2C8"/>
<path d="M161.874 90.435C164.318 91.341 166.966 93.071 167.968 96.923C169.472 102.702 166.997 105.248 165.65 112.411C164.303 119.575 168.16 129.104 168.529 129.613C168.58 129.683 168.548 129.879 168.447 130.157L164.411 132.124C162.958 122.582 163.054 115.165 164.698 109.873L165.627 106.98C167.498 101.281 168.341 99.009 166.104 94.813C165.148 93.02 163.889 91.641 162.327 90.678L161.874 90.435Z" fill="#B2AFB3"/>
<path d="M196.294 45.189C196.332 45.184 196.691 45.528 197.25 46.094C196.78 46.645 196.546 47.46 196.557 48.544C196.58 50.915 197.341 57.176 196.917 59.819C196.493 62.463 192.926 67.826 189.536 70.675C186.146 73.524 178.207 75.312 174.443 75.613C171.934 75.814 163.856 75.114 158.018 74.537L151.918 73.892C149.451 73.597 148.778 73.644 148.166 74.504C147.758 75.077 147.286 76.23 146.748 77.963C146.782 75.631 147.157 74.115 147.873 73.415C148.114 73.179 148.682 72.944 149.577 72.708L149.758 72.706C153.594 72.671 164.658 74.327 169.893 74.673C175.128 75.02 183.008 73.429 186.67 71.458C190.332 69.487 195.742 63.938 195.937 59.081C196.132 54.224 194.758 49.821 195.122 47.889C195.488 45.957 196.088 45.214 196.294 45.189Z" fill="#F1F1F1"/>
<path d="M198.043 83.206C201.168 81.479 212.97 80.391 217.022 80.537C220.805 80.673 228.649 82.039 230.706 82.746L230.999 82.87L229.906 83.461C225.138 82.21 221.262 81.59 218.276 81.601C213.797 81.618 204.228 82.225 201.512 82.733C198.797 83.241 195.158 85.301 195.06 88.086C194.999 89.806 196.521 93.462 199.624 99.052L198.777 99.256C196.454 95.489 195.006 92.458 194.434 90.164C193.575 86.723 194.919 84.932 198.043 83.206ZM206.097 55.582C206.209 55.839 206.339 56.098 206.487 56.361C207.032 56.636 207.388 56.954 207.555 57.315C207.805 57.857 206.682 62.172 206.946 63.413C207.21 64.654 209.49 65.374 211.485 65.168C213.481 64.962 215.027 64.383 215.742 64.556C215.993 64.617 216.259 64.709 216.538 64.833C215.338 65.149 214.113 65.432 212.873 65.701C209.934 66.338 207.343 65.624 206.45 64.258C205.557 62.891 206.473 58.487 206.298 57.084L206.056 55.533L206.097 55.582Z" fill="#DDDDDD"/>
<path d="M74.128 146.045C73.291 146.036 72.787 143.247 74.642 140.459C76.498 137.671 77.87 136.411 78.59 133.93C79.31 131.45 78.683 130.828 81.769 127.776C84.855 124.724 89.942 115.662 90.246 115.906C90.55 116.15 99.733 128.385 99.995 135.387C100.257 142.389 98.88 142.125 98.181 142.16C97.482 142.195 87.23 141.58 83.664 142.696C80.099 143.812 74.965 146.054 74.128 146.045Z" fill="#712E3D"/>
<path d="M103.353 62.759C101.481 63.937 98.124 63.248 97.484 61.864C96.844 60.48 97.976 58.989 99.31 57.933C100.644 56.878 103.237 56.057 104.282 57.343C105.326 58.628 105.224 61.581 103.353 62.759Z" fill="#421A2C"/>
<path d="M106.909 72.304C104.595 73.658 101.856 73.342 101.04 71.409C100.224 69.476 101.231 68.17 102.564 67.114C103.897 66.058 106.807 64.878 107.988 66.211C109.17 67.544 109.223 70.95 106.909 72.304Z" fill="#421A2C"/>
<path d="M110.853 82.391C108.539 83.745 105.853 82.443 105.254 80.994C104.655 79.545 105.756 77.872 107.604 76.689C109.452 75.507 111.563 75.775 112.18 77.534C112.796 79.294 113.167 81.037 110.853 82.391Z" fill="#421A2C"/>
<path d="M84.098 129.781C81.499 131.499 81.018 133.84 81.282 134.699C81.546 135.558 83.638 136.049 86.073 134.747C88.507 133.445 86.697 128.063 84.098 129.781Z" fill="#190912"/>
<path d="M104.108 62.204C104.839 61.406 104.679 59.723 103.862 59.139C103.045 58.555 101.502 58.492 100.935 59.63C100.368 60.768 100.019 61.845 100.846 62.433C101.673 63.02 103.378 63.002 104.108 62.204Z" fill="#091118"/>
<path d="M108.125 72.76C108.856 71.962 108.696 70.279 107.879 69.695C107.062 69.111 105.519 69.048 104.952 70.186C104.385 71.324 104.036 72.401 104.863 72.989C105.69 73.576 107.395 73.558 108.125 72.76Z" fill="#091118"/>
<path d="M111.854 83.236C112.585 82.438 112.425 80.755 111.608 80.171C110.791 79.587 109.248 79.524 108.681 80.662C108.114 81.8 107.765 82.877 108.592 83.465C109.419 84.052 111.124 84.034 111.854 83.236Z" fill="#091118"/>
<path d="M114.312 94.256C115.043 93.458 114.883 91.775 114.066 91.191C113.249 90.607 111.706 90.544 111.139 91.682C110.572 92.82 110.223 93.897 111.05 94.485C111.877 95.072 113.581 95.054 114.312 94.256Z" fill="#091118"/>
<path d="M117.462 103.27C118.193 102.472 118.033 100.789 117.216 100.205C116.399 99.621 113.497 99.544 112.93 100.681C112.363 101.819 113.373 102.911 114.2 103.498C115.027 104.086 116.732 104.068 117.462 103.27Z" fill="#091118"/>
<path d="M118.47 106.481C117.679 105.484 109.908 100.882 107.01 100.117C104.112 99.352 98.342 97.793 97.082 98.339C95.822 98.885 94.939 99.625 94.755 100.793C94.571 101.961 94.725 104.261 95.509 104.457C96.293 104.652 96.685 101.341 98.554 101.281C100.424 101.221 110.285 104.84 114.357 107.494C118.429 110.148 105.711 117.876 104.533 117.629C103.355 117.382 95.877 112.138 94.108 111.446C92.339 110.754 89.379 108.331 87.076 110.244C84.773 112.157 86.462 119.787 87.229 121.798C87.741 123.139 88.208 124.857 88.632 126.954C90.645 128.282 91.588 128.461 91.461 127.49C91.27 126.034 89.83 117.902 89.338 116.344C88.845 114.786 89.336 113.381 91.579 114.23C93.822 115.079 101.776 121.373 102.409 121.619C103.042 121.864 106.06 121.259 112.501 116.861C118.942 112.463 119.261 107.478 118.47 106.481Z" fill="#EFEDEE"/>
<path d="M99.39 100.194C102.282 100.771 113.364 104.842 115.714 106.816C116.648 107.601 117.6 108.946 118.173 110.45C117.384 112.355 115.695 114.68 112.502 116.861C106.061 121.259 103.044 121.864 102.41 121.619C101.777 121.374 93.822 115.08 91.58 114.23C89.541 113.458 88.95 114.549 89.23 115.925L89.616 117.437C89.995 119.121 90.543 122.057 90.948 124.362C90.294 122.802 89.771 121.331 89.376 119.95C87.957 114.99 88.475 112.911 90.051 112.55C91.627 112.189 94.216 114.194 98.282 115.969C102.348 117.744 103.789 121.034 106.823 118.783C107.636 118.18 107.986 117.286 107.875 116.1L109.215 115.249C112.873 112.811 116.911 109.158 114.36 107.495C110.288 104.841 100.426 101.222 98.557 101.282C97.307 101.322 96.718 102.816 96.23 103.743C96.645 101.034 97.7 99.857 99.39 100.194ZM86.019 112.587L85.941 111.871C86.214 114.87 86.857 117.858 87.871 120.836C88.547 122.822 89.741 125.049 91.451 127.52C91.56 128.455 90.615 128.261 88.633 126.954C88.294 125.277 87.927 123.842 87.531 122.648L87.229 121.798C86.655 120.292 85.563 115.634 86.019 112.587Z" fill="#BBB6B6"/>
<path d="M116.661 104.133C123.147 101.84 128.245 101.749 134.918 104.753C141.591 107.757 148.77 111.2 158.627 116.678C165.199 120.33 170.592 123.419 174.809 125.945C164.366 128.798 157.562 131.203 154.396 133.161C149.647 136.098 116.487 170.214 111.139 175.276C107.574 178.651 100.606 183.607 90.236 190.145C88.878 180.709 87.651 172.711 86.554 166.151C84.908 156.312 83.671 135.962 84.888 130.78C86.104 125.598 90.504 119.028 93.878 116.562C97.251 114.096 110.175 106.425 116.661 104.133ZM98.953 137.853C97.47 138.043 95.962 140.292 95.414 140.972C94.866 141.652 94.959 142.462 95.591 144.866C96.223 147.27 97.926 162.036 98.256 164.097C98.586 166.158 99.38 167.517 100.426 167.492C101.471 167.468 114.426 155.665 114.695 154.039C114.964 152.413 111.706 146.915 109.032 144.101C106.359 141.289 100.437 137.663 98.953 137.853ZM120.441 116.012C119.248 116.681 117.403 117.541 115.236 121.151C113.07 124.761 115.238 128.588 116.328 129.999C117.418 131.41 122.898 132.901 125.087 133.306C127.276 133.711 130.312 134.922 131.27 134.529C132.228 134.136 138.757 127.01 139.569 126.059C140.382 125.108 138.512 123.169 136.128 122.208C133.744 121.247 130.091 119.493 127.66 118.182C125.229 116.871 121.633 115.343 120.441 116.012Z" fill="#5D5B60"/>
<path d="M117.024 103.794C123.51 101.501 128.608 101.41 135.281 104.414C141.954 107.418 149.133 110.861 158.99 116.339C165.562 119.991 170.955 123.08 175.172 125.606C164.729 128.459 157.925 130.864 154.759 132.822C150.01 135.759 115.031 170.943 109.683 176.005C106.118 179.38 99.15 184.336 88.78 190.874C87.422 181.438 86.195 173.439 85.098 166.88C83.452 157.041 82.215 136.691 83.432 131.509C84.648 126.327 89.048 119.757 92.422 117.291C95.795 114.825 110.538 106.086 117.024 103.794ZM97.498 138.582C96.015 138.772 94.507 141.021 93.959 141.701C93.411 142.381 93.504 143.192 94.136 145.595C94.768 147.998 96.471 162.765 96.801 164.826C97.131 166.887 97.925 168.246 98.971 168.221C100.017 168.196 112.971 156.394 113.24 154.768C113.509 153.142 110.251 147.644 107.577 144.83C104.903 142.018 98.981 138.392 97.498 138.582ZM118.985 116.741C117.792 117.41 115.947 118.27 113.78 121.88C111.613 125.49 113.782 129.317 114.872 130.728C115.962 132.139 121.442 133.63 123.631 134.035C125.82 134.44 128.856 135.651 129.814 135.258C130.772 134.864 137.301 127.739 138.113 126.788C138.926 125.837 137.056 123.898 134.672 122.937C132.288 121.976 128.635 120.222 126.204 118.911C123.773 117.6 120.178 116.072 118.985 116.741Z" fill="#D7D6D8"/>
<path d="M117.024 103.794C120.24 102.657 123.116 102.061 126.011 102.116C118.076 106.483 110.787 112.223 104.142 119.328C94.059 130.109 86.824 138.988 83.154 146.997L83.029 143.918C82.846 138.395 82.929 133.653 83.433 131.509C84.649 126.327 89.049 119.757 92.423 117.291C95.795 114.825 110.538 106.086 117.024 103.794Z" fill="#E0DFE1"/>
<path d="M89.827 127.933C88.435 128.895 88.241 129.676 89.341 129.812C90.442 129.948 91.603 128.727 91.577 128.184C91.551 127.641 91.219 126.971 89.827 127.933Z" fill="#4F4F4E"/>
<path d="M103.339 117.531C101.947 118.493 101.753 119.274 102.853 119.41C103.954 119.546 105.115 118.325 105.089 117.782C105.063 117.238 104.731 116.569 103.339 117.531Z" fill="#4F4F4E"/>
<path d="M119.262 109.628C117.87 110.59 117.676 111.371 118.776 111.507C119.877 111.643 121.038 110.422 121.012 109.879C120.986 109.336 120.653 108.666 119.262 109.628Z" fill="#4F4F4E"/>
<path d="M135.281 104.414L138.67 105.96C143.847 108.356 149.511 111.149 156.581 115.011L163.699 118.972C168.186 121.5 172.011 123.711 175.173 125.605L169.344 127.263C162.154 129.402 157.293 131.255 154.76 132.821C150.011 135.758 115.032 170.942 109.684 176.004L108.077 177.438C104.201 180.728 97.769 185.207 88.782 190.873L87.049 179.143C86.635 176.424 86.236 173.864 85.851 171.465L85.1 166.879C84.873 165.524 84.655 163.97 84.449 162.284C88.254 158.896 91.828 155.546 95.182 152.228L96.803 164.825C97.133 166.886 97.927 168.245 98.973 168.22C100.019 168.195 112.973 156.393 113.242 154.767C113.511 153.141 110.253 147.643 107.579 144.829C106.809 144.019 105.77 143.142 104.645 142.308C108.284 138.237 111.583 134.217 114.54 130.246L114.874 130.727C115.855 131.997 120.392 133.332 122.885 133.881L123.633 134.034C125.822 134.439 128.858 135.65 129.816 135.257C130.774 134.863 137.303 127.738 138.115 126.787C138.928 125.836 137.058 123.897 134.674 122.936C132.687 122.135 129.819 120.784 127.512 119.597L126.206 118.91C125.246 118.392 124.105 117.841 123.002 117.404C125.88 112.377 128.173 107.434 129.886 102.573C131.59 102.948 133.371 103.554 135.281 104.414Z" fill="#CBCCCF"/>
<path d="M138.221 126.944C139.384 126.213 140.53 125.679 141.65 125.399C147.823 123.496 153.68 121.447 159.222 119.252L162.087 118.078L163.699 118.972C168.186 121.5 172.011 123.711 175.173 125.605L169.344 127.263L165.943 128.309C160.598 130.012 156.871 131.516 154.76 132.821C150.011 135.758 115.032 170.942 109.684 176.004L108.077 177.438C104.201 180.728 97.769 185.207 88.782 190.873L86.878 178.028L90.327 174.992C92.753 172.826 95.406 170.404 98.114 167.885C98.371 168.112 98.661 168.228 98.972 168.221C100.017 168.197 112.972 156.394 113.241 154.768C113.29 154.47 113.221 154.042 113.059 153.525L115.547 150.994C117.506 148.979 119.16 147.217 120.363 145.838C123.242 142.539 126.237 138.75 129.238 135.325C129.48 135.339 129.671 135.316 129.815 135.257C130.663 134.909 135.874 129.287 137.625 127.34L138.221 126.944Z" fill="#BCBDC1"/>
<path d="M117.024 103.794C123.51 101.501 128.608 101.41 135.281 104.414L138.67 105.96C143.847 108.356 149.511 111.149 156.581 115.011L158.991 116.339C164.982 119.668 169.994 122.53 174.028 124.923L172.846 125.279L154.877 115.771C144.736 110.456 138.273 107.188 135.486 105.968L135.056 105.784C129.507 103.467 124.597 103.074 119.684 104.223C114.771 105.373 97.204 115.112 94.065 117.142C90.926 119.172 86.377 126.011 84.883 129.573C84.024 131.62 83.488 138.051 83.274 148.867C82.835 141.369 82.785 134.276 83.434 131.508C84.65 126.326 89.05 119.756 92.424 117.29C95.795 114.825 110.538 106.086 117.024 103.794Z" fill="white"/>
<path d="M85.816 118.771L85.782 119.001L85.587 119.283C85.104 119.79 88.356 124.211 89.632 125.563L89.927 125.85C90.875 126.653 91.369 127.995 91.211 128.415C91.053 128.835 90.234 129.746 89.047 129.498C87.86 129.25 85.845 126.384 84.578 124.439C84.241 123.921 83.868 123.26 83.493 122.508L83.541 122.918C83.318 121.471 83.349 120.481 83.636 119.949C83.899 119.458 84.626 119.065 85.816 118.771ZM100.834 84.779L101.145 84.619L101.458 84.487L101.803 84.411L101.831 84.355L101.923 84.319C102.645 84.054 103.62 83.892 104.721 83.744L107.053 83.439C109.073 83.156 112.455 83.213 113.607 82.834L115.002 82.438C116.822 81.955 119.598 81.288 120.465 81.123C121.621 80.902 122.764 82.609 121.831 83.853C120.898 85.097 116.752 86.312 114.981 86.362C113.21 86.412 110.546 86.719 108.181 86.859C105.816 86.999 104.11 87.919 103.285 88.332C102.46 88.745 100.724 89.101 100.358 89.464C100.526 90.089 104.304 93.771 106.053 95.317C107.802 96.864 115.081 102.039 116.609 103.811L119.004 106.404C119.994 107.521 120.777 108.608 120.617 109.384C120.33 110.781 119.332 111.343 118.36 111.279C117.388 111.214 114.488 107.904 113.519 106.731C112.689 105.725 110.708 104.019 108.914 102.34L108.039 101.506C106.282 99.795 103.254 97.437 102.024 96.111L101.653 95.666C101.359 95.248 101.105 95.046 100.923 95.006L101.097 95.178C99.081 93.24 97.953 91.833 97.714 90.957C97.475 90.081 97.964 89.021 99.18 87.776C99.442 86.451 99.825 85.574 100.33 85.146L100.834 84.779ZM100.891 96.19L101.004 96.497C101.12 97.328 100.3 97.923 100.004 97.872C99.659 97.813 96.652 97.969 96.027 98.875C95.506 99.63 97.455 103.29 98.835 105.566L100.465 108.166C101.817 110.432 103.644 113.809 103.986 114.725L104.379 115.835C104.703 116.825 104.947 117.871 104.602 118.164C104.118 118.575 103.048 119.414 102.362 118.976C101.904 118.684 101.387 117.82 100.939 116.904L100.335 115.555C99.868 114.424 95.706 107.436 94.012 104.247L93.432 102.117C93.341 101.745 93.265 101.371 93.221 101.008C92.997 99.164 94.672 97.403 95.657 96.771C96.303 96.358 98.047 96.164 100.891 96.19Z" fill="#F1EEEE"/>
<path d="M83.457 122.272C84.614 124.037 85.998 125.881 86.817 126.635C88.175 127.886 90.592 128.015 89.367 126.242C88.693 125.267 87.592 123.586 86.894 122.027C87.817 123.385 88.981 124.872 89.632 125.561L89.927 125.848C90.875 126.651 91.369 127.993 91.211 128.413C91.053 128.833 90.234 129.744 89.047 129.496C87.86 129.248 85.845 126.382 84.578 124.437C84.241 123.919 83.868 123.258 83.493 122.506L83.457 122.272ZM97.837 91.276C99.135 92.491 100.528 93.843 102.015 95.331C104.29 97.607 107.32 99.828 109.517 101.543L110.539 102.356C112.727 104.145 117.447 109.093 118.31 108.366C118.937 107.838 117.892 106.28 116.604 104.516L115.006 102.324L115.96 103.155C116.096 103.28 116.219 103.398 116.328 103.507L119.007 106.402C119.997 107.519 120.78 108.606 120.62 109.382C120.333 110.779 119.335 111.341 118.363 111.277C117.607 111.227 115.685 109.213 114.412 107.769L113.522 106.729C112.692 105.723 110.711 104.017 108.917 102.338L108.042 101.504C106.285 99.793 103.257 97.435 102.027 96.109L101.656 95.664C101.362 95.246 101.108 95.044 100.926 95.004L100.291 94.378C99.032 93.102 98.227 92.097 97.875 91.363L97.837 91.276ZM96.012 98.918C95.506 99.631 97.454 103.291 98.835 105.567L100.465 108.167L101.415 109.803C102.555 111.812 103.72 114.013 103.986 114.725L104.379 115.835C104.703 116.825 104.947 117.871 104.602 118.164C104.118 118.575 103.048 119.414 102.362 118.976C101.904 118.684 101.387 117.82 100.939 116.904L100.335 115.555C99.868 114.424 95.706 107.436 94.012 104.247L93.705 103.134L95.716 106.564C96.303 107.544 96.806 108.361 97.227 109.014L97.956 110.103C99.575 112.385 101.861 117.304 102.843 116.548C103.606 115.96 103.326 114.941 101.053 110.973L98.594 106.791C95.288 101.241 95.421 99.546 96.012 98.918ZM99.56 88.352C101.158 87.678 102.534 87.232 103.69 87.014L105.845 86.72C108.979 86.26 115.507 85.087 118.119 84.304C119.948 83.756 120.571 82.766 119.989 81.335L119.942 81.232L120.466 81.123C121.622 80.902 122.765 82.609 121.832 83.853C120.899 85.097 116.753 86.312 114.982 86.362C113.211 86.412 110.547 86.719 108.182 86.859C105.817 86.999 104.111 87.919 103.286 88.332C102.489 88.731 100.842 89.076 100.401 89.427L99.56 88.352Z" fill="#BDB8B8"/>
<path d="M18.739 216.748C17.197 214.437 16.254 212.841 15.911 211.958C15.396 210.634 14.555 207.843 13.599 207.745C12.643 207.647 12.3 209.582 13.208 212.097C14.116 214.612 14.582 215.435 15.458 217.186C16.334 218.937 19.028 224.264 24.313 225.826C29.598 227.388 40.75 228.175 41.812 227.697C42.874 227.219 43.407 226.032 43.618 225.522C43.83 225.012 44.873 223.554 44.684 223.076C44.495 222.598 31.859 222.789 27.14 221.798C23.994 221.137 21.194 219.453 18.739 216.748Z" fill="#BFAFAF"/>
<path d="M139.797 186.256C140.021 186.231 141.047 186.306 141.61 186.525C142.173 186.744 143.156 188.301 143.492 188.333C143.716 188.354 143.999 188.281 144.341 188.113C160.332 180.11 168.865 175.84 169.941 175.302C171.554 174.495 173.375 173.378 172.746 170.943C172.327 169.32 172.063 168.357 171.954 168.054C150.367 180.205 139.648 186.272 139.797 186.256Z" fill="#606060"/>
<path d="M19.126 215.207C17.495 215.966 17.584 217.457 18.899 219.063C20.214 220.669 23.206 222.55 26.493 223.332C29.78 224.115 42.611 224.98 43.276 224.682C43.941 224.383 44.651 222.759 46.003 223.043C47.355 223.327 49.349 221.496 49.891 221.569C50.433 221.641 50.65 223.409 51.829 223.565C53.008 223.721 54.099 223.112 54.499 223.481C54.899 223.85 56.14 225.276 57.807 225.097C59.473 224.917 67.233 222.907 69.083 222.616C70.933 222.325 78.459 219.842 79.058 219.416C79.657 218.991 80.843 215.581 81.565 214.791C82.287 214.001 83.792 214.647 84.247 215.558C84.703 216.47 90.912 214.736 93.369 213.609C95.826 212.482 117.266 201.591 120.007 200.278C122.748 198.965 125.784 197.438 126.669 196.944C127.554 196.449 127.486 195.095 127.47 193.927C127.454 192.759 128.994 188.627 130.966 187.778C132.938 186.929 137.479 187.439 138.558 187.275C139.637 187.111 171.422 170.99 172.295 170.498C173.168 170.006 173.597 168.501 174.973 167.424C176.349 166.347 179.449 165.124 180.772 165.574C181.4 165.788 181.961 166.275 182.456 167.036C182.656 167.344 182.748 167.548 183.079 167.741C183.41 167.933 183.867 167.665 184.284 167.454C208.33 155.241 220.564 149.005 220.986 148.745C221.63 148.348 220.095 146.702 220.756 146.265C221.417 145.828 221.155 146.472 222.023 146.079C222.89 145.685 224.266 144.523 224.57 144.804C224.874 145.085 225.037 146.012 227.289 144.28C229.541 142.548 239.461 133.559 242.745 129.787C246.029 126.015 253.083 117.069 256.364 108.984C258.552 103.593 259.438 100.212 259.022 98.84C256.709 94.218 255.407 91.617 255.117 91.038C254.682 90.169 253.137 87.196 250.73 88.995C249.144 88.386 246.885 87.355 244.268 81.895C242.367 79.131 237.958 75.638 236.853 75.728C235.747 75.818 229.118 79.251 222.579 81.353C216.04 83.455 208.651 85.445 205.968 87.622C203.285 89.799 191.046 103.036 186.474 108.497C181.903 113.959 175.059 121.811 172.094 123.149C169.129 124.487 157.093 127.028 154.456 128.289C151.819 129.551 124.983 155.971 117.144 163.276C109.306 170.581 95.269 183.002 87.418 187.677C79.567 192.352 47.302 207.367 39.735 209.885C32.168 212.401 20.758 214.448 19.126 215.207Z" fill="#968E8F"/>
<path d="M19.217 215.865C17.586 216.624 17.584 217.457 18.9 219.063C20.215 220.669 23.207 222.55 26.494 223.332C29.781 224.115 42.612 224.98 43.277 224.682C43.942 224.383 44.652 222.759 46.004 223.043C47.356 223.327 49.35 221.496 49.892 221.569C50.434 221.641 50.651 223.409 51.83 223.565C53.009 223.721 54.1 223.112 54.5 223.481C54.9 223.85 56.141 225.276 57.808 225.097C59.474 224.917 67.234 222.907 69.084 222.616C70.934 222.325 78.46 219.842 79.059 219.416C79.658 218.991 80.844 215.581 81.566 214.791C82.288 214.001 83.793 214.647 84.248 215.558C84.704 216.47 90.913 214.736 93.37 213.609C95.827 212.482 117.267 201.591 120.008 200.278C122.749 198.965 125.785 197.438 126.67 196.944C127.555 196.449 127.487 195.095 127.471 193.927C127.455 192.759 128.995 188.627 130.967 187.778C132.939 186.929 137.48 187.439 138.559 187.275C139.638 187.111 171.423 170.99 172.296 170.498C173.169 170.006 173.598 168.501 174.974 167.424C176.35 166.347 179.45 165.124 180.773 165.574C181.401 165.788 181.962 166.275 182.457 167.036C182.657 167.344 182.749 167.548 183.08 167.741C183.411 167.933 183.868 167.665 184.285 167.454C208.331 155.241 220.565 149.005 220.987 148.745C221.631 148.348 220.096 146.702 220.757 146.265C221.418 145.828 221.156 146.472 222.024 146.079C222.891 145.685 224.267 144.523 224.571 144.804C224.875 145.085 225.038 146.012 227.29 144.28C229.542 142.548 239.462 133.559 242.746 129.787C246.03 126.015 253.084 117.069 256.365 108.984C258.553 103.593 259.439 100.212 259.023 98.84C256.71 94.218 255.408 91.617 255.118 91.038C254.683 90.169 253.138 87.196 250.731 88.995C249.145 88.386 246.886 87.355 244.269 81.895C242.368 79.131 237.959 75.638 236.854 75.728C235.748 75.818 229.21 79.909 222.67 82.011C216.131 84.113 208.742 86.103 206.059 88.28C203.377 90.457 191.137 103.694 186.565 109.155C181.994 114.617 175.15 122.469 172.185 123.807C169.22 125.145 157.184 127.686 154.547 128.947C151.91 130.209 125.074 156.629 117.235 163.934C109.397 171.239 95.36 183.66 87.509 188.335C79.658 193.01 47.393 208.025 39.826 210.543C32.259 213.059 20.848 215.105 19.217 215.865Z" fill="#D3CACB"/>
<path d="M255.257 91.277L258.275 97.352L256.358 99.273C251.5 104.139 246.501 109.267 241.36 114.657C232.108 124.359 224.784 139.379 224.789 144.169L224.828 144.713C224.845 144.82 224.839 144.938 224.808 145.065L224.568 144.802C224.265 144.52 222.889 145.683 222.021 146.077C221.154 146.471 221.415 145.827 220.754 146.263C220.093 146.699 221.629 148.345 220.984 148.743L184.282 167.452C183.866 167.663 183.408 167.931 183.077 167.739C182.746 167.547 182.654 167.342 182.454 167.034C181.959 166.273 181.398 165.786 180.77 165.572C179.447 165.122 176.347 166.345 174.971 167.422L174.547 167.793C165.762 161.023 162.873 155.273 165.887 150.543C171.314 142.026 209.652 128.791 226.549 115.31C237.097 106.896 246.666 98.885 255.257 91.277Z" fill="#CFC3C4"/>
<path d="M54.679 223.669C57.7 223.23 60.782 222.58 63.925 221.72L68.742 220.347C73.424 218.964 78.328 217.376 79.238 216.704C79.782 215.277 83.548 210.123 87.022 209.489C89.338 209.067 91.234 209.573 92.71 211.009L97.626 208.549L102.732 206.063C111.061 201.929 122.743 195.854 127.6 193.159C127.535 193.376 127.497 193.562 127.48 193.718L127.465 195.118C127.424 195.902 127.258 196.614 126.668 196.943L123.621 198.509L114.713 202.916C107.372 206.607 95.185 212.774 93.369 213.607L92.114 214.118C89.256 215.176 84.638 216.338 84.247 215.556C83.791 214.644 82.286 213.999 81.565 214.789C80.843 215.579 79.658 218.988 79.058 219.414C78.505 219.807 72.05 221.953 69.605 222.51L67.56 222.922C64.613 223.576 59.171 224.948 57.807 225.095C56.617 225.223 55.644 224.532 55.039 223.993L54.679 223.669ZM171.38 168.369L171.634 168.09C172.969 166.017 179.998 165.232 183.23 163.726L187.114 161.777C192.35 159.093 202.41 153.841 217.294 146.02L219.195 145.86C220.574 145.762 221.439 145.754 221.789 145.835C221.903 145.861 222.002 145.926 222.086 146.031L222.021 146.076C221.154 146.47 221.415 145.826 220.754 146.262C220.093 146.698 221.629 148.344 220.984 148.742L184.282 167.451C183.866 167.662 183.408 167.93 183.077 167.738C182.746 167.546 182.654 167.341 182.454 167.033C181.959 166.272 181.398 165.785 180.77 165.571C179.447 165.121 176.347 166.344 174.971 167.421C173.595 168.498 173.166 170.003 172.293 170.495L150.646 181.437C144.332 184.587 138.988 187.206 138.556 187.272C138.194 187.327 137.444 187.306 136.531 187.286L139.471 185.361C140.111 184.953 140.817 184.511 141.59 184.036L142.799 183.298C145.826 181.467 168.457 171.014 171.38 168.369Z" fill="#655B5C"/>
<path d="M237.809 81.825C234.968 84.104 225.867 90.001 219.314 94.214C212.761 98.427 199.429 105.272 197.236 106.79C195.043 108.308 193.971 112.162 197.777 111.936C201.583 111.711 207.262 109.384 216.738 103.494C226.214 97.604 236.349 89.693 238.633 87.296C240.917 84.9 240.65 79.546 237.809 81.825Z" fill="#DDD8D9"/>
<path d="M237.981 76.626C238.258 76.628 238.7 76.748 239.238 76.952C240.972 78.209 243.096 80.189 244.268 81.892C246.885 87.353 249.144 88.383 250.73 88.992L250.879 88.886L251.05 89.151C251.672 89.732 251.665 90.336 251.028 90.964C250.072 91.906 246.781 87.965 245.115 88.271C243.449 88.577 240.855 91.471 238.167 93.509L236.925 94.41C232.752 97.36 222.179 104.352 216.98 107.189L213.496 109.097C208.901 111.603 204.566 113.848 201.23 114.518C197.061 115.355 196.024 113.251 195.763 112.123C195.502 110.995 195.66 110.524 196.049 109.089L196.327 109.643C196.84 110.586 197.715 111.509 200.711 110.686C204.306 109.699 221.998 99.598 226.652 96.78C231.306 93.962 239.11 87.734 241.048 86.06C242.986 84.386 242.925 82.75 242.596 81.899C242.267 81.048 240.787 80.004 240.298 79.17C239.809 78.336 238.199 78.275 237.413 77.72C236.627 77.165 234.456 78.318 235.204 79.583C235.802 80.595 236.593 81.258 237.153 81.782L238.21 82.858C238.575 83.257 238.793 83.631 238.268 83.807C237.428 84.087 236.694 83.05 235.814 83.068L234.71 83.102C233.872 83.106 232.922 83.013 232.419 82.47L231.848 81.836C231.309 81.18 230.979 80.46 231.88 79.71C233.081 78.708 236.584 76.617 237.981 76.626Z" fill="#C2BCBA"/>
<path d="M236.541 82.032C234.42 83.449 224.802 89.309 220.356 92.216C215.91 95.123 204.883 101.76 201.345 103.332C197.807 104.904 204.353 92.597 201.359 95.712C198.366 98.827 184.377 113.145 187.565 113.127C190.753 113.109 195.775 111.119 196.945 109.939C198.115 108.759 198.136 107.204 202.015 105.202C205.894 103.2 217.728 96.103 223.593 92.423C229.458 88.743 235.759 84.27 237.599 82.478C239.439 80.685 238.662 80.615 236.541 82.032Z" fill="#ECE6E7"/>
<path d="M257.881 96.56L259.021 98.837C259.437 100.209 258.551 103.591 256.363 108.981C253.3 116.528 246.951 124.824 243.448 128.963L242.743 129.785C239.459 133.557 229.539 142.546 227.287 144.278C226.066 145.217 225.459 145.375 225.111 145.277C224.653 143.58 224.641 141.669 225.727 140.279C227.479 138.037 232.741 136.463 239.548 129.42C246.355 122.377 251.038 114.14 253.657 109.163C255.209 106.214 256.59 102.146 257.798 96.958L257.881 96.56Z" fill="#A59A98"/>
<path d="M250.309 89.027L250.162 88.761L250.73 88.992C251.377 88.508 251.962 88.37 252.479 88.442L252.541 88.786C252.684 90.344 250.273 92.879 246.296 96.522L239.294 103.235C231.867 110.632 223.318 117.409 214.115 123.073L210.814 125.085C204.803 128.61 196.44 133.095 199.026 131.669L201.44 130.254C206.022 127.493 214.672 122.024 218.577 119.097L220.862 117.275C225.957 113.113 236.605 104.181 237.744 102.958L245.538 95.353C248.157 92.749 250.429 90.361 250.479 89.818C250.5 89.585 250.444 89.321 250.309 89.027Z" fill="white"/>
<path d="M206.059 88.277C208.741 86.1 216.13 84.11 222.67 82.008C226.563 80.757 230.456 78.8 233.202 77.403C231.488 78.669 229.955 79.699 228.591 80.498C224.972 82.617 218.281 84.494 214.47 85.579C210.658 86.663 206.366 88.766 203.548 92.233L202.089 93.956C198.729 97.818 193.075 103.816 191.608 105.548L189.669 107.941C187.439 110.819 184.155 115.503 181.391 121.37C177.785 129.022 166.899 130.141 163.409 129.38L162.98 129.265C160.067 128.301 155.831 129.745 153.6 131.379C152.559 132.141 150.556 134.03 148.185 136.361L139.501 145.069C136.179 148.412 133.43 151.242 131.252 153.557C134.072 151.294 144.813 143.772 142.808 146.832C140.803 149.892 133.815 157.215 128.203 161.014C122.591 164.813 116.994 169.174 113.088 171.995C109.181 174.816 98.787 183.406 93.278 186.796L86.274 191.073C79.439 195.181 69.84 200.716 60.795 204.879C52.181 208.844 44.314 211.819 37.193 213.804C44.533 211.906 50.828 209.872 56.079 207.703C63.955 204.45 73.294 199.893 82.678 194.412L85.968 192.455C93.979 187.618 104.012 181.1 109.424 177.475L115.994 173.033C121.746 169.198 129.447 164.31 132.104 163.92C135.579 163.41 137.914 165.434 139.037 166.965C139.786 167.985 140.926 170.402 142.456 174.215L141.331 171.872C140.825 170.84 140.403 170.016 140.065 169.401C139.221 167.864 137.765 166.028 135.138 165.179C132.949 164.472 125.569 168.766 116.15 174.968L110.28 178.893C98.151 187.102 75.838 199.872 68.931 203.278C62.024 206.684 46.349 212.985 38.572 214.779C30.795 216.573 22.311 216.647 20.823 216.608C19.973 216.586 19.311 217.144 18.839 218.281L18.656 218.752C17.592 217.345 17.694 216.572 19.217 215.863C20.848 215.104 32.259 213.057 39.826 210.539C47.393 208.021 79.658 193.006 87.509 188.331C95.36 183.656 109.397 171.235 117.235 163.93L127.982 153.65C138.766 143.26 152.685 129.834 154.546 128.943C157.183 127.681 169.218 125.141 172.184 123.803C174.408 122.799 178.814 118.131 182.806 113.556L188.149 107.298C193.489 101.154 203.645 90.236 206.059 88.277Z" fill="#5B2906"/>
<path d="M19.301 219.5L21.566 220.417C25.908 222.104 29.247 223.018 31.584 223.159L34.612 223.294C38.478 223.419 42.605 223.409 43.2 223.391C43.957 223.368 47.038 220.82 47.667 219.566L48.031 218.73C48.402 217.792 48.629 217.118 49.151 218.114C49.822 219.395 53.069 220.903 55.276 220.962C57.373 221.017 72.635 215.113 76.645 213.163L77.181 212.889C80.084 211.304 81.784 210.689 83.123 209.915C84.462 209.142 84.003 203.629 84.393 203.405C84.783 203.181 88.428 207.579 90.678 206.402C113.61 193.539 125.72 186.737 127.01 185.995C128.945 184.882 126.162 179.923 126.852 179.066C127.253 178.568 128.849 180.876 134.888 182.602C135.155 182.678 137.131 182.386 139.782 181.479C146.001 179.351 161.809 171.751 164.364 171.483C166.022 171.309 162.285 173.659 154.603 177.703C151.635 179.266 142.798 183.418 140.84 184.542L140.404 186.468C139.358 186.961 138.697 187.253 138.557 187.274C137.478 187.438 132.937 186.928 130.965 187.777C129.594 188.367 128.432 190.544 127.856 192.209C126.26 192.836 123.466 193.633 121.586 194.572L104.816 202.875C102.472 204.052 100.374 205.119 98.919 205.888L95.964 207.52C94.005 208.649 92.656 209.545 91.916 210.208C89.418 208.99 87.422 208.789 85.928 209.606C84.007 210.656 83.077 211.357 82.253 212.628L81.846 213.315C81.003 214.856 80.721 214.43 79.057 214.989L77.032 215.739C72.505 217.302 59.843 221.198 57.762 222.088C55.403 223.096 50.432 220.629 49.21 220.896C48.337 221.087 46.836 222.243 45.864 223.047C44.604 222.869 43.92 224.394 43.278 224.683C42.613 224.982 29.782 224.116 26.495 223.333C23.619 222.648 20.969 221.123 19.47 219.676L19.301 219.5Z" fill="#E1DCDC"/>
<path d="M189.203 123.195C198.045 121.057 207.151 118.111 218.312 112.588L224.931 109.269L235.114 104.073C236.109 103.584 236.908 103.216 237.553 102.959C240.247 101.888 228.982 112.201 221.117 117.585C213.252 122.969 200.19 130.894 192.177 135.976L189.051 138.015L185.225 140.668C178.987 145.354 176.542 148.22 175.799 150.54C175.048 152.887 180.249 154.22 183.93 155.763C187.611 157.306 193.377 156.129 195.315 150.722C197.253 145.315 201.168 139.762 202.732 138.713C204.296 137.664 207.494 136.949 211.705 137.708C215.449 138.382 218.251 139.848 219.924 142.232L220.498 143.169C220.584 143.331 221.693 144.59 220.937 144.989L213.405 148.984L210.714 150.452L206.708 152.668L199.658 156.403C194.46 159.121 188.744 162.055 185.368 163.76L182.175 165.355C181.939 165.479 181.646 165.636 181.295 165.826C181.122 165.717 180.95 165.634 180.771 165.573C179.448 165.123 176.348 166.346 174.972 167.423C173.596 168.5 173.167 170.005 172.294 170.497L150.264 181.63C148.191 182.664 146.232 183.635 144.531 184.471L142.413 185.314C140.954 185.837 140.378 185.848 141.583 184.875C145.182 181.969 168.45 170.539 170.511 169.26C172.451 168.056 168.479 168.13 163.757 167.253L162.864 167.077C157.769 166.01 145.916 163.253 144.547 158.549C143.178 153.845 147.782 142.95 159.261 134.769C170.74 126.586 180.362 125.333 189.203 123.195Z" fill="#D6CDCC"/>
<path d="M205.786 142.522C208.772 141.094 213.669 141.299 220.478 143.136L220.755 143.53C221.066 143.979 221.477 144.703 220.938 144.988L213.406 148.983L210.715 150.451L206.709 152.667L199.659 156.402C194.461 159.12 188.745 162.054 185.369 163.759L182.176 165.354L181.296 165.825C181.123 165.716 180.951 165.633 180.772 165.572C179.449 165.122 176.349 166.345 174.973 167.422C173.597 168.499 173.168 170.004 172.295 170.496L150.265 181.629L144.532 184.47L142.414 185.313L141.582 185.58C140.787 185.791 140.647 185.63 141.584 184.873C145.183 181.967 168.451 170.537 170.512 169.258C171.597 168.584 170.832 168.311 169.12 168.047L170.423 167.54C170.787 167.406 171.077 167.309 171.283 167.252L171.527 167.199C173.576 166.956 190.118 158.12 193.13 156.388C196.142 154.656 200.436 145.081 205.786 142.522Z" fill="#C6BEBD"/>
<path d="M205.939 146.954L207.298 146.346C210.684 145.003 214.665 144.85 219.241 145.888L213.407 148.984L210.716 150.452L206.71 152.668L199.66 156.403C194.462 159.121 188.746 162.055 185.37 163.76L182.177 165.355L181.297 165.826C181.124 165.717 180.952 165.634 180.773 165.573C179.45 165.123 176.35 166.346 174.974 167.423C173.598 168.5 173.169 170.005 172.296 170.497L150.266 181.63L144.533 184.471L142.415 185.314L141.583 185.581C140.788 185.792 140.648 185.631 141.585 184.874C145.184 181.968 168.452 170.538 170.513 169.259C170.83 169.063 170.989 168.9 171.013 168.762L176.181 166.286C184.581 162.226 195.094 156.981 196.958 155.584C199.774 153.471 200.852 149.51 205.939 146.954Z" fill="#B6ADAC"/>
<path d="M136.742 176.312C137.525 174.986 135.642 169.175 131.935 169.214C128.227 169.253 108.222 181.651 102.149 185.104C96.076 188.557 74.228 201.583 69.362 203.938C64.496 206.293 44.143 214.55 45.911 214.439C47.679 214.328 57.92 211.784 60.087 212.459C62.254 213.134 65.531 215.117 67.522 214.244C69.513 213.371 81.254 208.328 81.709 207.241C82.164 206.154 82.197 199.924 82.901 199.579C83.605 199.235 87.638 203.136 88.99 203.18C90.342 203.224 100.648 197.241 107.241 193.67C113.834 190.099 125.381 183.831 125.521 183.427C125.662 183.023 124.264 175.708 125.091 175.236C125.918 174.764 130.99 179.646 131.509 179.695C132.028 179.743 135.959 177.638 136.742 176.312Z" fill="#DDD8D9"/>
<path d="M157.728 77.199C152.261 76.488 149.26 76.245 148.724 76.47C148.188 76.695 147.59 79.482 146.929 84.831L146.164 84.006C146.862 78.756 147.537 75.968 148.189 75.64C149.168 75.148 156.95 76.002 157.258 76.261C157.463 76.432 157.62 76.745 157.728 77.199Z" fill="#F4F4F4"/>
<path d="M148.037 84.276C148.98 84.593 154.565 85.667 155.379 85.146C156.193 84.625 157.416 78.101 157.344 77.772C157.272 77.443 157.019 76.675 156.639 76.364C157.646 76.609 158.197 77.097 158.217 77.573C158.237 78.049 157.015 85.398 156.743 85.928C156.471 86.458 155.745 86.971 154.77 86.916C153.795 86.86 147.306 85.428 146.937 85.164C146.568 84.9 146.278 84.016 146.342 83.44C146.361 83.269 146.62 82.386 146.685 82.358C146.765 82.323 146.875 83.904 148.037 84.276Z" fill="#BFB9C1"/>
<path d="M148.131 75.006C147.301 75.361 147.023 76.305 146.37 79.927L146.061 81.809C145.754 83.995 145.886 84.948 146.643 85.424C147.459 85.937 152.831 87.075 154.475 87.193C156.013 87.303 156.905 86.91 157.203 85.77L157.443 84.629C157.691 83.334 158.03 81.35 158.242 79.974L158.505 78.013C158.636 76.704 158.051 76.005 156.11 75.69L153.838 75.344C151.312 74.987 149.283 74.805 148.425 74.932L148.131 75.006ZM148.411 75.661C148.94 75.435 152.364 75.805 155.996 76.393C157.351 76.613 157.773 76.917 157.808 77.579L157.772 78.143L157.397 80.752C157.096 82.611 156.675 84.969 156.513 85.589C156.322 86.323 155.762 86.569 154.525 86.481C152.991 86.372 147.709 85.252 147.021 84.82C146.536 84.515 146.506 83.458 146.902 81.029L147.07 80.053C147.58 77.224 147.871 76.113 148.26 75.76L148.411 75.661Z" fill="#AEAEAE"/>
<path d="M184.893 159.934C184.797 158.789 182.674 156.598 179.379 155.737C176.085 154.876 172.395 151.778 174.071 149.45C175.748 147.121 188.304 137.361 192.812 134.81C197.319 132.258 217.204 119.666 224.463 114.33C229.302 110.773 233.142 107.491 235.983 104.484C225.674 110.06 217.065 114.421 210.157 117.568C199.795 122.288 182.338 125.592 175.568 128.013C168.798 130.434 156.994 136.164 153.08 141.175C149.165 146.186 145.269 153.846 145.915 157.115C146.561 160.384 147.9 162.762 152.251 164.169C156.602 165.576 165.361 166.648 166.909 166.774C168.457 166.9 170.266 166.984 171.823 166.442C173.379 165.9 184.988 161.079 184.893 159.934Z" fill="#C2B8B6"/>
</g>
<defs>
<clipPath id="clip0_7_345">
<rect width="273" height="253" fill="white"/>
</clipPath>
</defs>
</svg>
