<svg width="273" height="247" viewBox="0 0 273 247" fill="none" xmlns="http://www.w3.org/2000/svg">
<g clip-path="url(#clip0_7_2)">
<path d="M131.563 48.2953C132.106 49.3803 130.956 50.9233 131.092 53.3343C131.228 55.7453 131.85 63.2813 132.351 68.4064C132.852 73.5314 128.984 81.1234 119.753 92.3604C110.521 103.597 85.1284 133.355 81.1854 138.879C77.2424 144.403 75.1414 145.454 71.8584 147.097C68.5754 148.74 66.4654 149.737 65.7024 149.46C64.9394 149.184 64.5384 148.319 64.5684 147.195C64.5994 146.071 65.8734 141.779 66.9324 141.249C67.6384 140.896 68.4814 140.474 69.4624 139.983C74.2734 129.455 77.0514 123.36 77.7964 121.696C78.9134 119.201 82.7064 112.051 85.7694 107.677C88.8325 103.304 94.5215 96.0894 95.9405 93.9554C97.3595 91.8214 99.5055 86.1364 100.439 83.4504C101.373 80.7644 109.356 71.4124 110.741 67.7953C112.126 64.1783 121.684 52.2933 122.9 49.5193C124.116 46.7463 124.288 45.6723 125.783 44.9243C127.278 44.1763 128.542 44.2183 129.35 44.8533C130.159 45.4903 131.02 47.2103 131.563 48.2953Z" fill="#F4F4F4"/>
<path d="M86.8955 117.719C88.6055 118.499 85.4145 125.775 83.7025 125.524C82.1725 125.299 79.8965 124.283 77.9825 121.302L78.7925 119.637C79.3595 118.518 80.0735 117.164 80.8665 115.729L82.2195 113.345C82.8015 114.899 85.4965 117.082 86.8955 117.719ZM92.3735 98.9664L95.9155 99.4614C98.8235 99.9004 101.564 100.568 101.532 102.327C101.487 104.791 97.1685 105.234 95.0625 104.516L93.0365 103.796C91.7985 103.393 90.9035 103.299 91.0645 104.448C91.3055 106.171 94.0455 110.737 92.8085 111.659C91.5865 112.569 89.8995 106.411 87.3815 105.416L92.2605 98.9384L92.3735 98.9664ZM110.786 78.1304C110.999 80.1694 108.096 93.9554 105.587 94.0374C103.077 94.1204 101.587 91.1774 100.178 88.2094C99.8885 87.6004 99.4945 87.2954 99.0405 87.2234L100.159 84.2494C100.262 83.9624 100.356 83.6944 100.441 83.4514C100.706 82.6884 101.54 81.3884 102.63 79.8334L104.088 79.2224C107.121 77.9884 110.648 76.8144 110.786 78.1304ZM113.06 63.7983L114.577 63.9193C117.534 64.2163 119.458 64.7543 120.349 65.5343C122.067 67.0373 118.744 71.4274 116.312 70.0083C114.392 68.8883 112.778 68.0324 110.235 68.8544L110.526 68.2984L110.743 67.7973C111.089 66.8913 111.948 65.4673 113.06 63.7983Z" fill="#D0CFCD"/>
<path d="M125.783 44.9253C127.278 44.1773 128.542 44.2193 129.35 44.8543C130.159 45.4903 131.02 47.2093 131.563 48.2943C132.106 49.3793 130.956 50.9223 131.092 53.3333L131.471 58.4713C131.725 61.6063 132.058 65.4163 132.351 68.4053C132.827 73.2733 129.36 80.3693 121.098 90.7014L114.575 98.5944C103.319 112.058 84.5315 134.192 81.1854 138.878C77.5454 143.976 75.4754 145.264 72.5964 146.724L69.8454 148.089C67.7044 149.119 66.2954 149.674 65.7024 149.46C64.9394 149.184 64.5384 148.318 64.5684 147.194C64.5994 146.07 65.8734 141.779 66.9324 141.249L68.9654 140.244C69.4834 140.374 69.8964 140.455 70.0664 140.37C70.5674 140.119 71.4614 138.77 72.2444 137.255L72.6244 136.488C73.4244 134.799 78.0724 127.254 82.1244 121.478L86.6945 115.083C88.9615 111.939 90.8435 109.45 92.9705 107.145C96.1605 103.687 99.8965 100.001 101.641 97.6014L102.662 96.1324C104.27 93.7384 106.081 90.7044 106.303 89.9714C106.574 89.0754 105.909 85.7154 107.883 83.1033C109.857 80.4913 120.922 75.5323 121.279 71.9453C121.636 68.3593 125.043 54.2733 125.198 52.7813C125.331 51.5033 124.414 50.7733 123.568 49.4293L123.205 48.7963L123.953 47.0443C124.431 45.9883 124.849 45.3933 125.783 44.9253Z" fill="#4F4F4F"/>
<path d="M125.472 45.0973L125.915 44.8723C127.571 46.3933 128.531 47.4473 128.795 48.0333C129.256 49.0553 129.114 52.3143 129.178 57.8454C129.216 61.0724 129.633 65.0314 130.431 69.7234L130.796 71.7794L129.857 72.2494L129.12 68.2674C128.799 66.4184 128.55 64.7824 128.371 63.3584C127.926 59.8004 128.396 49.7893 128.222 48.3193C128.086 47.1723 126.401 46.3373 125.195 45.2823L125.472 45.0973Z" fill="#1D1D1D"/>
<path d="M25.7684 197.363C26.5814 193.583 30.8074 190.221 36.6494 183.046C42.4924 175.871 63.1554 153.945 64.9055 151.747C66.6555 149.548 107.172 100.895 110.774 95.5564C114.376 90.2174 127.113 66.3274 149.821 74.6124C172.529 82.8974 178.261 83.4544 181.44 89.8064C184.619 96.1584 186.755 108.56 174.896 117.654C163.037 126.75 115.076 155.87 100.348 166.601C85.6195 177.332 59.4264 205.24 45.1844 206.472C30.9424 207.704 24.9544 201.143 25.7684 197.363Z" fill="#DCDCDC"/>
<path d="M87.0955 148.657C90.7875 149.43 73.5635 169.59 69.5745 173.703C65.5855 177.816 55.5294 183.263 51.0254 184.39C47.3164 185.319 34.5184 195.404 25.7004 198.191C25.6894 197.897 25.7124 197.623 25.7684 197.363C26.5234 193.853 30.2204 190.704 35.4234 184.527L36.6504 183.046C41.4744 177.122 56.4004 161.144 62.4445 154.514L69.6795 152.387C79.6125 149.551 85.4175 148.306 87.0955 148.657Z" fill="#EBEBEB"/>
<path d="M139.625 74.7675C141.671 81.2525 146.454 91.9675 138.333 100.775C127.242 112.805 122.877 110.131 116.469 111.593C110.061 113.055 109.914 124.812 111.052 130.344C112.19 135.875 105.801 138.978 100.205 137.72C94.8525 136.517 93.5245 124.859 96.6385 117.082L98.1955 113.588C98.7665 112.273 99.4415 110.682 100.202 108.885L107.377 100.001L110.182 96.3835L110.775 95.5565C113.007 92.2465 122.624 85.3165 139.625 74.7675Z" fill="#D0D0D0"/>
<path d="M136.678 86.4865C138.067 90.9265 136.197 99.6475 131.299 104.17C128.033 107.185 124.563 108.922 120.889 109.38C121.72 101.789 122.92 96.7565 124.486 94.2825C126.836 90.5715 135.289 82.0465 136.678 86.4865Z" fill="#D8D8D8"/>
<path d="M185.061 21.1904C186.102 18.6954 189.83 16.9303 192.764 18.6443C195.698 20.3583 197.763 27.3554 199.601 31.1714C201.439 34.9874 204.897 41.9824 207.862 45.1644L208.964 46.4034C213.21 51.3124 224.119 64.9784 227.283 70.5555C229.614 74.6645 232.39 80.2325 235.61 87.2595L231.768 90.0935C215.627 101.91 206.088 107.695 203.149 107.448C198.402 107.049 192.168 73.6365 185.407 74.8155C179.021 75.9295 167.076 75.2685 153.263 72.4225L150.807 71.8975C135.962 68.6095 127.919 70.0355 124.205 70.6315C120.49 71.2275 109.694 85.5985 108.462 85.7735C107.23 85.9485 106.129 85.0465 105.629 84.2155C105.129 83.3845 106.151 82.8735 107.444 81.3435C108.738 79.8135 110.826 73.8655 112.516 71.3735C114.206 68.8815 117.645 65.3135 124.185 62.2835C130.725 59.2534 142.009 61.8334 155.71 64.9035C169.411 67.9735 179.72 66.9325 184.764 63.3075C189.528 59.8834 188.334 51.6344 186.117 46.2554L185.716 45.3374C183.259 40.0274 183.316 36.6064 184.9 35.1484C186.485 33.6904 189.432 34.6444 190.366 34.8024L191.345 34.9864C191.772 35.0494 192.12 35.0294 192.451 34.7484C193.002 34.2804 191.566 33.4654 188.109 30.2914C184.654 27.1174 184.02 23.6854 185.061 21.1904ZM186.378 22.4843C185.569 25.5694 190.535 29.2374 192.056 30.7214L195.541 34.0844C196.841 35.3794 198.017 36.6444 198.281 37.2654C198.809 38.5064 200.756 40.4744 201.005 40.2344C201.253 39.9944 198.562 34.3414 197.56 31.9864C196.558 29.6314 194.81 23.8444 192.841 21.4393C190.871 19.0343 187.187 19.4003 186.378 22.4843Z" fill="#434343"/>
<path d="M123.154 67.2304C127.848 64.9994 132.504 64.0494 137.123 64.3814C144.051 64.8784 147.326 66.2644 155.263 68.0584C163.2 69.8534 174.966 70.3504 180.887 68.6234C184.834 67.4714 188.778 64.6434 192.717 60.1404C194.17 65.3934 190.869 69.1134 182.814 71.3004C170.731 74.5804 147.938 73.0554 140.677 70.0234C135.836 68.0014 129.995 67.0704 123.154 67.2304Z" fill="#EEEEEE"/>
<path d="M124.28 67.1794C130.933 64.7914 139.457 65.1674 144.185 66.6124C148.913 68.0564 160.313 70.7514 167.192 70.8594C174.071 70.9674 179.378 70.5034 180.514 69.9344C181.65 69.3664 196.624 89.3635 196.025 100.928C195.426 112.493 178.479 127.022 164.856 133.839C151.234 140.656 126.757 151.856 113.689 165.554L112.244 167.076C99.7815 180.262 89.0375 193.071 86.9325 188.866C84.7465 184.499 96.3985 147.121 95.2125 144.752C94.0695 142.468 85.8135 146.045 81.9825 147.926L67.6264 155.108C63.3244 157.261 67.8004 152.422 77.3235 143.653C86.8455 134.884 100.293 110.971 102.461 104.299C104.629 97.6285 106.912 86.3234 109.583 81.5624C112.255 76.8044 117.627 69.5674 124.28 67.1794ZM168.87 92.7915C167.984 92.8585 163.238 98.8915 156.398 107.203C149.558 115.517 145.483 119.957 145.96 120.653C146.437 121.35 156.605 116.893 163.457 112.575C170.309 108.257 175.545 101.992 174.828 98.5705C174.111 95.1485 169.756 92.7235 168.87 92.7915ZM104.999 124.83C103.153 125.705 101.831 127.232 101.031 129.412C99.8315 132.681 102.434 132.624 104.297 132.672C105.539 132.704 106.877 132.307 108.312 131.481L104.999 124.83ZM134.258 91.4565L133.291 91.9815C127.516 95.2605 127.032 100.529 126.457 104.754C125.882 108.979 119.029 113.529 119.462 114.395C119.895 115.26 123.765 114.555 126.32 113.32C128.876 112.083 134.692 107.11 137.662 104.359C140.632 101.608 154.412 89.7825 154.602 89.0455C154.792 88.3075 152.237 87.7395 148.813 87.7445C145.389 87.7495 139.066 88.7025 133.291 91.9815L134.258 91.4565Z" fill="#8E8C89"/>
<path d="M124.373 66.4763C131.026 64.0883 139.55 64.4643 144.278 65.9093C149.006 67.3533 160.406 70.0483 167.285 70.1563C174.164 70.2643 179.471 69.8003 180.607 69.2313C181.743 68.6633 196.717 88.6603 196.118 100.225C195.519 111.79 178.572 126.318 164.949 133.135C151.326 139.952 126.85 151.152 113.782 164.85C100.714 178.549 89.6675 192.721 87.4825 188.354C85.2965 183.987 96.9486 146.608 95.7626 144.239C94.6196 141.955 85.9395 145.354 82.0775 147.223L67.7205 154.405C63.4185 156.558 67.8945 151.719 77.4175 142.95C86.9395 134.181 100.387 110.269 102.555 103.597C104.723 96.9263 107.006 85.6213 109.677 80.8603C112.348 76.1013 117.72 68.8643 124.373 66.4763ZM168.794 91.8013C167.908 91.8683 163.032 98.0613 156.192 106.374C149.352 114.687 144.239 120.384 144.75 121.404C145.26 122.424 156.491 117.573 163.975 113.058C171.459 108.544 176.426 102.253 175.44 98.3463C174.452 94.4393 169.68 91.7343 168.794 91.8013ZM105.092 124.126C103.051 125.059 101.571 126.833 100.653 129.45C99.2756 133.375 102.612 132.993 104.746 133.021C106.168 133.04 107.541 132.586 108.863 131.66L105.092 124.126ZM148.906 87.0423C145.482 87.0473 138.694 88.3543 132.919 91.6333C127.144 94.9123 126.553 100.392 125.978 104.617C125.403 108.842 118.179 113.771 118.612 114.636C119.045 115.501 122.638 115.728 126.267 113.912C129.896 112.096 135.036 107.681 138.006 104.93C140.976 102.179 155.418 89.8833 155.663 88.8603C155.908 87.8373 152.329 87.0373 148.906 87.0423Z" fill="#ECE9EB"/>
<path d="M124.373 66.4764C130.551 64.2594 138.342 64.4254 143.209 65.6164L146.68 66.5934C152.171 68.0705 161.388 70.0635 167.285 70.1565C174.164 70.2645 179.471 69.8005 180.607 69.2315C181.743 68.6635 196.717 88.6605 196.118 100.226C195.887 104.677 193.235 109.567 189.283 114.287C185.633 113.259 182.523 109.49 181.062 103.168L180.774 101.774C178.329 88.3845 168.635 86.9305 151.034 80.7255C141.188 77.2545 126.186 80.7365 106.027 91.1715L106.896 88.1445C107.778 85.2075 108.701 82.5985 109.676 80.8605C112.347 76.1015 117.72 68.8644 124.373 66.4764Z" fill="#D4CED3"/>
<path d="M124.373 66.4764C128.687 64.9284 133.787 64.5424 138.129 64.8554C143.733 67.0744 147.971 70.3354 152.391 71.5474C159.771 73.5715 168.301 79.2935 173.514 83.5045C178.727 87.7155 190.917 98.0445 172.341 114.641C151.337 128.986 136.566 134.186 128.029 130.242C114.848 124.152 107.74 115.837 101.177 126.281L100.543 127.351C96.0475 135.386 90.6684 140.937 84.4064 144.005L87.7344 135.186C89.3654 130.902 90.9484 126.807 92.4834 122.901L94.4085 119.702C98.4515 112.837 101.6 106.541 102.556 103.599C103.815 99.7225 105.114 94.2815 106.505 89.4695L108.772 84.6485C110.61 80.8255 112.322 77.4915 113.907 74.6465C116.691 71.2324 120.291 67.9414 124.373 66.4764ZM154.195 108.789C148.385 115.781 144.289 120.487 144.749 121.405C145.259 122.425 156.49 117.574 163.974 113.059C171.458 108.545 176.425 102.254 175.439 98.3465C174.452 94.4385 169.68 91.7335 168.794 91.8015C168.374 91.8335 167.059 93.2395 165.064 95.5945L154.195 108.789ZM134.268 90.9115L132.919 91.6335C127.144 94.9125 126.553 100.393 125.978 104.618C125.403 108.843 118.179 113.772 118.612 114.637C119.045 115.502 122.638 115.729 126.267 113.913C129.442 112.324 133.775 108.745 136.798 106.033L139.697 103.414C144.502 99.1645 155.45 89.7505 155.664 88.8605C155.91 87.8365 152.329 87.0375 148.906 87.0425C146.009 87.0465 140.703 87.9835 135.641 90.2575L134.268 90.9115Z" fill="#D9D5D8"/>
<path d="M111.542 107.905L112.07 108.919L112.967 110.427C114.033 112.076 115.625 114.06 117.885 115.613C116.471 116.879 114.66 117.761 112.806 118.424C110.862 119.119 108.822 119.321 107.062 118.983C107.192 114.644 107.927 109.345 108.723 108.285C109.942 106.658 110.723 106.268 111.542 107.905Z" fill="#3700C3"/>
<path d="M174.358 74.8184L159.632 88.7344C147.53 100.087 139.309 107.532 134.968 111.069C128.56 116.291 124.748 117.179 122.312 116.956C126.46 116.67 131.594 113.198 135.661 109.754L137.682 107.986L147.565 99.0164C158.211 89.2614 171.903 76.5424 173.314 75.1534C173.696 74.7774 174.046 74.6944 174.358 74.8184Z" fill="#DACEF6"/>
<path d="M69.8585 152.344C72.3345 152.136 74.3235 151.658 75.8245 150.91C78.0755 149.788 88.8755 143.746 90.1065 142.276C91.3386 140.805 97.5156 130.912 98.8376 127.64C100.16 124.367 100.91 121.975 103.415 120.777C105.92 119.579 113.398 115.291 116.776 115.904C120.154 116.519 120.374 109.92 120.683 108.284C120.992 106.648 122.709 98.9165 123.536 97.1775C124.363 95.4385 126.429 91.1394 129.291 90.0824C132.153 89.0254 137.445 88.1784 141.437 87.6604C145.429 87.1424 149.151 88.0044 149.75 84.8244C150.349 81.6444 149.547 78.2164 145.677 76.0434C141.806 73.8714 129.887 79.2514 122.091 85.7704C114.295 92.2894 99.1596 117.025 92.9655 125.137C86.7715 133.248 77.4525 146.912 72.5635 149.127C69.3045 150.604 68.4035 151.676 69.8585 152.344Z" fill="#B8B4B9"/>
<path d="M124.713 86.0324L128.769 84.3944C136.153 81.3004 145.894 76.8554 146.454 78.0474C147.125 79.4784 146.42 82.9574 140.535 85.0654L136.719 86.3764C132.086 87.9224 127.826 89.2434 126.789 90.1784C125.601 91.2494 123.765 95.9334 122.919 98.4924L122.676 99.2584C122.003 101.497 118.608 110.018 113.811 112.963L111.016 114.697C107.42 116.957 104.422 118.971 102.968 120.307C101.352 121.792 99.6625 124.776 99.0195 126.412L98.8295 126.957C98.4205 128.369 91.1865 140.641 89.8535 141.996L89.1655 142.604C88.2505 143.358 86.7135 144.51 85.0865 145.693L82.8795 146.997C79.8935 148.734 76.8965 150.376 75.8265 150.909C74.3255 151.657 72.3375 152.135 69.8605 152.343C68.4045 151.675 69.3065 150.603 72.5655 149.126C77.2095 147.021 85.8525 134.585 92.0155 126.391L92.9675 125.135C96.7515 120.179 103.874 109.018 110.621 99.5974L114.143 95.7244C119.015 90.4584 122.887 86.7264 124.713 86.0324Z" fill="#827E83"/>
<path d="M64.4025 149.25C62.3405 153.001 61.7445 154.888 62.6145 154.91C63.9205 154.944 72.6705 151.626 78.9596 148.338C85.2486 145.051 87.9546 143.119 89.0326 141.689C90.1106 140.258 97.0076 130.436 98.5416 125.605C100.076 120.774 102.876 119.206 105.541 117.949C108.206 116.692 117.629 113.109 119.886 106.303C122.143 99.4965 123.997 90.9475 126.323 89.4935C128.649 88.0395 139.231 85.0495 142.118 84.1775C145.004 83.3055 151.754 81.1025 146.8 75.2725C141.846 69.4415 132.684 66.5454 126.221 67.3624C119.758 68.1794 114.326 73.1325 112.65 75.4095C110.974 77.6865 107.61 83.2345 107.151 88.1285C106.692 93.0225 104.734 97.9345 103.405 99.7965C102.076 101.659 99.2536 104.766 96.5186 106.999C93.7836 109.231 87.4956 114.117 85.3466 120.332C83.1976 126.547 81.2346 131.537 79.5426 134.297C77.8506 137.057 73.4445 141.33 70.6435 144.348C68.7775 146.359 66.6975 147.993 64.4025 149.25Z" fill="#EDEBF0"/>
<path d="M147.723 78.1664C147.116 75.1024 139.573 67.9814 128.459 67.8704C117.346 67.7594 108.739 79.5024 109.137 85.8515C109.534 92.2005 113.062 91.2165 117.538 92.2595C122.014 93.3025 123.059 90.7675 125.354 89.1715C127.649 87.5745 134.457 85.1445 139.574 83.7075C144.691 82.2694 148.33 81.2304 147.723 78.1664Z" fill="#DBD9DE"/>
<path d="M85.2015 137.011C85.1315 138.183 82.6145 138.288 81.1855 138.88C79.7565 139.471 77.6395 141.082 77.0695 140.94C76.7555 140.862 75.2745 141.303 72.6265 142.266L74.6075 140.191C76.6035 138.08 78.5465 135.925 79.5445 134.297C80.2955 133.073 81.0985 131.409 81.9485 129.394C82.6995 132.236 85.2545 136.115 85.2015 137.011ZM93.6765 115.595C95.1815 116.793 96.1365 118.926 95.7295 119.696C95.3215 120.467 89.9265 122.039 87.7685 120.711L85.6915 119.442C86.8415 116.661 88.7895 114.167 90.7895 112.092C91.5005 113.584 92.8505 114.937 93.6765 115.595ZM111.799 102.286C111.983 103.24 111.73 104.02 111.038 104.627C110.874 105.053 109.72 105.232 107.577 105.163C105.445 105.095 102.836 104.715 99.7495 104.025C101.28 102.471 102.61 100.91 103.406 99.7956C103.68 99.4126 103.98 98.8996 104.289 98.2836C108.42 99.6306 111.671 101.626 111.799 102.286Z" fill="#AFAAB4"/>
<path d="M192.765 18.6444C195.699 20.3584 197.764 27.3554 199.602 31.1715C201.44 34.9875 204.898 41.9825 207.863 45.1645L208.965 46.4035L210.985 48.7945C215.983 54.8135 224.542 65.7215 227.285 70.5555C229.616 74.6645 232.392 80.2326 235.612 87.2596L233.928 88.4956L231.94 83.8886C228.974 77.2306 226.455 72.4705 224.382 69.6085L218.658 61.7865C214.042 55.5325 208.562 48.2405 206.986 46.6435L205.733 45.5285C203.22 43.2195 198.057 38.0675 197.147 37.5035C196.278 35.8895 195.145 34.4475 192.454 34.7485C193.005 34.2805 191.569 33.4655 188.112 30.2915C184.654 27.1174 184.02 23.6844 185.062 21.1904C186.103 18.6964 189.83 16.9304 192.765 18.6444ZM186.378 22.4844C185.569 25.5694 190.535 29.2374 192.056 30.7214L195.541 34.0845C196.841 35.3795 198.017 36.6445 198.281 37.2655C198.809 38.5065 200.756 40.4745 201.005 40.2345C201.253 39.9945 198.562 34.3415 197.56 31.9864C196.558 29.6314 194.81 23.8444 192.841 21.4394C190.871 19.0344 187.187 19.4004 186.378 22.4844Z" fill="#E2E2E2"/>
<path d="M191.264 29.9964L192.057 30.7213L195.542 34.0844C196.625 35.1634 197.622 36.2224 198.077 36.9044L198.281 37.2654C198.412 37.5734 198.63 37.9254 198.888 38.2784L197.068 37.3704L196.846 36.9744C196.007 35.5914 194.847 34.4814 192.454 34.7484C193.005 34.2804 191.569 33.4654 188.112 30.2914C186.91 29.1884 186.05 28.0534 185.482 26.9384C187.048 28.2354 189.717 29.3504 191.264 29.9964Z" fill="#AEAEAE"/>
<path d="M46.1415 186.834C49.5335 187.013 54.4895 188.443 60.5985 184.612C66.7075 180.781 82.7725 165.376 91.3945 154.553C100.017 143.73 109.613 135.123 123.462 131.382C137.311 127.64 152.963 122.855 162.756 117.931C172.549 113.007 183.661 102.602 183.687 97.0204C183.713 91.4384 180.76 87.5744 177.719 85.0944C174.678 82.6144 169.591 78.2594 170.572 74.3344C171.554 70.4094 175.257 70.0484 176.404 69.8234C177.551 69.5984 183.715 69.1004 187.96 65.0834C192.206 61.0664 195.031 56.5304 193.261 50.7333C191.492 44.9363 189.123 40.2253 188.372 38.4043C187.621 36.5843 188.408 35.0903 189.396 34.7623C190.384 34.4343 193.033 35.7193 194.161 36.2533C195.289 36.7873 196.993 37.2863 197.636 37.6313C198.28 37.9763 199.696 38.6113 199.881 38.8803C200.066 39.1493 204.869 43.2083 204.822 44.3773C204.775 45.5463 205.599 46.5023 206.842 48.2073C208.085 49.9123 212.803 55.7654 212.293 59.0984C211.782 62.4324 205.513 64.2544 201.856 65.3454C198.199 66.4364 194.089 68.7694 194.567 71.6374C195.044 74.5054 197.277 77.1894 200.052 79.5854C202.827 81.9814 205.915 86.1764 206.362 89.8944C206.809 93.6124 215.679 89.9044 216.042 88.0034C216.405 86.1024 213.957 83.7484 211.567 83.0684C209.177 82.3884 208.159 78.7244 212.189 75.7794C216.219 72.8344 220.724 71.7384 223.133 72.8414C225.542 73.9444 229.2 78.2894 227.08 83.9674C224.96 89.6454 205.891 112.58 186.94 123.649C167.989 134.719 158.105 138.898 134.98 152.468C111.855 166.038 88.4275 194.276 83.3105 196.724C78.1935 199.171 53.7345 211.098 41.6454 204.057C29.5564 197.015 42.7494 186.655 46.1415 186.834Z" fill="#CEB6DD"/>
<path d="M192.038 47.1042C194.076 51.2933 195.386 55.0053 195.968 58.2403C197.747 68.1283 188.223 73.2953 181.736 73.1953L180.973 73.1583C177.595 72.8743 174.368 74.5843 171.293 78.2863C170.587 76.9783 170.247 75.6333 170.572 74.3353C171.403 71.0133 174.182 70.2453 175.712 69.9503L176.404 69.8243C177.552 69.5983 183.715 69.1013 187.96 65.0843C192.206 61.0673 195.031 56.5313 193.261 50.7342C192.966 49.7682 192.655 48.8323 192.337 47.9343L192.038 47.1042Z" fill="#D9D9D8"/>
<path d="M129.051 138.566C136.788 138.834 144.215 139.416 151.33 140.311L139.77 149.69L136.624 151.507C136.084 151.822 135.535 152.143 134.98 152.469C122.449 159.822 109.83 171.482 100.083 181.012C88.7054 189.717 79.2554 196.62 71.7314 201.725C62.1844 205.302 49.3823 208.564 41.6463 204.058C29.5573 197.016 42.7503 186.657 46.1433 186.835C49.5353 187.014 54.4914 188.444 60.6004 184.613C66.4434 180.949 81.3954 166.694 90.2304 155.99L91.3954 154.554C97.8154 146.495 104.775 139.665 113.628 135.158L115.971 136.016C119.343 137.186 123.708 138.381 129.051 138.566Z" fill="#CEB6DD"/>
<path d="M113.627 135.156L115.97 136.014C119.344 137.185 123.709 138.38 129.052 138.566C134.641 138.76 140.068 139.117 145.332 139.638C144.258 141 143.15 142.049 142.238 142.568L139.671 144.004C132.675 147.84 117.803 155.333 109.56 153.692C104.47 152.679 98.5775 152.765 91.8804 153.952L91.3954 154.552C97.8145 146.494 104.774 139.664 113.627 135.156Z" fill="#CEB6DD"/>
<path d="M123.462 131.382C134.589 128.377 146.881 124.696 156.362 120.812C149.466 124.096 143.333 126.24 138.704 127.729L137.218 128.202C129.731 130.56 117.561 133.775 108.884 138.991C100.206 144.207 94.0405 152.492 84.5475 163.047C75.0544 173.602 64.3164 182.678 62.2624 184.067L61.1084 184.824C58.9714 186.162 55.7434 187.756 51.1684 187.656L49.2414 187.522C48.9384 187.507 48.7204 187.503 48.5854 187.508L45.9444 189.482C43.9564 191.001 42.9254 191.894 42.8514 192.159C42.7184 192.637 44.0464 193.393 45.4304 193.746L46.0234 193.871C47.5904 194.127 43.0244 195.292 41.9054 194.257C40.9584 193.381 38.2133 193.241 39.4003 191.024C41.6834 188.478 44.7444 186.763 46.1424 186.836C49.5344 187.015 54.4904 188.445 60.5994 184.614C66.4424 180.95 81.3945 166.695 90.2295 155.991L91.3945 154.555C100.016 143.73 109.613 135.123 123.462 131.382ZM183.444 91.0294C186.637 97.3575 183.91 103.309 173.406 110.844C179.184 106.054 183.671 100.565 183.688 97.0205C183.714 91.4384 180.761 87.5744 177.72 85.0944C175.971 83.6684 173.546 81.6224 171.987 79.3944C174.429 82.4684 180.508 85.2114 183.444 91.0294ZM189.397 34.7623C190.014 34.5573 191.28 34.9823 192.419 35.4603L194.494 36.3943L192.412 35.7493C191.24 35.4233 190.161 35.2183 189.756 35.4773C188.798 36.0903 188.404 36.9613 189.089 38.7043L190.679 42.4593C191.67 44.8433 192.88 47.9653 193.76 51.2134C195.269 56.7814 192.847 62.8004 187.11 66.5184C181.372 70.2364 176.143 69.8984 174.319 70.8634C172.495 71.8284 170.059 73.6124 171.023 77.5714L171.247 78.1894C170.573 76.9114 170.258 75.6004 170.575 74.3334C171.406 71.0114 174.185 70.2434 175.715 69.9484L176.407 69.8224C177.555 69.5964 183.718 69.0994 187.963 65.0824C192.209 61.0654 195.034 56.5294 193.264 50.7323C191.495 44.9353 189.126 40.2243 188.375 38.4033C187.622 36.5843 188.409 35.0903 189.397 34.7623Z" fill="#CEB6DD"/>
<path d="M65.0395 204.187C64.9835 199.218 65.2375 196.096 65.8015 194.822C66.6485 192.911 76.6595 183.19 85.4555 174.628C94.2516 166.066 102.394 155.857 106.979 151.257C111.564 146.657 121.731 141.416 132.167 139.952C139.124 138.976 144.493 138.357 148.275 138.093C134.295 154.884 122.694 167.193 113.473 175.022C104.252 182.851 88.1076 192.571 65.0395 204.187Z" fill="#4B4B4B"/>
<path d="M29.0423 190.674C29.5113 190.124 30.5303 189.334 30.5833 189.934C30.6673 190.892 28.8043 192.76 29.5533 192.779C31.0553 192.817 41.7634 186.28 48.2684 180.594C54.7734 174.908 55.2394 173.382 57.1724 172.486C59.1054 171.59 60.8644 172.555 60.4144 174.515C59.9654 176.475 53.3644 183.054 50.6384 185.33C47.9134 187.606 43.6794 190.959 42.7014 191.669C41.7234 192.379 43.8404 193.69 46.0234 193.867C48.2064 194.044 57.2034 193.609 61.3914 194.691C65.5794 195.773 70.4494 198.335 71.6024 199.654C72.7554 200.974 57.3054 208.695 52.3944 211.036C47.4834 213.377 26.6043 221.522 23.9983 220.746C21.3923 219.969 17.7663 216.529 16.9223 213.931C16.0783 211.333 18.6433 205.073 22.4823 199.42C26.3203 193.769 28.5723 191.224 29.0423 190.674Z" fill="#4A4947"/>
<path d="M263.734 107.251C263.859 107.5 263.987 107.757 264.12 108.023C264.319 108.421 265.006 113.843 263.483 118.018C261.96 122.193 257.225 127.182 251.913 131.214C246.6 135.246 231.624 143.419 227.201 145.632C222.778 147.845 199.2 159.645 194.685 161.905C190.17 164.164 189.449 161.898 188.546 161.322C187.643 160.746 184.718 162.041 185.121 163.682C185.524 165.323 186.093 166.205 182.574 167.966C179.055 169.727 178.807 166.747 177.422 166.584C176.037 166.421 174.121 167.521 173.978 168.624C173.835 169.727 174.76 171.545 173.006 172.507C171.252 173.469 169.691 173.026 168.005 171.524C166.32 170.022 165.501 171.002 163.371 171.178C161.241 171.354 159.361 171.083 158.132 170.023C155.907 171.731 153.352 174.216 152.839 175.335C152.326 176.454 153.167 180.453 150.13 182.152C147.093 183.851 144.972 181.247 143.157 182.147C141.343 183.047 140.966 183.635 140.64 184.811C140.314 185.987 140.974 188.742 137.145 190.702C133.718 192.456 131.712 192.381 130.458 191.537C129.204 190.692 128.513 190.636 128.315 190.447C126.43 188.65 125.082 187.54 124.054 188.535C123.025 189.53 123.131 192.861 123.289 194.212C123.447 195.563 124.182 197.208 118.87 199.877C112.942 202.844 101.273 208.684 99.8175 209.412C98.6585 209.992 97.1855 210.106 95.6645 209C95.2765 208.718 93.9175 209.301 93.5275 208.848C92.5135 207.67 91.1475 207.19 90.3175 208.009C89.5775 208.74 90.3085 209.707 89.9455 210.776C89.6995 211.501 87.9015 211.274 87.6495 212.495C87.3975 213.716 86.2495 214.871 85.7545 215.123C85.0275 215.495 77.2305 219.458 75.5965 218.306C73.9625 217.154 72.5425 216.899 71.8655 217.824C71.1885 218.749 71.0885 220.461 69.3605 221.113C67.6325 221.765 64.1535 222.752 61.8405 222.842C59.5265 222.932 57.3874 223.479 55.6094 221.629C54.7294 220.713 52.8864 220.341 51.3874 220.779C49.8584 221.225 49.6874 223.176 49.3244 223.652C49.0994 223.947 47.7164 224.037 47.4064 224.492C46.7274 225.49 46.0334 226.267 45.5894 226.347C44.9424 226.463 40.1584 227.456 39.4424 226.541C38.7264 225.626 37.4774 225.079 36.5024 225.352C35.5274 225.625 35.8694 226.533 33.8444 226.682C32.4944 226.782 31.7874 226.311 31.7224 225.271C29.1204 225.142 26.9514 224.946 25.2154 224.684C22.6114 224.29 18.9064 222.982 16.9144 219.002C14.9224 215.022 15.5124 211.663 15.8654 210.621C16.2184 209.579 17.0964 209.367 17.4774 209.889C17.8584 210.412 19.9714 215.435 21.0124 216.952C22.0524 218.468 22.6934 218.576 23.8354 218.532C24.9774 218.488 33.0614 216.378 41.9714 212.286C50.8814 208.193 75.4365 195.293 81.2705 191.553C87.1045 187.814 98.4335 179.977 110.444 166.842C122.454 153.707 130.861 145.099 140.906 139.887C143.368 138.723 148.2 136.462 156.199 132.315C164.198 128.168 180.721 119.713 188.531 111.747C196.341 103.78 201.822 92.6115 203.602 90.2495C205.383 87.8874 209.282 84.5544 212.978 84.2504C216.674 83.9464 245.668 97.0475 250.403 100.428C255.138 103.809 260.752 105.399 261.764 105.814C262.439 106.088 263.096 106.568 263.734 107.251Z" fill="#3B3A39"/>
<path d="M264.053 107.852L264.121 108.023C264.274 108.328 264.711 111.576 264.226 114.955C259.225 121.737 248.387 130.232 234.868 137.171L230.431 139.359C216.827 145.889 211.768 147.041 222.736 140.76L226.624 138.59C242.766 129.774 259.014 119.013 264.053 107.852Z" fill="#4B4B4B"/>
<path d="M22.9084 219.034C22.3294 219.483 23.6714 221.924 25.2374 222.871C26.8034 223.818 28.8584 224.461 35.5174 223.756C42.1764 223.051 44.4374 222.601 45.9444 222.856C46.9494 223.026 48.0524 223.33 49.2554 223.767C50.2784 221.698 51.3064 220.778 52.3374 221.008C53.3684 221.237 54.5664 221.537 55.9304 221.908C54.7594 221.036 54.8714 220.345 56.2654 219.836C58.3564 219.073 64.9214 217.529 71.8755 215.165C78.8295 212.801 85.6555 210.371 86.7735 210.495C87.8915 210.619 89.1965 211.25 89.6855 211.056C90.1745 210.862 90.5955 210.026 90.5085 209.28C90.4215 208.534 90.2475 208.114 91.0775 207.758C91.9085 207.403 93.2995 209.004 93.7345 209.03C94.1685 209.056 94.7935 208.765 94.8435 208.332C94.8925 207.9 94.2255 207.023 97.3945 205.492C100.564 203.96 120.482 193.515 121.104 193.315C121.725 193.115 122.512 193.6 122.577 193.974C122.642 194.348 123.747 194.007 123.657 192.691C123.567 191.375 124.74 189.839 125.574 189.632C126.408 189.425 127.903 190.238 128.145 190.445C128.306 190.583 128.627 190.422 129.108 189.963C128.893 189.432 129.087 188.776 129.692 187.994C130.598 186.821 139.068 182.391 143.728 179.751C148.388 177.111 155.504 171.53 156.829 169.935C157.712 168.872 159.337 167.202 161.704 164.928C158.107 157.715 157.136 153.07 158.793 150.994C161.278 147.879 202.627 122.268 212.586 116.022C222.545 109.776 240.544 90.0534 239.756 88.1364C238.968 86.2184 236.841 82.4474 235.885 82.0704C234.929 81.6934 222.606 82.5564 217.121 83.0604C211.636 83.5644 208.202 85.1614 204.253 90.6474C200.304 96.1324 193.603 109.681 184.064 116.893C174.525 124.104 163.849 129.335 153.494 134.322C143.139 139.31 132.774 144.167 124.305 152.753C115.837 161.339 102.192 177.425 93.4175 183.71C84.6435 189.996 60.3704 204.627 45.5094 211.246C30.6484 217.865 27.0694 218.53 25.6394 218.852C24.2104 219.171 23.4884 218.585 22.9084 219.034Z" fill="#D1CCCE"/>
<path d="M204.253 90.6444C208.202 85.1594 211.636 83.5624 217.121 83.0574L221.448 82.6964C224.18 82.4864 227.288 82.2734 229.923 82.1344C229.693 84.8024 229.052 88.4404 224.715 92.2024L222.304 94.2314C212.807 102.09 186.081 123.254 181.165 126.349C175.723 129.776 156.825 139.659 152.898 145.592C148.971 151.525 148.661 160.115 151.829 165.748C154.997 171.381 144.805 175.379 139.295 178.052C134.335 180.458 126.653 185.163 120.918 189.284L119.085 190.632C113.645 194.734 102.473 200.677 96.5586 202.776L95.3756 203.165C89.9046 204.794 87.8356 206.271 83.6756 209.003C79.5156 211.735 62.3625 216.317 61.4005 211.808C60.4395 207.299 81.5166 198.445 94.8666 187.009C100.644 182.06 108.005 173.235 116.951 160.535L120.072 157.177C121.581 155.566 123.004 154.07 124.305 152.751C132.122 144.825 141.555 140.077 151.105 135.471L153.494 134.321C163.849 129.334 174.525 124.102 184.064 116.891C193.603 109.678 200.305 96.1294 204.253 90.6444Z" fill="#DAD8DA"/>
<path d="M24.1943 222.008C25.6243 222.662 26.9193 223.076 28.0793 223.249C31.0293 223.69 42.8704 222.047 47.9464 221.151C53.0224 220.255 78.5375 211.91 88.5555 207.736C98.5725 203.562 123.212 188.909 134.072 182.034C143.352 176.159 154.012 165.619 159.475 159.905C160.039 161.411 160.786 163.084 161.704 164.925L159.857 166.726C158.747 167.828 157.879 168.732 157.253 169.439L156.829 169.932C155.593 171.421 149.311 176.382 144.69 179.183L135.303 184.42C132.49 186.004 130.146 187.405 129.693 187.991C129.089 188.773 128.894 189.429 129.109 189.96C128.628 190.419 128.307 190.58 128.146 190.442C127.904 190.235 126.409 189.422 125.575 189.629C124.86 189.807 123.896 190.96 123.692 192.115L123.658 192.688C123.736 193.84 122.9 194.245 122.646 194.078L122.577 193.972C122.512 193.598 121.725 193.113 121.104 193.313L114.414 196.721C109.319 199.358 102.621 202.844 99.1965 204.587L97.3945 205.49C94.2255 207.022 94.8925 207.898 94.8435 208.33C94.7945 208.762 94.1695 209.054 93.7345 209.028C93.3005 209.002 91.9085 207.401 91.0775 207.756C90.2465 208.111 90.4215 208.531 90.5085 209.278C90.5955 210.024 90.1745 210.861 89.6855 211.054C89.1965 211.247 87.8915 210.617 86.7735 210.493C86.2145 210.431 84.2285 211.007 81.5125 211.895L71.8744 215.163C64.9204 217.527 58.3554 219.071 56.2644 219.834C54.8704 220.343 54.7584 221.034 55.9294 221.906L53.4234 221.259C53.0424 221.167 52.6804 221.083 52.3364 221.006C51.3054 220.777 50.2774 221.696 49.2544 223.765C48.0524 223.328 46.9484 223.025 45.9434 222.854C44.4364 222.599 42.1764 223.049 35.5164 223.754L33.0884 223.966C28.3173 224.281 26.5933 223.689 25.2363 222.868L24.7253 222.502L24.1943 222.008ZM204.253 90.6445C207.898 85.5815 211.104 83.8305 215.891 83.1955L219.178 82.8795C225.205 82.3775 235.036 81.7335 235.885 82.0685C236.16 82.1765 236.532 82.5665 236.941 83.1115L230.1 84.5805C225.17 85.6675 221.149 86.6265 218.034 87.4625C210.443 89.5005 205.941 94.8985 198.713 108.609C191.485 122.32 160.254 135.567 147.817 141.857C135.38 148.147 122.658 173.046 90.5465 191.088C67.1314 204.245 47.5504 211.97 35.2824 215.608L39.0634 214.047C40.9344 213.256 43.0704 212.33 45.5094 211.244C60.3704 204.625 84.6425 189.993 93.4175 183.708C102.192 177.422 115.836 161.337 124.305 152.751C132.122 144.825 141.555 140.077 151.105 135.471L153.494 134.321C163.849 129.334 174.525 124.103 184.064 116.892C193.603 109.679 200.305 96.1295 204.253 90.6445Z" fill="#E1E1E1"/>
<path d="M24.7964 222.562C26.0925 223.119 27.7935 223.613 29.7595 223.672L31.4055 223.662C36.4535 223.507 46.2205 222.36 47.7575 221.34L47.9465 221.151C48.4895 219.964 53.9375 220.134 54.7255 219.873L85.1276 210.035C86.5656 209.541 87.8916 209.524 89.1046 209.986C89.4396 208.277 90.0676 207.121 90.9886 206.519C91.9096 205.916 92.8786 206.606 93.8966 208.588C93.6656 207.565 94.0196 206.754 94.9576 206.156L96.3326 205.366C101.106 202.692 116.239 194.515 119.873 193.051L120.329 192.883C123.245 191.967 122.666 191.033 124.325 189.836C125.984 188.639 129.363 187.391 130.409 186.791L140.091 180.766C145.289 177.498 150.903 173.927 152.299 172.912C154.083 171.615 155.695 170.018 157.137 168.12L157.978 168.646L156.829 169.931C155.593 171.42 149.311 176.381 144.69 179.182L135.303 184.419C132.49 186.003 130.146 187.404 129.693 187.99C129.089 188.772 128.894 189.428 129.109 189.959C128.628 190.418 128.307 190.579 128.146 190.441C127.904 190.234 126.409 189.421 125.575 189.628C124.86 189.806 123.896 190.959 123.692 192.114L123.658 192.687C123.736 193.839 122.9 194.244 122.646 194.077L122.577 193.971C122.512 193.597 121.725 193.112 121.104 193.312L114.414 196.72C109.319 199.357 102.621 202.843 99.1966 204.586L97.3946 205.489C94.2256 207.021 94.8926 207.897 94.8436 208.329C94.7946 208.761 94.1696 209.053 93.7346 209.027C93.3006 209.001 91.9086 207.4 91.0776 207.755C90.2466 208.11 90.4216 208.53 90.5086 209.277C90.5956 210.023 90.1746 210.86 89.6856 211.053C89.1966 211.246 87.8916 210.616 86.7736 210.492C86.2146 210.43 84.2286 211.006 81.5126 211.894L71.8745 215.162C64.9205 217.526 58.3555 219.07 56.2645 219.833C54.8705 220.342 54.7585 221.033 55.9295 221.905L53.4235 221.258C53.0425 221.166 52.6805 221.082 52.3365 221.005C51.3055 220.776 50.2775 221.695 49.2545 223.764C48.0525 223.327 46.9485 223.024 45.9435 222.853C44.4365 222.598 42.1765 223.048 35.5165 223.753L33.0885 223.965C29.0514 224.232 27.1964 223.848 25.8984 223.227L25.2364 222.867L24.7964 222.562ZM204.253 90.6445C207.898 85.5815 211.104 83.8305 215.891 83.1955L219.178 82.8795C225.205 82.3775 235.036 81.7335 235.885 82.0685L236.099 82.1935C235.257 82.3655 234.384 82.4765 233.488 82.5575L228.362 82.8695C222.937 83.2425 214.857 84.0565 211.12 86.1055C205.659 89.1005 198.874 102.568 190.826 111.546C182.779 120.524 165.405 129.335 153.229 135.342C141.769 140.996 131.195 148.269 125.787 153.765L121.922 157.934C115.32 164.99 103.142 177.471 96.5356 182.88L94.8316 184.238C87.2676 190.113 77.1356 195.973 56.3885 207.064C45.9405 212.649 37.2325 216.131 30.2645 217.509L32.5815 216.663C35.2075 215.669 38.8055 214.202 43.7945 212.005L45.5095 211.245C60.3705 204.626 84.6426 189.994 93.4176 183.709C102.192 177.423 115.836 161.338 124.305 152.752C132.122 144.826 141.555 140.078 151.105 135.472L153.494 134.322C163.849 129.335 174.525 124.104 184.064 116.893C193.603 109.679 200.305 96.1295 204.253 90.6445Z" fill="#FBFBFB"/>
<path d="M50.8095 217.789C51.6535 218.82 53.3415 219.888 55.1585 220.712C55.0815 220.949 55.2015 221.233 55.5055 221.543C55.4425 221.597 55.3435 221.656 55.2315 221.718L53.2205 221.212C52.9135 221.139 52.6195 221.071 52.3375 221.008C51.4355 220.807 50.5355 221.486 49.6395 223.045L49.3525 223.58L48.9085 223.428C46.6995 222.634 45.7585 221.798 46.0845 220.922C46.4245 220.006 47.9995 218.961 50.8095 217.789Z" fill="#ECEBE9"/>
<path d="M244.873 91.9524C245.318 91.4234 245.452 90.1884 245.11 89.9214C244.768 89.6544 242.679 87.2884 241.31 86.9234C239.941 86.5584 238.967 86.4874 238.507 86.8154C238.046 87.1434 227.204 96.5144 220.682 101.063C214.16 105.612 193.713 119.634 188.617 122.788C183.521 125.942 166.935 136.457 162.532 139.005C158.13 141.553 152.007 147.287 151.263 153.107C150.519 158.927 154.197 166.137 155.486 167.799C156.775 169.461 157.079 169.472 157.688 169.089C158.297 168.706 161.044 165.848 161.634 165.564C162.224 165.28 165.057 164.125 170.212 161.623C175.367 159.121 191.679 151.88 210.279 142.537C228.879 133.194 245.341 124.674 251.98 119.507C258.619 114.34 264.179 108.145 263.59 106.968C263.001 105.791 261.59 102.766 258.981 103.033C258.624 103.003 258.59 102.172 258.162 101.397C257.734 100.622 255.424 95.9314 251.546 94.4574C247.667 92.9834 245.784 92.8684 245.296 92.8014C244.809 92.7334 244.428 92.4814 244.873 91.9524Z" fill="#D9D9D9"/>
<path d="M234.428 116.886C237.281 115.4 239.489 114.226 243.241 111.852C246.993 109.478 255.849 101.623 255.328 103.95C254.918 105.783 256.687 107.098 256.518 108.591C256.472 108.994 255.949 109.55 255.608 109.964C254 111.911 248.858 116.361 242.836 119.786C236.813 123.211 222.739 131.037 221.456 131.498C220.174 131.96 225.103 122.184 227.696 120.576C230.289 118.968 231.574 118.372 234.428 116.886Z" fill="#8F88B9"/>
<path d="M245.262 91.0084C245.22 91.2464 245.146 91.4844 245.045 91.6854L244.873 91.9524C244.428 92.4814 244.809 92.7334 245.297 92.8004L246.129 92.9094C247.094 93.0594 248.832 93.4254 251.547 94.4574C255.426 95.9314 257.735 100.621 258.163 101.397C258.591 102.173 258.625 103.003 258.982 103.033C259.223 103.008 259.454 103.012 259.675 103.039C259.922 105.584 256.956 108.409 255.176 109.964C253.202 111.688 253.085 105.764 253.884 103.665C254.683 101.566 251.37 97.8214 249.597 96.5994C247.824 95.3774 245.639 94.2294 243.359 95.2254C242.219 95.7234 240.766 96.7404 239.282 97.8764L235.012 101.24C233.32 102.537 231.446 104.108 229.389 105.951L228.138 106.823C227.409 107.31 226.892 107.608 226.587 107.719C225.9 107.967 227.203 106.635 229.523 104.528L230.882 103.338C233.834 100.81 238.946 96.6694 240.079 95.7224L241.29 94.6584L245.262 91.0084Z" fill="#BEBAC7"/>
<path d="M231.632 102.373C230.524 104.268 230.091 105.859 230.331 107.146C230.692 109.076 232.036 107.892 231.968 109.1C231.9 110.309 231.197 112.935 233.209 115.298C234.55 116.873 236.409 118.43 238.785 119.969C230.626 126.107 223.204 130.878 216.521 134.281C206.496 139.386 189.345 148.696 180.513 152.966C174.625 155.812 167.599 159.125 159.435 162.903C157.488 160.023 156.645 157.501 156.905 155.336C157.295 152.089 156.8 149.347 169.376 141.341C181.952 133.335 217.465 112.441 222.509 108.588C225.872 106.019 228.913 103.947 231.632 102.373Z" fill="#5A4991"/>
<path d="M228.276 111.946C228.748 115.057 210.722 126.436 198.873 133.644L187.468 140.546C181.062 144.46 177.39 146.831 173.445 149.477C170.381 151.53 169.109 154.416 169.629 158.138L162.115 161.66C161.236 162.068 160.343 162.483 159.435 162.903C157.488 160.023 156.645 157.5 156.905 155.335L157.019 154.286C157.217 152.542 157.602 150.76 160.425 148.012C163.666 145.431 168.167 142.273 173.157 138.97L177.474 136.313C185.185 131.594 195.235 125.559 203.94 120.271L209.035 117.545C220.792 111.385 227.794 108.772 228.276 111.946Z" fill="#594B84"/>
<path d="M163.478 150.105C163.295 150.874 160.824 152.468 160.483 154.229C160.244 155.461 161.696 157.676 162.685 157.843C165.087 158.248 183.044 147.446 190.475 143.379C197.906 139.312 231.422 121.464 233.087 120.087C234.197 119.169 234.826 118.177 234.972 117.11C237.212 118.562 238.533 119.733 238.937 120.626C239.543 121.964 228.566 126.917 217.911 132.211C207.256 137.505 194.574 145.072 186.117 148.727C177.66 152.382 164.351 159.606 162.598 159.893C160.845 160.18 159.266 156.744 159.396 154.933C159.528 153.121 163.789 148.799 163.478 150.105Z" fill="#71659E"/>
<path d="M161.356 165.822C160.324 164.385 160.032 162.641 159.837 161.156C160.499 161.123 161.224 160.94 162.012 160.609L190.902 146.791L204.888 139.832C216.693 133.892 232.924 125.539 243.277 119.367C253.63 113.195 258.865 107.75 258.982 103.033C261.591 102.767 263.003 105.791 263.592 106.968C264.181 108.145 258.62 114.34 251.981 119.507C246.172 124.028 232.842 131.116 217.14 139.077L206.033 144.654C189.937 152.619 176.165 158.78 170.857 161.313L166.781 163.254L161.356 165.822Z" fill="#AA9ED1"/>
<path d="M262.084 106.57C262.071 107.45 256.054 114.795 250.056 119.261C244.058 123.727 213.789 139.281 206.064 143.025L167.24 161.442C164.518 162.749 162.704 163.639 162.365 163.849C161.507 164.381 161.147 165 161.285 165.704L161.356 165.821C160.455 164.567 160.118 163.079 159.918 161.734C160.162 161.875 160.453 161.946 160.793 161.958C161.675 161.99 163.046 161.465 165.573 160.293L193.621 146.951C199.184 144.266 205.251 141.294 211.387 138.201L217.047 135.305C231.663 127.723 246.963 119.021 251.713 115.491C256.724 111.766 259.95 106.373 260.443 104.438L260.506 104.078C260.611 102.563 262.097 105.689 262.084 106.57Z" fill="#8470C3"/>
<path d="M258.982 103.033C261.591 102.767 263.003 105.791 263.592 106.968C264.181 108.145 258.62 114.341 251.98 119.508C246.171 124.029 232.841 131.117 217.139 139.078L206.032 144.655L197.877 148.637C185.401 154.653 175.241 159.221 170.856 161.313L161.355 165.822L161.199 165.579L163.522 164.33C166.035 163.035 169.99 161.103 175.387 158.536L190.304 151.491C215.592 139.411 245.537 123.707 249.772 120.428C254.333 116.896 259.774 111.44 261.263 109.598C262.752 107.756 262.875 106.421 261.873 104.788C260.983 103.336 260.196 103.635 259.773 104.474L259.632 104.812C257.876 108.878 253.318 113.971 246.371 118.391L243.084 120.363C232.872 126.269 208.399 139.123 185.328 150.282L179.327 153.151C171.214 156.979 165.504 159.436 162.198 160.522L190.9 146.793L204.886 139.834L211.11 136.685C221.939 131.171 234.648 124.512 243.275 119.369C253.63 113.195 258.865 107.75 258.982 103.033Z" fill="#D8D1EC"/>
<path d="M238.508 86.8154C238.969 86.4874 239.942 86.5584 241.311 86.9234C242.68 87.2884 244.769 89.6544 245.111 89.9214C245.396 90.1444 245.351 91.0384 245.07 91.6374L244.745 92.1364C244.428 92.5474 244.026 92.9584 243.563 93.3654L242.665 94.1374C238.603 97.5824 226.401 107.486 216.53 113.909L179.932 137.261C175.712 139.923 172.282 142.049 170.433 143.114L167.381 144.824C163.05 147.304 159.556 149.698 158.731 152.05C157.756 154.829 158.814 158.931 159.678 160.876C160.2 162.051 160.77 163.665 161.39 165.719C160.535 166.378 158.241 168.744 157.691 169.09C157.082 169.473 156.778 169.462 155.489 167.8C154.2 166.138 150.521 158.927 151.266 153.108C151.957 147.704 157.286 142.374 161.568 139.6L167.015 136.296L188.62 122.789C193.021 120.065 208.872 109.235 217.314 103.402L220.685 101.064C227.204 96.5144 238.047 87.1434 238.508 86.8154Z" fill="#8F7FC0"/>
<path d="M238.508 86.8154C238.969 86.4874 239.942 86.5584 241.311 86.9234C241.995 87.1054 242.86 87.7884 243.596 88.4594L245.17 89.9904C240.426 91.6004 231.838 95.7754 226.114 99.5784C218.741 104.478 207.457 115.946 190.315 126.866C173.917 137.314 157.618 144.735 152.19 149.907C154.036 145.681 158.136 141.819 161.566 139.597L167.013 136.294L188.618 122.787C192.39 120.452 204.575 112.162 213.295 106.168L220.682 101.063L222.472 99.7764C229.011 94.9524 238.087 87.1144 238.508 86.8154Z" fill="#A296CA"/>
<path d="M238.508 86.8155C238.702 86.6775 238.986 86.6105 239.352 86.6055C237.489 88.9845 234.78 91.5165 231.241 94.2015L228.981 95.8695C222.896 100.274 211.536 107.995 203.368 113.376L178.044 129.782C170.021 135.026 162.488 139.995 160.911 141.118C157.86 143.289 151.777 149.32 151.695 154.808C151.612 160.296 154.393 165.538 155.675 167.385C156.278 168.254 156.905 168.852 157.555 169.181L157.69 169.089C157.081 169.472 156.777 169.461 155.488 167.799C154.199 166.137 150.52 158.926 151.265 153.107C151.956 147.703 157.285 142.373 161.567 139.599L167.014 136.295L188.619 122.789C192.391 120.454 204.576 112.164 213.296 106.17L220.683 101.065L222.473 99.7775C229.011 94.9525 238.087 87.1145 238.508 86.8155Z" fill="#69589E"/>
<path d="M246.983 94.0594C247.493 94.1834 250.821 95.3884 252.712 97.2384C254.603 99.0884 255.524 100.837 255.649 101.639C255.774 102.441 257.712 102.638 257.126 100.982C256.54 99.3264 254.453 96.6534 252.536 95.4184C250.619 94.1834 248.293 93.6054 247.241 93.5334C246.187 93.4614 246.472 93.9354 246.983 94.0594Z" fill="#9594A5"/>
<path d="M65.9444 207.443C63.4204 209.383 60.1004 213.12 61.4464 213.617C62.7924 214.113 68.1094 213.794 68.2734 213.417C68.4374 213.04 64.3124 212.56 64.2844 211.857C64.2564 211.152 68.4684 205.503 65.9444 207.443Z" fill="#D6CFD1"/>
<path d="M62.5225 212.717C62.8455 212.903 64.6745 213.18 68.0085 213.547C66.9155 213.858 62.6345 214.055 61.4465 213.617C60.6075 213.308 61.5805 211.74 63.0435 210.133C62.3895 211.678 62.2155 212.539 62.5225 212.717Z" fill="#E7E3E6"/>
<path d="M144.339 80.4884C145.054 78.9224 146.013 77.9874 142.967 76.0634C139.921 74.1394 132.176 70.6844 130.241 69.8604C128.305 69.0363 124.433 68.4503 121.221 70.4113C118.009 72.3724 116.788 73.4584 115.015 75.9194C113.242 78.3804 111.022 82.3714 111.171 84.7954C111.32 87.2194 114.578 88.8574 117.915 88.0444C121.252 87.2324 131.348 85.2894 133.708 84.6894C136.067 84.0884 143.624 82.0544 144.339 80.4884Z" fill="#B0AFB2"/>
<path d="M144.152 79.5334C144.867 77.9674 145.826 77.0324 142.78 75.1084C139.734 73.1844 131.989 69.7294 130.054 68.9054C128.118 68.0814 124.246 67.4954 121.034 69.4564C117.822 71.4174 116.601 72.5034 114.828 74.9644C113.055 77.4254 110.835 81.4164 110.984 83.8404C111.133 86.2644 114.391 87.9024 117.728 87.0894C121.065 86.2774 131.161 84.3344 133.521 83.7344C135.88 83.1334 143.437 81.0994 144.152 79.5334Z" fill="#E9E9E9"/>
<path d="M121.032 69.4554C124.244 67.4944 128.117 68.0804 130.052 68.9044L133.535 70.4514C136.242 71.6854 139.734 73.3434 141.925 74.5974L143.196 75.3824C143.514 75.9354 143.59 76.4324 143.356 76.8404C141.698 79.7354 133.255 82.3284 126.058 83.6234C118.861 84.9185 113.551 84.6645 112.89 83.9274C112.636 83.6444 112.008 82.5914 111.428 81.2984C112.135 79.1404 113.589 76.6794 114.826 74.9624C116.599 72.5024 117.82 71.4154 121.032 69.4554Z" fill="#CECDD2"/>
<path d="M142.539 77.6565C142.573 76.9435 138.065 74.8954 136.719 74.2304C135.373 73.5654 130.22 71.3624 128.124 71.2164C126.029 71.0704 123.486 71.6994 122.448 72.2814C121.409 72.8635 122.787 76.0485 124.423 76.9595C126.06 77.8705 137.402 78.0125 139.168 78.2915C140.934 78.5705 142.505 78.3695 142.539 77.6565Z" fill="#D6D5DA"/>
<path d="M137.817 74.9564C135.408 74.8084 131.49 75.2704 128.039 75.6844C124.588 76.0984 117.938 74.5854 120.627 73.2054C123.316 71.8254 125.246 70.8014 127.573 71.0204C129.901 71.2394 140.225 75.1044 137.817 74.9564Z" fill="#DFDEE2"/>
<path d="M124.433 80.3744C123.598 82.4044 122.493 83.7104 121.118 84.2914C119.056 85.1634 114.115 86.2574 113.668 84.6754C113.222 83.0934 114.825 79.0994 116.4 77.1334C117.975 75.1674 125.725 71.4224 125.528 73.6384C125.398 75.1174 125.033 77.3624 124.433 80.3744Z" fill="#B8B6BC"/>
<path d="M118.91 74.0944C114.585 78.4444 112.02 82.5894 113.156 84.4464C113.659 85.2684 115.798 85.3004 119.566 84.8184C121.034 84.6304 122.714 84.3634 124.581 84.0274L128.26 83.3254L134.106 82.1024C138.388 81.2024 142.621 79.4254 142.995 78.0714C143.408 76.5764 132.963 71.5184 129.27 70.9174C124.998 70.2214 122.108 70.8784 118.91 74.0944ZM129.158 71.6194C132.395 72.1464 142.538 77.0574 142.31 77.8804C142.066 78.7624 138.59 80.2874 134.954 81.1774L130.083 82.2254L126.252 82.9914C125.642 83.1074 125.044 83.2194 124.456 83.3244C122.6 83.6584 120.931 83.9244 119.477 84.1104C116.154 84.5354 114.029 84.5044 113.765 84.0734C112.898 82.6564 115.362 78.6744 119.416 74.5964C122.432 71.5634 125.092 70.9584 129.158 71.6194Z" fill="#979797"/>
<path d="M112.192 90.2145L120.179 91.8335L119.795 93.5425L111.724 91.8965L112.192 90.2145Z" fill="#B1AFB3"/>
<path d="M103.324 106.396L102.839 107.737L106.923 109.687L107.142 108.174L103.324 106.396Z" fill="#D0CECB"/>
<path d="M94.7655 123.859L90.3125 122.732L90.0045 124.095L94.4805 125.322L94.7655 123.859Z" fill="#D8D8D8"/>
<path d="M76.8295 148.445C77.5565 147.319 80.1845 143.123 78.9545 142.04C77.7245 140.958 73.2335 140.005 72.6795 140.342C72.1255 140.679 70.5115 144.052 69.6675 144.836C68.8235 145.619 68.6195 144.123 67.7595 145.791C66.8995 147.459 65.9655 149.247 65.7035 149.461C65.4415 149.675 65.1095 148.41 64.4025 149.25C63.8315 149.928 61.3955 153.764 60.6415 155.514C60.4615 155.93 61.0715 156.246 61.0265 156.353C60.7945 156.908 65.1575 156.524 68.4135 154.685C69.9955 153.791 71.9875 152.789 73.5655 151.629C75.2345 150.401 76.4555 149.024 76.8295 148.445Z" fill="#757575"/>
<path d="M76.3304 147.638C77.0574 146.512 79.9674 142.904 78.7374 141.821C77.5074 140.739 73.2324 140.005 72.6784 140.342C72.1244 140.679 70.5104 144.052 69.6664 144.836C68.8224 145.619 68.6184 144.123 67.7584 145.791C66.8984 147.459 65.9644 149.247 65.7024 149.461C65.4404 149.675 65.1084 148.41 64.4014 149.25C63.6944 150.089 60.7584 154.992 60.5264 155.547C60.2944 156.102 64.6574 155.718 67.9134 153.879C69.4954 152.985 71.4874 151.983 73.0654 150.823C74.7354 149.595 75.9564 148.218 76.3304 147.638Z" fill="#EEECEC"/>
<path d="M72.6785 140.342C73.2325 140.005 77.5075 140.739 78.7375 141.821C79.0225 142.072 79.0855 142.458 79.0045 142.918C76.5445 146.101 72.2825 150.351 69.8915 151.063C68.3225 151.53 66.0975 151.518 63.2165 151.026L63.9175 149.925C64.1215 149.619 64.2895 149.383 64.4025 149.25C65.1095 148.411 65.4405 149.675 65.7035 149.461C65.9655 149.247 66.8995 147.459 67.7595 145.791C68.6195 144.123 68.8235 145.619 69.6675 144.836C70.5115 144.053 72.1245 140.679 72.6785 140.342Z" fill="#E8E5EA"/>
<path d="M68.3955 145.236C67.5085 145.171 67.0295 144.053 67.6755 142.845C68.3215 141.637 69.6215 139.464 70.2855 139.076C70.9495 138.688 75.2925 135.346 76.7225 134.79C78.1525 134.234 79.1845 133.989 80.2105 133.45C81.2375 132.911 83.2245 127.728 82.8965 126.871C82.5685 126.015 80.0675 122.847 79.0205 121.534C77.9735 120.221 76.7095 117.822 77.6055 116.297C78.5005 114.772 81.0165 113.617 82.3665 113.864C83.7165 114.111 87.5055 115.406 88.6735 115.454C89.8415 115.502 92.1985 110.416 91.6515 109.267C91.1035 108.118 87.3795 105.363 86.8435 104.606C86.3075 103.85 85.7645 102.339 86.1965 101.839C86.6285 101.339 87.0315 100.315 89.1655 99.3695C91.3005 98.4255 100.111 100.852 102.802 99.5245C105.493 98.1975 106.326 95.4405 105.699 94.5015C105.073 93.5625 102.844 92.1295 101.843 90.0715C100.842 88.0135 99.2596 85.0815 100.073 82.6905C100.885 80.3005 103.21 78.4965 104.122 78.3305C105.033 78.1645 105.761 76.8735 108.419 75.9865C111.077 75.1005 114.047 76.5725 116.3 75.7065C118.553 74.8395 119.731 70.9975 119.01 69.9685C118.289 68.9405 115.317 67.6335 114.346 67.4784C113.375 67.3234 112.06 66.8635 111.013 67.3205C109.966 67.7775 109.821 65.8845 110.694 64.6435C111.567 63.4024 113.935 62.6624 115.922 63.7984C117.909 64.9345 121.624 67.0585 121.973 68.9485C122.322 70.8385 121.999 74.6475 120.965 76.4505C119.932 78.2535 118.501 80.2425 113.058 79.6505C109.43 79.2565 106.161 80.3225 103.252 82.8495C103.207 83.4705 103.671 84.7595 104.642 86.7175C106.1 89.6545 111.114 93.9325 109.845 97.1135C108.576 100.295 105.577 103.068 103.204 103.377C100.831 103.686 95.3425 102.789 93.5995 102.838C92.4375 102.871 91.2795 102.696 90.1245 102.315C92.2185 104.214 93.3715 105.384 93.5825 105.823C93.8995 106.483 96.6775 110.149 95.1875 112.643C93.6965 115.137 92.1975 117.655 90.5425 118.408C88.8875 119.161 83.0895 117.667 82.4785 117.703C82.0705 117.727 81.6085 117.851 81.0925 118.075C82.6825 119.904 83.9035 121.68 84.7555 123.405C86.0325 125.992 87.2905 128.847 85.5765 132.239C83.8635 135.631 82.2135 136.744 80.0265 137.841C77.8395 138.938 75.5505 140.404 74.5415 140.586C73.5325 140.768 71.9555 141.996 71.0975 143.09C70.2415 144.191 69.2825 145.301 68.3955 145.236Z" fill="#F0EFEE"/>
<path d="M84.5015 122.927L84.7545 123.411C86.0315 125.998 87.2895 128.853 85.5755 132.245C84.0525 135.26 82.5805 136.475 80.7355 137.478L78.3875 138.713C76.7735 139.597 75.2965 140.456 74.5405 140.592C73.5315 140.774 71.9545 142.002 71.0965 143.096C70.2395 144.19 69.2805 145.3 68.3935 145.235C68.1225 145.215 67.8895 145.097 67.7155 144.908C69.0675 142.71 71.3575 140.543 74.5825 138.403L76.0215 137.487C83.5665 132.88 84.5475 130.293 85.2025 128.272C85.5955 127.069 85.1475 124.784 84.5015 122.927ZM77.6585 117.448C77.7915 118.736 79.6055 121.077 81.1765 123.179L82.6295 125.081C83.4745 126.229 83.9805 127.162 83.6075 128.037C83.3555 128.629 82.8435 129.486 82.0185 130.4L82.4855 129.12C82.8245 128.084 83.0165 127.186 82.8955 126.872C82.5675 126.016 80.0665 122.848 79.0195 121.535C77.9725 120.222 76.7085 117.823 77.6045 116.298C77.8035 115.96 78.0815 115.639 78.4095 115.349C77.9245 116.089 77.5985 116.87 77.6585 117.448ZM93.4575 105.626L94.1775 106.822C95.0225 108.248 96.3065 110.778 95.1885 112.649L94.0665 114.496C92.9385 116.292 91.7845 117.849 90.5435 118.414C88.8885 119.167 83.0905 117.673 82.4795 117.709C82.0715 117.733 81.6095 117.857 81.0935 118.081L82.0585 119.254L81.5475 118.739C80.7605 117.874 80.4225 117.033 82.4065 117.041L85.2235 117.189C88.1765 117.268 89.9505 116.832 91.1775 115.022L92.0365 113.662C93.3535 111.431 94.6595 108.512 94.0155 107.238C93.5975 106.412 92.9415 105.37 92.0455 104.113L92.9355 105.011C93.1685 105.262 93.3435 105.468 93.4575 105.626ZM90.5575 106.771C91.9845 108.062 92.9255 109.495 91.9915 110.63C91.9065 110.733 91.7515 110.835 91.5385 110.935C91.7315 110.208 91.8025 109.587 91.6505 109.269C91.1025 108.12 87.3785 105.365 86.8425 104.608C86.3065 103.852 85.7635 102.341 86.1955 101.841L86.5165 101.401C86.4635 103.347 89.4165 105.739 90.5575 106.771ZM104.642 86.7225C106.1 89.6595 111.114 93.9375 109.845 97.1185C108.576 100.3 105.577 103.073 103.204 103.382C101.094 103.657 96.5235 102.978 94.3095 102.859L93.5995 102.843C92.5305 102.873 91.4645 102.728 90.4025 102.407C89.7385 101.835 89.3535 101.308 89.2255 100.813C90.1655 101.784 97.0045 102.402 99.4855 102.153C101.968 101.904 103.976 101.611 105.482 99.6905C106.988 97.7705 108.708 94.3625 108.273 93.2095C107.837 92.0575 105.281 89.2745 104.221 86.2455C104.058 85.7795 103.915 85.3225 103.793 84.8755L104.316 86.0475C104.417 86.2635 104.526 86.4885 104.642 86.7225ZM102.07 88.7005L103.999 90.8135C105.438 92.4035 106.579 93.8375 106.347 94.8905C106.263 95.2735 106.072 95.6405 105.806 95.9755C105.957 95.3555 105.913 94.8245 105.7 94.5045C105.074 93.5655 102.845 92.1325 101.844 90.0745L100.929 88.1655C100.469 87.1385 100.054 86.0275 99.9055 84.9375C100.298 86.2245 100.88 87.3615 102.07 88.7005ZM121.972 68.9515C122.321 70.8415 121.998 74.6505 120.964 76.4535L120.486 77.2295C119.44 78.7725 117.722 80.1615 113.057 79.6535C109.473 79.2635 106.24 80.2995 103.358 82.7605C103.262 82.0605 103.227 81.3815 103.251 80.7315C104.823 79.4785 106.431 78.6735 108.076 78.3175C110.543 77.7825 115.475 78.4995 117.477 77.0735C119.479 75.6475 121.718 70.3545 121.22 68.7954C120.974 68.0254 120.084 66.8494 119.085 65.7524C120.51 66.7474 121.776 67.8865 121.972 68.9515ZM111.156 66.2834C113.155 65.5734 117.075 67.2784 118.283 68.5214C118.77 69.0224 119.056 69.6814 119.172 70.3574C119.133 70.2014 119.08 70.0735 119.009 69.9725C118.288 68.9444 115.316 67.6374 114.345 67.4824L113.054 67.2284C112.595 67.1474 112.12 67.0944 111.668 67.1504L111.013 67.3245C110.429 67.5795 110.126 67.1034 110.123 66.4164C110.388 66.4764 110.735 66.4324 111.156 66.2834Z" fill="#CFC9D3"/>
<path d="M85.5666 137.388C82.2476 135.63 80.3626 134.587 79.9106 134.259C79.2326 133.767 81.7356 125.994 83.0826 126.757C83.9806 127.266 85.9376 128.409 88.9516 130.188L85.5666 137.388Z" fill="#9E8DCD"/>
<path d="M80.9975 129.343C82.1075 129.576 83.7565 130.303 85.9445 131.522L87.8075 132.604L86.7165 134.973L84.6225 133.647L83.7535 133.125C82.5435 132.412 81.3185 132.084 80.0775 132.141C80.2025 131.641 80.3715 131.077 80.5685 130.508L80.9975 129.343Z" fill="#E4DEEB"/>
<path d="M95.8076 119.656C91.7386 117.051 89.4056 115.699 88.8066 115.597C87.9086 115.445 91.3926 109.427 91.5356 109.004C91.6786 108.581 94.8266 109.961 96.0786 110.58C96.9126 110.993 98.0186 111.715 99.3956 112.745L95.8076 119.656Z" fill="#9E8DCD"/>
<path d="M89.8385 112.287L90.4835 111.029L91.7005 111.518C91.8835 111.59 92.3015 111.804 92.9535 112.159L98.1646 115.112L97.0896 117.198L95.6596 116.414C94.6135 115.862 93.1486 115.116 91.2645 114.176L89.3785 113.25L89.8385 112.287Z" fill="#E4DEEB"/>
<path d="M111.672 105.309C108.832 104.604 106.867 103.619 105.778 102.356C104.689 101.093 103.84 99.9805 103.233 99.0195C104.222 95.9955 104.834 94.4205 105.069 94.2955C105.422 94.1075 106.343 93.4685 108.886 94.4905C110.581 95.1715 112.628 96.5075 115.028 98.4985C114.092 99.8665 113.435 100.935 113.056 101.705C112.677 102.474 112.215 103.676 111.672 105.309Z" fill="#9E8DCD"/>
<path d="M104.096 96.4785L104.311 95.9095L105.709 96.3705C105.958 96.4555 106.215 96.5456 106.481 96.6396C107.662 97.0586 110.183 98.5236 114.043 101.033L113.58 100.748L113.057 101.705L112.647 102.627C111.717 102.191 110.826 101.728 109.97 101.245L108.711 100.505C107.239 99.6046 105.413 98.7356 103.233 97.8985L103.563 98.0246L104.096 96.4785Z" fill="#E4DEEB"/>
<path d="M124.487 80.9785C119.722 78.1735 116.928 76.6585 116.104 76.4335C114.868 76.0965 116.43 75.1255 116.971 74.2365C117.511 73.3485 118.014 69.4275 118.239 69.4205C118.464 69.4135 121.218 70.3175 123.155 71.1415C124.446 71.6905 125.742 72.5395 127.041 73.6875L124.487 80.9785Z" fill="#9E8DCD"/>
<path d="M117.265 73.4755L117.633 71.9755L118.895 72.2595C119.503 72.3915 121.279 73.3725 124.222 75.2005L126.096 76.3765L125.376 78.4805L124.622 78.0295C123.494 77.3925 121.499 76.3675 118.637 74.9565L117.007 74.1535L117.148 73.8385L117.265 73.4755Z" fill="#E4DEEB"/>
<path d="M207.755 110.805C208.542 110.419 204.759 113.547 197.101 118.414C184.525 126.407 164.97 138.477 161.296 141.002C155.385 145.064 152.459 149.753 151.942 153.701C151.424 157.649 153.381 163.372 154.725 165.81C153.531 164.366 151.731 159.314 151.569 155.744C151.407 152.174 153.364 146.583 159.627 141.78C163.16 139.07 176.896 130.387 188.999 122.701C198.344 116.767 206.932 111.209 207.755 110.805Z" fill="#EEEEEE"/>
</g>
<defs>
<clipPath id="clip0_7_2">
<rect width="273" height="247" fill="white"/>
</clipPath>
</defs>
</svg>
