<svg width="277" height="247" viewBox="0 0 277 247" fill="none" xmlns="http://www.w3.org/2000/svg">
<g clip-path="url(#clip0_5_2)">
<path d="M49.8524 158.824C49.8524 158.824 51.4054 154.647 52.1474 154.276C52.6424 154.028 52.7954 153.234 52.6064 151.894C54.2154 151.089 55.0204 150.686 55.0204 150.686C55.0204 150.686 56.2004 146.562 57.1924 146.065C57.8534 145.734 58.7194 145.526 59.7904 145.441C60.8554 142.648 61.7594 141.067 62.5014 140.695C63.6144 140.138 66.9654 136.831 66.9654 136.831L68.6764 135.975C68.6764 135.975 70.0654 134.462 72.8445 131.436C73.5495 128.752 74.9455 126.46 77.0315 124.561C80.1605 121.712 83.1555 120.118 85.5065 118.989C86.6675 117.641 87.7255 116.299 88.6805 114.965C89.9735 111.399 91.6265 108.722 93.6395 106.936C95.6525 105.15 98.3975 103.775 101.878 102.813C103.079 99.4295 104.822 96.0995 107.107 92.8235C109.392 89.5475 111.942 87.6035 114.755 86.9925C114.933 84.1885 115.257 82.2825 115.727 81.2765C116.197 80.2705 117.238 77.7225 118.851 73.6325L117.713 74.2025L118.507 68.2044L119.785 67.5644C119.029 66.0534 118.391 64.7784 117.871 63.7404C117.091 62.1824 118.491 57.0014 118.491 57.0014L120.623 55.9344C120.623 55.9344 120.537 46.9974 120.42 44.7424C120.303 42.4874 119.377 36.0624 117.876 33.0634C116.875 31.0644 116.443 29.2584 116.58 27.6474C117.108 24.5044 117.433 22.4543 117.557 21.4973C117.742 20.0613 118.778 16.6833 120.139 16.0023C121.5 15.3213 127.125 13.2883 138.662 22.6613C146.354 28.9094 152.241 35.4314 156.323 42.2254C170.939 41.8374 179.24 41.5244 181.226 41.2854C184.205 40.9274 195.271 40.5994 196.062 40.2044C196.853 39.8084 200.518 28.9914 201.725 28.3873C202.933 27.7833 207.061 30.2324 207.356 30.8214C207.651 31.4104 206.866 31.9034 208.156 32.4204C209.446 32.9384 210.939 33.7984 211.944 36.0384C213.613 34.8594 214.699 34.9884 215.04 35.2974C215.381 35.6064 215.859 37.3954 216.66 37.6514C217.461 37.9074 222.023 42.5104 223.374 46.6174C224.726 50.7244 224.199 50.8694 225.951 51.7664C227.702 52.6634 230.2 53.8084 231.618 56.0634C233.265 57.0274 239.754 62.6154 241.64 64.5114C243.526 66.4074 250.726 77.5845 252.302 81.2405C253.878 84.8965 253.79 89.7615 252.276 93.7225C250.762 97.6835 239.555 102.802 231.147 105.487C222.739 108.172 196.825 121.256 187.47 130.358C178.115 139.46 147.398 161.789 129.954 172.636C112.51 183.483 56.9454 204.554 47.4664 207.822C41.1474 210.001 33.9864 211.118 25.9834 211.173L16.2993 204.548C14.8623 199.622 14.3623 196.045 14.7993 193.819C15.4553 190.479 18.4823 184.605 23.0134 180.97C27.5444 177.335 37.0554 169.584 39.6084 167.304C42.1614 165.023 49.8524 158.824 49.8524 158.824Z" fill="#F7F5F3"/>
<path d="M25.6793 190.516C30.4764 192.51 50.5124 187.801 66.4024 180.91L88.8085 171.255L108.103 169.054C89.6185 182.37 71.7254 190.98 54.4234 194.883C29.1804 200.578 18.6833 206.276 14.8643 198.257C14.5973 196.42 14.5783 194.946 14.7993 193.817C15.3983 190.768 17.9723 185.608 21.8633 181.967C21.6493 186.525 22.9203 189.369 25.6793 190.516Z" fill="#EBE9E7"/>
<path d="M22.1144 196.203C26.6834 199.236 48.9384 193.026 61.2404 188.598L62.5144 188.134C70.4345 185.219 85.4055 178.767 107.431 168.778C125.903 166.036 143.635 155.92 160.626 138.432L174.759 123.396C192.537 104.577 200.443 97.1525 207.271 94.3715C214.953 91.2435 228.772 88.2025 235.876 87.4705L239.048 87.2215C244.78 86.7525 249.353 85.6745 249.091 78.7095C249.043 77.4345 248.943 76.1665 248.79 74.9065L250.646 78.0525C251.381 79.3465 251.969 80.4615 252.303 81.2365C253.879 84.8925 253.791 89.7575 252.277 93.7185C250.923 97.2625 241.808 101.734 233.881 104.559L231.147 105.484C222.739 108.169 196.825 121.253 187.47 130.355C178.115 139.457 147.398 161.786 129.954 172.633C112.51 183.48 56.9454 204.551 47.4664 207.819C41.1474 209.998 33.9864 211.115 25.9834 211.17L16.2993 204.545C14.8623 199.619 14.3623 196.042 14.7993 193.816C15.1313 192.123 16.0733 189.781 17.5093 187.408C17.2583 192.168 19.5643 194.509 22.1144 196.203Z" fill="#E1DCD6"/>
<path d="M197.965 100.383C191.966 111.592 185.113 128.021 179.202 135.112C176.921 137.849 174.083 140.903 170.834 144.058C160.035 152.289 146.675 161.773 136.036 168.742C122.386 175.302 116.353 176.572 107.165 178.437L105.15 178.83C98.9195 180.003 88.2565 181.689 73.1594 183.887L80.5054 180.755C87.8375 177.585 96.8155 173.592 107.43 168.777C125.903 166.035 143.635 155.919 160.626 138.431L174.759 123.395L180.102 117.774C187.367 110.189 192.738 104.868 197.072 101.151L197.965 100.383ZM248.789 74.9075L250.645 78.0535L251.575 79.7465C251.845 80.2595 252.071 80.7165 252.242 81.1005C251.876 87.6785 250.497 91.3145 248.1 92.0095C244.441 93.0705 237.839 90.3425 232.526 87.9095L234.839 87.5885C235.198 87.5445 235.544 87.5055 235.876 87.4715L239.048 87.2225L240.815 87.0485C245.689 86.4615 249.325 84.9425 249.09 78.7105C249.043 77.4345 248.942 76.1675 248.789 74.9075Z" fill="#DBD7D2"/>
<path d="M56.3033 165.721C55.4813 164.621 57.6143 159.732 61.9693 153.957C66.3243 148.181 87.9854 127.481 97.3114 117.029C106.636 106.577 123.197 82.0545 126.795 73.4585C130.393 64.8625 129.235 50.7855 135.223 52.1685C141.211 53.5525 154.295 61.0525 161.627 65.4515C168.96 69.8495 180.354 76.5515 185.677 72.8065C191 69.0615 198.187 48.0085 201.093 45.7004C203.999 43.3924 221.062 51.1125 224.908 53.1735C228.754 55.2335 238.533 62.9985 241.318 67.3645C244.103 71.7305 245.783 80.5175 245.1 81.6865C244.417 82.8555 210.809 84.8276 205.594 87.2796C200.379 89.7316 177.081 118.031 160.822 134.222C144.562 150.413 127.645 162.113 110.337 165.015C93.0294 167.917 57.1253 166.821 56.3033 165.721Z" fill="#CDE0DC"/>
<path d="M224.908 53.1724C228.754 55.2325 238.533 62.9975 241.318 67.3635C244.103 71.7295 245.783 80.5165 245.1 81.6855C244.417 82.8545 210.809 84.8265 205.594 87.2785C205.127 87.4985 204.514 87.9255 203.774 88.5335C202.761 86.3185 201.917 84.1405 201.187 82.2145C199.115 76.7485 203.976 65.6845 215.769 49.0234L218.357 50.1054C221.267 51.3574 223.719 52.5354 224.908 53.1724Z" fill="#959595"/>
<path d="M140.261 53.9624L140.844 54.2084C144.71 55.9194 149.337 58.3784 153.611 60.7844C154.461 63.1564 155.326 66.0714 156.203 69.6324C161.257 90.1755 155.383 124.823 145.777 147.66C134.214 156.727 122.37 162.996 110.337 165.014C102.976 166.248 92.2515 166.759 82.2935 166.855C99.0145 151.189 111.371 136.847 119.363 123.825C134.132 99.7595 140.42 81.1245 138.81 69.2124C137.285 57.9184 138.12 54.4374 140.261 53.9624Z" fill="#B2D8CF"/>
<path d="M135.223 52.1675C140.088 53.2915 149.637 58.4545 156.98 62.7095L164.827 67.3455C171.954 71.4815 181.08 76.0395 185.677 72.8055C190.525 69.3955 196.918 51.6305 200.216 46.7405C201.183 46.0944 202.438 45.6264 203.853 45.3304C208.463 45.8354 217.004 49.4015 221.923 51.7015C223.467 57.7145 214.329 65.8625 212.403 74.0655C210.264 83.1755 222.632 80.3905 227.182 82.8465C227.816 83.1885 228.185 83.5285 228.318 83.8625L219.903 84.7705C213.319 85.5315 207.519 86.3715 205.593 87.2775C200.379 89.7295 177.08 118.029 160.82 134.22C148.262 146.726 135.31 156.553 122.089 161.715C115.471 162.516 124.984 149.559 130.247 139.045L130.742 138.036C137.561 123.844 147.1 100.184 148.298 84.2385C149.096 73.6085 144.093 64.2295 133.29 56.1035C132.68 54.7035 132.475 53.5815 132.676 52.7395C133.359 52.1535 134.183 51.9275 135.223 52.1675Z" fill="#0A9E7B"/>
<path d="M138.66 22.6593C145.58 28.2813 151.041 34.1244 155.04 40.1884L156.322 42.2244C158.938 48.5584 160.873 54.0084 162.126 58.5734C164.006 65.4214 142.216 49.9124 136.809 51.9894C131.402 54.0654 130.874 59.8234 126.008 71.8554C121.142 83.8884 96.9384 118.088 86.0843 128.579L79.3823 135.12C70.7863 143.587 62.2893 152.248 59.6393 155.431L59.2703 155.887C56.6143 159.296 53.3913 159.998 51.0203 160.016C50.4093 160.02 49.8753 159.742 49.4163 159.182L49.8533 158.824L50.5663 157.05C50.9723 156.101 51.4773 155.027 51.8743 154.53L52.1483 154.276C52.6433 154.028 52.7963 153.234 52.6073 151.894L55.0213 150.686L55.3643 149.598C55.7873 148.339 56.5323 146.396 57.1933 146.065C57.8543 145.734 58.7203 145.526 59.7913 145.441C60.8563 142.648 61.7603 141.067 62.5023 140.695C63.6153 140.138 66.9663 136.831 66.9663 136.831L68.6773 135.975L72.8453 131.436C73.5503 128.752 74.9463 126.46 77.0323 124.561C80.1613 121.712 83.1563 120.118 85.5073 118.989C86.6684 117.641 87.7264 116.298 88.6814 114.964C89.9744 111.398 91.6274 108.721 93.6404 106.935C95.6534 105.149 98.3984 103.774 101.878 102.812C103.079 99.4295 104.822 96.0995 107.107 92.8234C109.392 89.5474 111.942 87.6034 114.755 86.9924C114.933 84.1884 115.257 82.2824 115.727 81.2764L116.387 79.7564C116.954 78.4004 117.775 76.3594 118.851 73.6324L117.713 74.2024L118.507 68.2044L119.785 67.5644L117.871 63.7404C117.091 62.1824 118.491 57.0014 118.491 57.0014L120.623 55.9344L120.443 45.2784C120.435 45.0734 120.428 44.8934 120.42 44.7434C120.315 42.7144 119.554 37.3064 118.309 34.0594L117.876 33.0643C116.875 31.0653 116.443 29.2593 116.58 27.6483L117.557 21.4983C117.742 20.0623 118.778 16.6843 120.139 16.0033L120.753 15.7433C122.82 15.0083 128.404 14.3283 138.66 22.6593Z" fill="#E7E4E1"/>
<path d="M116.643 27.2114L116.751 26.5044L117.137 26.5054C118.718 26.5324 120.295 26.6214 121.816 26.7914C125.441 27.1964 128.24 27.9924 129.874 29.3084L130.431 29.8264L130.622 30.0474C131.363 30.9664 131.72 32.1584 131.735 33.5914C131.76 35.9104 130.921 38.7494 129.376 42.2384L128.592 43.9424L123.869 53.3765L118.193 64.3955L117.87 63.7405L117.814 63.5735L124.853 49.8744L127.507 44.5534L128.352 42.7774L128.726 41.9504C130.233 38.5484 131.048 35.7904 131.024 33.5994C131.013 32.5724 130.812 31.7024 130.409 30.9954L129.991 30.4024L129.909 30.3104C128.559 28.8484 125.655 27.9374 121.738 27.5004C120.74 27.3894 119.716 27.3124 118.682 27.2664L116.643 27.2114Z" fill="#8FA497"/>
<path d="M135.379 21.4922C139.627 22.9322 153.655 35.5113 155.711 43.5263C157.667 51.1523 161 54.0833 154.761 58.2553L148.421 55.3013C143.641 53.0933 138.946 51.1683 136.809 51.9883C134.789 52.7643 133.45 54.0533 132.311 55.9923C130.267 54.2453 129.296 52.0763 130.26 49.6923L132.037 45.2723C134.128 39.8913 135.028 36.2173 133.735 30.1313L132.674 25.1702C131.961 21.4942 132.248 20.4312 135.379 21.4922Z" fill="#C0BBB5"/>
<path d="M119.603 28.8514C121.065 29.0344 128.054 30.6234 128.55 33.1614C129.046 35.6994 124.178 47.5114 122.824 50.5144L122.605 50.9594C122.074 51.8984 121.412 53.3204 120.62 55.2264L120.441 45.2754L120.418 44.7404C120.313 42.7114 119.552 37.3034 118.307 34.0564L117.874 33.0614C117.144 31.6024 116.716 30.2464 116.592 28.9934C117.92 28.8164 118.917 28.7654 119.603 28.8514Z" fill="#9EA09D"/>
<path d="M120.137 16.0003L120.751 15.7403L121.342 15.5633C123.784 14.9573 129.259 15.0213 138.661 22.6584C145.581 28.2804 151.041 34.1234 155.04 40.1874L156.322 42.2234L157.729 45.7114C157.951 46.2774 158.168 46.8344 158.378 47.3844C154.124 48.7854 151.745 48.6844 151.226 47.0794C150.299 44.2114 144.28 34.4124 137.611 29.0154C130.941 23.6174 122.339 20.6863 121.023 20.3443C120.362 20.1723 119.195 20.6323 117.522 21.7243L117.556 21.4943C117.74 20.0583 118.776 16.6813 120.137 16.0003Z" fill="#113B17"/>
<path d="M120.137 16.0003L120.751 15.7403L121.342 15.5633C123.596 15.0033 128.434 15.0153 136.557 21.0253C140.446 25.7043 143.13 30.4683 144.632 35.3223C144.79 35.8333 144.887 36.3133 144.926 36.7633C142.77 33.9583 140.24 31.1443 137.609 29.0153C130.94 23.6173 122.338 20.6863 121.022 20.3443C120.361 20.1723 119.194 20.6323 117.521 21.7243L117.555 21.4943C117.74 20.0583 118.776 16.6813 120.137 16.0003Z" fill="#347C3F"/>
<path d="M137.858 24.9373C144.352 30.0913 149.928 36.9223 154.587 45.4243C154.776 45.7693 154.65 46.2023 154.305 46.3914C153.96 46.5804 153.527 46.4543 153.338 46.1093C148.766 37.7673 143.311 31.0843 136.972 26.0533C129.184 19.8733 123.236 18.1443 117.975 19.6743C118.138 19.1463 118.341 18.5863 118.576 18.0653C124.06 16.8623 130.2 18.8603 137.858 24.9373Z" fill="#4F9362"/>
<path d="M132.713 41.2884C133.565 40.9864 134.11 40.8454 134.349 40.8664C136.644 41.0654 139.9 41.5364 144.117 42.2784C146.226 42.4444 147.778 42.5494 148.773 42.5934L151.41 42.6114L156.323 42.2224L174.093 41.6744C177.141 41.5564 179.272 41.4494 180.487 41.3524L181.226 41.2824C184.205 40.9244 195.271 40.5964 196.062 40.2014C196.853 39.8054 200.518 28.9884 201.725 28.3844C202.933 27.7804 207.061 30.2294 207.356 30.8184C207.651 31.4074 206.866 31.9004 208.156 32.4174C209.446 32.9354 210.939 33.7954 211.944 36.0354L212.161 35.8964L212.142 36.3684C212.049 38.7584 210.735 41.2744 208.934 41.5364L206.452 41.8704C204.433 42.1844 201.864 42.7684 199.821 44.1444C196.756 46.2074 195.475 63.4844 190.579 66.8865L188.178 68.5315C183.758 71.4465 178.51 73.9525 172.033 70.2485L165.796 66.5765C155.11 60.1984 137.808 49.6284 136.624 49.1034C135.645 48.6684 132.265 53.1294 126.483 62.4864C125.029 64.7294 124.394 66.9384 124.577 69.1145C124.853 72.3775 123.303 84.2595 119.261 90.9375C115.338 97.4185 84.8175 132.691 78.5355 138.449L76.7554 139.981C71.1094 144.945 59.4894 156.538 58.7104 155.307C58.1294 154.388 59.0304 149.091 59.8204 145.363L59.7914 145.443C60.8564 142.65 61.7604 141.069 62.5024 140.697C63.2534 140.321 65.0244 138.692 66.0964 137.673L66.9664 136.833C65.1944 138.866 64.3054 140.454 64.3004 141.596L64.2494 143.922C64.2324 145.317 64.2914 146.684 64.7144 147.034C65.1654 147.407 66.2364 145.985 67.9274 142.768L64.4744 141.942C65.1724 139.591 65.8624 138.166 66.5444 137.668C67.5674 136.921 73.5014 137.701 74.4074 137.878C75.0114 137.996 79.1545 133.911 86.8375 125.624C83.7115 124.477 81.2345 124.325 79.4054 125.17C79.4674 121.191 83.9515 118.829 89.9565 119.89C95.6485 116.345 101.603 110.094 101.212 109.414C100.82 108.734 95.5205 107.809 92.0955 108.9C92.2975 108.47 92.5525 108.066 92.8515 107.688L93.6415 106.935C94.3725 106.286 95.2005 105.692 96.1245 105.152C99.1815 103.615 103.101 103.085 105.684 103.453C108.805 101.484 106.116 98.3045 106.64 97.2525C106.99 96.5515 109.102 95.8865 112.978 95.2605C114.494 92.8415 114.914 91.6695 114.237 91.7445C113.335 91.8445 112.054 90.8345 109.649 91.5775L108.693 91.9435C108.083 92.2205 107.793 92.1805 107.768 91.9315L107.11 92.8225C109.396 89.5465 111.945 87.6025 114.758 86.9915L114.814 86.2565C115.415 86.0425 116.037 85.8705 116.672 85.7565C119.323 82.7565 119.7 77.9525 119.793 75.2275L119.983 70.3295C120.184 65.8584 120.53 58.7884 120.729 57.7324L120.933 56.5974C121.115 55.7334 121.413 55.0714 122.481 54.5884C123.478 54.1374 125.047 53.6714 127.186 53.1894L127.335 50.3854L126.094 51.0064C124.411 48.9624 123.841 47.8244 124.385 47.5914C124.928 47.3584 126.245 47.0524 128.336 46.6744C128.827 45.1994 129.375 44.0914 129.979 43.3494C130.583 42.6074 131.49 41.9194 132.713 41.2884Z" fill="#113B17"/>
<path d="M207.355 30.8184C207.558 31.2234 207.249 31.5834 207.458 31.9374L204.622 36.8544L206.524 32.6884C206.607 32.4834 206.657 32.3464 206.673 32.2754C206.787 31.7764 205.795 30.6194 204.8 30.0414L204.307 29.8064C203.379 29.4694 202.775 28.9214 202.631 28.3284C204.312 28.6124 207.114 30.3374 207.355 30.8184Z" fill="#4D7E54"/>
<path d="M132.712 41.2883C133.564 40.9863 134.109 40.8453 134.348 40.8663C136.643 41.0653 139.899 41.5364 144.116 42.2784L148.773 42.5934L151.41 42.6113L156.323 42.2224L174.093 41.6743L179.91 41.3944L183.238 41.1093C186.564 40.8813 192.045 40.6604 194.647 40.4174L193.64 44.3004C192.335 49.1904 191.18 52.9364 190.174 55.5414C188.249 60.5264 185.471 63.4744 184.161 64.3444C182.851 65.2144 180.299 65.4024 178.8 64.6384C177.301 63.8754 181.812 64.6414 183.883 63.3354C185.954 62.0294 188.339 57.7754 189.663 53.9244L190.253 52.1174C191.466 48.2394 192.782 43.0994 192.614 42.3244C192.445 41.5404 189.026 42.2784 184.62 42.7894L182.525 43.0034C181.182 43.1184 179.638 43.2804 177.994 43.4684L163.246 45.3114C157.928 45.9554 155.816 46.9274 156.41 47.8284L158.378 50.5984C160.206 53.2614 162.267 56.6974 159.758 55.7544C155.995 54.3404 141.191 44.0794 139.136 42.7473C137.706 41.8203 134.208 41.6264 132.1 41.6194L132.712 41.2883Z" fill="#426F4A"/>
<path d="M201.725 28.3844C201.98 28.2574 202.364 28.2654 202.816 28.3634C202.597 28.4364 202.405 28.5594 202.235 28.7224C201.479 29.4484 200.498 31.6244 199.292 35.2484L198.455 37.8794L198.125 38.8814L196.391 39.7714C197.579 37.6914 200.641 28.9264 201.725 28.3844Z" fill="#B0D1B5"/>
<path d="M207.958 32.3153C210.213 34.3863 211.217 35.9283 210.968 36.9403C210.595 38.4583 209.208 39.7733 207.84 39.9223C206.472 40.0713 203.456 39.1603 202.316 38.8403C201.175 38.5193 196.913 38.2453 195.357 40.7433C193.801 43.2413 193.841 48.2473 192.1 52.6883C190.359 57.1293 187.032 64.6463 184.128 66.1503C181.225 67.6543 176.045 66.1233 173.266 65.1093C170.486 64.0953 156.194 55.9083 154.284 54.6423C152.374 53.3763 144.831 48.1003 142.929 46.4513C141.027 44.8013 137.221 41.3463 136.066 41.2913C135.296 41.2543 133.885 41.5763 131.832 42.2563C128.932 50.4093 126.819 54.6953 125.491 55.1133C123.5 55.7413 122.729 55.0243 122.755 56.5473C122.78 58.0703 123.552 58.5043 123.637 59.9203C123.694 60.8643 123.711 62.6493 123.688 65.2753C122.122 69.3313 121.177 71.8354 120.851 72.7844C120.363 74.2094 121.033 74.8124 120.766 75.6124C120.499 76.4124 119.584 78.4394 118.674 79.1184C117.764 79.7974 117.62 79.8324 118.393 81.4174C119.166 83.0024 114.497 91.6304 113.277 91.5454C112.057 91.4604 110.797 91.3484 109.657 92.3044C108.516 93.2604 107.108 95.6594 107.317 97.3994C107.526 99.1394 106.522 105.686 104.143 107.339C101.764 108.992 99.6493 108.228 98.7373 108.063C97.8253 107.898 95.2993 107.701 94.8913 108.414C94.4833 109.127 93.0933 112.791 92.8173 114.318C92.6333 115.336 91.8553 117.75 90.4843 121.561C87.7483 124.194 85.7643 125.43 84.5303 125.27C82.6803 125.03 81.7493 123.561 80.6073 124.005C79.4663 124.449 76.6123 129.62 76.4513 131.971C76.2903 134.322 69.9463 142.67 68.9142 142.424C67.8822 142.177 65.1902 141.295 64.6542 141.391C64.6852 140.729 64.5992 140.18 64.3952 139.743C63.5512 142.16 63.3312 144.142 63.7352 145.689C64.2232 147.125 64.5172 148.214 64.6182 148.958C64.8072 146.846 64.9292 145.813 64.9852 145.859C65.0682 145.928 64.0932 142.523 64.2122 142.13C64.8442 142.282 66.5742 142.705 69.4022 143.4C73.8893 138.668 76.2363 136.032 76.4443 135.491C76.7563 134.679 80.2873 125.201 80.6113 125.053C80.9353 124.905 84.7263 126.417 85.4643 126.175C86.2023 125.933 91.9423 122.323 92.7363 120.435C93.1133 119.539 92.8463 117.74 93.2103 116.341C93.6123 114.793 94.6183 113.659 94.4043 113.141C93.9963 112.153 94.9783 109.087 95.2033 109.044C95.4283 109.001 101.324 109.403 103.005 108.837C104.686 108.271 107.929 103.896 107.95 102.3C107.971 100.704 108.113 97.7564 108.559 96.7814C109.005 95.8064 110.422 93.3974 110.392 92.9924C111.264 92.8644 112.85 92.6394 115.148 92.3174C117.867 86.6144 119.472 83.0734 119.962 81.6944C120.697 79.6254 129.634 58.2073 131.278 54.0803C132.923 49.9533 135.575 48.1463 139.059 51.1533C142.544 54.1603 164.689 68.4234 168.437 69.7504C172.185 71.0764 182.98 76.6914 186.266 72.1814C187.394 70.6334 190.968 67.8784 192.859 63.8043C196.477 56.0113 198.887 45.5703 200.965 44.8093C204.13 43.6503 210.033 45.5743 211.421 44.1383C212.809 42.7033 213.65 37.5133 213.262 36.7513C212.872 35.9903 210.758 32.7913 210.144 32.4073C209.736 32.1473 209.007 32.1183 207.958 32.3153Z" fill="#276B3A"/>
<path d="M131.61 41.1154C134.371 40.3574 137.224 43.5844 141.516 47.2044L142.622 48.1434C147.229 52.0744 157.789 59.0784 162.579 61.8624L163.513 62.3915C167.698 64.6895 177.811 69.6955 180.813 69.2135C183.815 68.7315 186.599 67.6305 190.19 60.8734C193.781 54.1164 195.094 45.7324 195.451 44.2514C195.808 42.7694 197.871 39.9804 200.433 40.5384L203.237 41.2154L206.231 41.9674C206.845 42.1114 207.314 42.2054 207.543 42.2114C208.272 42.2324 210.986 41.0794 211.716 38.6374L211.994 37.2164L212.028 37.2914C213.697 36.1124 214.783 36.2414 215.124 36.5504C215.465 36.8594 215.943 38.6484 216.744 38.9044C217.545 39.1604 222.107 43.7634 223.458 47.8704L223.997 49.6154C224.628 51.8034 224.592 52.2044 225.642 52.8084L227.676 53.8694C229.125 54.6614 230.689 55.7064 231.702 57.3164C233.205 58.1964 238.744 62.9295 241.132 65.1905L241.999 66.7545L242.298 67.3315C243.23 69.1785 247.652 75.9235 248.071 80.1715C248.49 84.4195 244.609 87.7825 233.562 89.2885L229.062 90.4255L225.05 90.6785C215.457 92.1445 204.542 95.6805 197.005 102.596C186.956 111.816 162.788 142.714 142.803 154.479C122.818 166.244 99.3883 174.696 78.7333 173.481C58.0783 172.266 49.5662 175.174 45.5732 172.25C44.0102 171.105 42.5152 169.769 41.0892 168.24L42.7112 166.827C45.8932 164.113 49.9372 160.08 49.9372 160.08L49.9652 159.994L51.8023 160.933L53.5362 157.771L54.1782 156.518C54.5833 155.646 72.9893 138.051 78.1603 132.844L82.1733 128.637L87.9343 122.388C93.7353 116.023 100.455 108.443 103.895 104.06L105.743 101.657L107.76 98.9445C113.299 91.3895 119.85 81.5995 121.057 78.0735C122.465 73.9595 125.27 61.9715 125.932 57.3204L126.04 56.4414C126.401 52.6654 128.62 41.9364 131.61 41.1154ZM135.688 60.3194C135.167 61.6864 134.693 65.1304 134.265 70.6505L129.95 82.3145C129.017 84.7895 128.342 86.5285 127.925 87.5325L127.738 87.9735C127.065 89.5115 124.07 93.5695 120.493 98.2635L112.437 108.787C106.39 116.767 89.4023 133.993 86.9363 136.463L71.6983 150.966C69.1823 153.384 67.1963 155.335 66.5893 156.05C65.2993 157.57 63.8493 159.758 63.1243 162.631C65.2643 162.708 66.9293 163.148 69.0233 163.159L73.7723 163.154L86.8493 163.364C93.7213 163.428 101.37 163.361 106.507 162.795C116.553 161.688 131.987 154.782 139.831 149.166C147.675 143.55 166.37 124.047 174.253 115.479L176.174 113.341L178.179 111.029C186.118 101.762 196.645 88.2905 199.45 86.4535C202.312 84.5785 210.972 83.8225 217.403 83.3935L223.235 83.0045L238.214 81.7245C240.653 81.4895 242.393 81.3015 242.696 81.2265C243.647 80.9905 242.457 73.9075 239.778 69.3155C237.099 64.7235 229.667 59.2984 224.705 56.3344C219.742 53.3704 207.941 49.4604 204.916 50.3914C202.227 51.2184 199.275 60.2684 197.573 66.3295L196.996 68.4405C195.459 74.2215 193.972 77.8645 186.568 81.3375C179.163 84.8095 170.928 78.3115 166.286 75.1815L163.593 73.4265L159.404 70.8065C154.883 68.0115 149.577 64.7924 145.364 62.0664C138.625 57.7064 136.469 58.2684 135.688 60.3194Z" fill="#4C453C"/>
<path d="M131.61 41.1153C134.371 40.3573 137.139 42.3263 141.432 45.9463L142.538 46.8853C147.145 50.8164 157.706 57.8204 162.496 60.6044L163.43 61.1334C167.615 63.4314 177.727 68.4374 180.729 67.9554C183.731 67.4734 186.515 66.3724 190.106 59.6154C193.697 52.8584 195.01 44.4743 195.367 42.9933C195.724 41.5113 197.787 38.7223 200.349 39.2803L203.153 39.9573L206.148 40.7093C206.762 40.8533 207.231 40.9473 207.46 40.9533C208.189 40.9743 210.903 39.8213 211.633 37.3793L211.911 35.9583L211.945 36.0333C213.614 34.8543 214.7 34.9833 215.041 35.2923C215.382 35.6013 215.86 37.3903 216.661 37.6463C217.462 37.9023 222.024 42.5053 223.375 46.6123L223.914 48.3573C224.545 50.5454 224.509 50.9464 225.559 51.5504L227.593 52.6114C229.042 53.4034 230.606 54.4484 231.619 56.0584C233.122 56.9384 238.661 61.6714 241.049 63.9324L241.916 65.4964L242.215 66.0734C243.147 67.9204 248.507 75.8204 248.926 80.0684C249.345 84.3164 245.464 87.6794 234.417 89.1854L229.157 89.8834L225.395 90.4214C215.802 91.8874 205.397 95.5775 197.861 102.492C187.812 111.712 163.645 142.611 143.659 154.376C123.674 166.141 99.8464 175.174 79.1913 173.959C58.5363 172.744 47.6373 174.629 43.6453 171.705C42.0823 170.56 40.5873 169.224 39.1613 167.695L40.7833 166.282C43.9653 163.568 49.8543 158.822 49.8543 158.822L49.8823 158.736L51.7193 159.675L53.4533 156.513L54.0953 155.26C54.5003 154.388 72.9063 136.793 78.0773 131.586L82.0904 127.379L87.8514 121.13C93.6524 114.764 100.372 107.184 103.812 102.801L105.66 100.398L107.677 97.6865C113.216 90.1314 119.767 80.3414 120.974 76.8154C122.382 72.7014 125.187 60.7134 125.849 56.0624L125.957 55.1834C126.316 51.4074 128.62 41.9363 131.61 41.1153ZM134.709 59.4484C134.188 60.8154 133.714 64.2594 133.286 69.7794L128.971 81.4434C128.038 83.9184 127.363 85.6574 126.946 86.6614L126.759 87.1024C126.086 88.6404 123.091 92.6984 119.514 97.3925L111.458 107.915C105.411 115.895 88.4234 133.122 85.9574 135.592L70.7193 150.095C68.2033 152.513 66.2173 154.464 65.6103 155.179C64.3203 156.699 63.3123 158.896 62.5863 161.77C64.7263 161.847 66.8433 161.891 68.9373 161.902L73.6863 161.897L86.7634 162.107C93.6354 162.171 101.284 162.105 106.421 161.538C116.467 160.431 131.901 153.525 139.746 147.909C147.591 142.293 166.286 122.79 174.169 114.221L176.089 112.083L178.094 109.771C186.033 100.504 196.56 87.0334 199.365 85.1964C202.227 83.3214 210.887 82.5654 217.318 82.1364L223.15 81.7474L238.129 80.4674C240.568 80.2324 242.308 80.0444 242.611 79.9694C243.562 79.7334 242.372 72.6504 239.693 68.0584C237.014 63.4654 229.582 58.0414 224.62 55.0774C219.657 52.1134 207.856 48.2034 204.831 49.1344C202.142 49.9614 199.19 59.0114 197.488 65.0724L196.911 67.1834C195.374 72.9644 193.887 76.6074 186.483 80.0804C179.079 83.5524 170.843 77.0544 166.202 73.9244L163.509 72.1694L159.32 69.5494C154.799 66.7544 149.493 63.5354 145.279 60.8094C138.54 56.4484 135.491 57.3974 134.709 59.4484Z" fill="#F2EFEC"/>
<path d="M211.909 35.9603L211.943 36.0353C213.612 34.8563 214.698 34.9853 215.039 35.2943C215.38 35.6033 215.858 37.3923 216.659 37.6483C217.46 37.9043 222.022 42.5073 223.373 46.6143L223.912 48.3593L224.433 50.1723C224.669 50.8773 224.901 51.1753 225.558 51.5523L226.449 52.0373C225.892 52.5063 225.36 52.5633 224.852 52.2093L212.891 43.9903C211.39 42.9673 209.932 41.9793 208.644 41.1133L208.203 40.7903C209.304 40.3943 211.065 39.2753 211.631 37.3803L211.909 35.9603Z" fill="#DCD8D2"/>
<path d="M73.7834 162.65L86.8605 162.86L91.5215 162.879C97.0085 162.869 102.525 162.732 106.52 162.291C116.566 161.184 132 154.278 139.844 148.662C147.688 143.046 166.383 123.543 174.266 114.975L176.186 112.837L178.191 110.525L185.542 101.735C191.614 94.3885 197.475 87.2505 199.462 85.9494C200.395 85.3384 201.943 84.8464 203.828 84.4454C202.649 85.5075 201.857 86.3454 201.092 87.4894C196.764 93.9595 217.412 87.3444 230.102 88.2114C232.823 88.3974 233.299 89.2834 232.223 90.6915L229.556 91.0475L225.794 91.5855C216.201 93.0515 205.395 95.5775 197.858 102.493C189.063 110.564 169.452 135.241 151.296 149.16L147.588 151.56C135.932 158.988 125.246 164.655 119.58 165.168C111.233 165.923 98.0115 165.855 79.7225 163.458L73.7834 162.65ZM226.269 55.3834C228.257 56.1724 230.279 56.6844 233.127 57.1474C235.406 58.9034 239.185 62.1704 241.048 63.9344L241.915 65.4984L242.214 66.0754C243.055 67.7424 247.505 74.3414 248.671 78.7344C248.168 80.3184 247.503 81.5184 246.804 82.0564C245.159 83.3224 244.651 81.9434 243.446 79.6664C244.052 78.5884 242.848 72.1714 240.359 67.9034C237.68 63.3104 230.248 57.8864 225.286 54.9224L226.269 55.3834Z" fill="#DEDBD8"/>
<path d="M52.1193 170.498C66.1693 171.252 95.6184 169.17 110.927 165.801C127.315 162.195 147.352 148.829 163.9 131.004L166.72 127.922L169.717 124.56L178.561 114.479L181.512 111.154C194.605 96.5144 198.49 93.8804 205.522 90.9614L206.952 90.3804C213.466 87.7924 219.285 86.2404 226.534 85.6604L237.079 85.0284L238.664 84.9094C241.867 84.7054 244.978 83.9394 246.317 82.1084C248.193 79.5404 248.501 75.6154 244.582 68.4064C245.886 70.3234 247.407 72.6744 248.769 74.8954C250.592 79.4834 250.811 82.7514 249.439 85.0264C247.973 87.4574 244.529 88.8734 240.914 89.2854L239.327 89.4134C237.653 89.5054 230.588 89.9024 227.615 90.1404C220.695 90.6944 215.213 92.1774 209.064 94.6204L207.838 95.1204C201.291 97.8714 197.456 100.38 184.468 115.009L171.64 129.591L168.721 132.825C168.247 133.343 167.777 133.853 167.308 134.358C150.31 152.67 129.684 166.427 112.49 170.211C96.8534 173.652 67.2473 175.399 52.8333 174.664C45.6713 174.299 41.4733 172.058 39.3433 167.537L42.1863 165.127C43.9243 168.376 46.6353 170.204 52.1193 170.498Z" fill="#F4F4F4"/>
<path d="M52.9162 171.427C67.0263 172.147 96.4154 170.099 111.724 166.73C128.112 163.124 148.149 149.758 164.697 131.933L167.517 128.851L170.514 125.49L179.358 115.409L182.309 112.084C195.402 97.4435 199.287 94.8095 206.319 91.8905L207.749 91.3095C214.263 88.7215 220.082 87.1695 227.331 86.5895L237.876 85.9575L239.461 85.8385C242.664 85.6345 245.775 84.8685 247.114 83.0375C248.99 80.4695 247.285 75.2465 243.366 68.0385C244.67 69.9555 247.409 72.6755 248.771 74.8965C250.594 79.4845 250.813 82.7525 249.441 85.0275C247.975 87.4585 244.531 88.8745 240.916 89.2865L239.329 89.4145C237.655 89.5065 230.59 89.9035 227.617 90.1415C220.697 90.6955 215.215 92.1785 209.066 94.6215L207.84 95.1215C201.293 97.8725 197.458 100.382 184.47 115.011L171.642 129.592L168.723 132.826C168.249 133.344 167.779 133.854 167.31 134.359C150.311 152.671 129.686 166.428 112.492 170.212C96.8554 173.653 67.2493 175.4 52.8353 174.665C45.6732 174.3 41.4752 172.059 39.3452 167.538L41.4222 165.745C43.1372 169.233 46.8722 171.118 52.9162 171.427Z" fill="#E4E1DE"/>
<path d="M243.295 67.7654C244.599 69.6824 247.406 72.6734 248.768 74.8944C250.591 79.4824 250.81 82.7504 249.438 85.0254C247.972 87.4564 244.528 88.8724 240.913 89.2844L239.326 89.4124L228.519 90.0704C228.188 90.0944 227.884 90.1174 227.614 90.1394C220.694 90.6934 215.212 92.1764 209.063 94.6194L207.837 95.1194C201.29 97.8704 197.455 100.379 184.467 115.008L171.639 129.59L168.012 133.595L167.308 134.356C150.31 152.669 129.685 166.426 112.49 170.21C104.817 171.899 93.7804 173.179 82.8264 173.959L91.3754 170.993C93.1504 170.369 94.8414 169.768 96.4504 169.19L101.253 168.559C105.14 168.008 108.706 167.395 111.725 166.731C128.114 163.125 148.151 149.759 164.698 131.934L167.518 128.851L170.515 125.49L179.359 115.409L182.31 112.084C195.403 97.4444 199.288 94.8104 206.32 91.8914L207.75 91.3104C214.264 88.7224 220.083 87.1704 227.332 86.5904L237.877 85.9584L239.462 85.8394C242.665 85.6354 245.776 84.8694 247.115 83.0384C248.988 80.4684 247.214 74.9744 243.295 67.7654Z" fill="#D4D0CC"/>
<path d="M222.874 45.3614L222.843 45.4754C222.732 45.8874 222.578 46.1374 222.38 46.2254C221.488 46.6214 218.422 43.2554 217.906 42.7494C217.476 42.3284 217.319 41.6344 217.63 41.2134L217.875 40.9974C218.166 40.8304 218.43 40.3054 218.668 39.4214C220.072 40.8844 221.836 43.1234 222.874 45.3614Z" fill="#5580A7"/>
<path d="M225.243 51.3734L227.592 52.6134C229.041 53.4054 230.605 54.4504 231.618 56.0604C231.122 56.3014 230.769 56.3624 230.584 56.2734L229.743 55.7944C228.375 54.9704 225.95 53.3884 225.579 52.8364C225.418 52.5964 225.306 52.1084 225.243 51.3734Z" fill="#3C5242"/>
<path d="M261.156 102.818C264.991 104.889 266.645 107.424 266.117 110.422C265.326 114.92 252.001 125.892 241.797 132.906C231.593 139.92 159.41 175.748 156.523 177.526C153.636 179.304 150.96 181.632 146.299 182.642C141.639 183.652 139.164 182.855 133.318 185.788C127.471 188.72 109.942 199.149 92.9734 205.199C76.0044 211.249 54.8373 215.869 48.8633 217.126C42.8893 218.383 34.7923 215.374 34.0823 215.01C37.3763 214.323 75.6484 204.613 95.7524 194.761C115.856 184.909 137.131 172.961 156.359 161.265C175.587 149.568 240.14 113.03 246.885 109.62C251.384 107.348 256.14 105.081 261.156 102.818Z" fill="#082D11"/>
<path d="M46.2583 211.87L51.8003 210.316L59.1774 208.641C60.8884 208.25 62.6114 207.849 64.2404 207.445C72.2534 205.46 89.0824 198.92 99.1984 194.54L101.012 193.746C107.167 191.018 121.902 183.093 132.229 177.466L143.234 171.446C144.095 171.011 131.539 180.087 117.869 187.858L115.029 189.444C100.316 197.503 88.4664 202.205 86.4564 202.635C85.1164 202.922 84.4914 203.952 84.5824 205.727C85.2854 205.421 87.4914 204.204 91.2024 202.076C96.7684 198.884 107.651 195.186 115.139 192.694C122.627 190.202 132.895 184.101 136.192 181.687C139.489 179.273 142.762 178.832 146.111 177.195L174.589 160.761C176.728 159.543 178.692 158.436 180.352 157.519L187.401 153.743C200.838 146.65 228.175 132.426 242.399 123.954L243.924 123.037C260.076 113.225 262.569 109.771 263.843 108.188C264.437 107.451 264.606 106.436 264.35 105.144C265.874 106.698 266.462 108.461 266.117 110.422C265.326 114.92 252.001 125.892 241.797 132.906C231.593 139.92 159.41 175.748 156.523 177.526C153.636 179.304 150.96 181.632 146.299 182.642C141.639 183.652 139.164 182.855 133.318 185.788L129.835 187.63C122.091 191.825 107.331 200.08 92.9734 205.199L89.1414 206.519C72.9524 211.915 68.6454 212.738 61.7434 214.633C57.2184 215.876 43.3223 217.417 40.7213 216.928C44.6113 216.589 49.3623 215.95 52.1523 215.331L54.1073 214.876C59.5754 213.555 68.8774 210.994 70.1264 210.067C71.5424 209.016 60.8884 211.208 57.0854 212.11C53.2824 213.012 47.4123 212.976 46.0303 212.295C45.8103 212.188 45.9063 212.044 46.2583 211.87Z" fill="#43774F"/>
<path d="M257.497 95.5084C261.337 98.2124 263.336 99.8094 263.493 100.299C263.728 101.034 263.848 102.769 262.301 103.824C260.754 104.879 245.103 114.325 229.737 122.47C214.371 130.616 187.247 145.342 168.717 156.246C150.186 167.15 138.736 174.395 134.881 177.205C131.026 180.015 105.4 194.349 84.0743 202.17C69.8572 207.384 53.6332 211.942 35.4031 215.843L29.8951 212.555C55.2252 205.967 72.1232 201.031 80.5902 197.747C93.2903 192.82 126.085 175.931 133.49 171.584C140.895 167.237 160.359 153.104 174.748 144.713C189.137 136.322 233.265 110.964 239.646 107.585C243.898 105.332 249.849 101.306 257.497 95.5084Z" fill="#E7E4DC"/>
<path d="M257.497 95.5084L260.228 97.4744C262.29 99.0024 263.379 99.9434 263.493 100.3C263.728 101.035 263.848 102.77 262.301 103.825L261.577 104.29C259.994 102.633 258.214 102.365 256.224 103.482L233.959 115.378L225.277 120.101C216.393 124.856 200.487 133.056 177.557 144.701L192.556 134.406L230.423 112.733C234.441 110.458 237.538 108.722 239.16 107.846L239.645 107.586C243.898 105.332 249.849 101.306 257.497 95.5084Z" fill="#D4D1C8"/>
<path d="M175.43 144.332C173.943 148.026 171.956 150.952 169.47 153.112C165.618 156.459 157.184 162.1 147.734 167.407L142.878 170.07C131.589 176.165 111.029 186.78 103.505 188.729C101.975 189.125 102.742 188.234 105.804 186.055L116.772 180.51C124.324 176.63 130.703 173.219 133.489 171.584C140.894 167.237 160.358 153.104 174.747 144.713L175.43 144.332Z" fill="#D1CEC8"/>
<path d="M257.497 95.5084L259.564 96.9864C261.414 98.3344 262.612 99.2894 263.159 99.8534L262.06 99.3254C260.07 98.4554 258.682 98.3654 257.894 99.0584L256.73 99.9904C255.4 100.962 253.019 102.457 247.479 105.585L231.819 114.273C219.169 121.384 207.654 128.343 201.508 131.909L195.712 135.289C186.278 140.853 169.473 150.973 161.978 155.831L155.635 159.916C145.873 166.167 131.856 174.991 125.14 178.651L115.049 183.947C106.224 188.482 93.1604 194.748 75.4964 200.942C58.9423 206.746 43.9683 210.756 30.5743 212.97L29.8943 212.556L41.4053 209.521C59.5103 204.674 72.2204 200.883 79.5334 198.15L80.5894 197.748C93.2894 192.821 126.084 175.932 133.489 171.585C140.277 167.6 157.198 155.393 171.055 146.922L174.748 144.714C187.698 137.162 224.736 115.867 236.666 109.22L239.645 107.586C243.898 105.332 249.849 101.306 257.497 95.5084Z" fill="#A3A097"/>
<path d="M250.672 77.9263C250.791 78.0803 253.025 77.8203 253.457 78.7223C253.887 79.6253 257.458 87.3584 257.75 89.6864C258.042 92.0144 258.111 95.8844 257.064 97.2344C256.017 98.5844 248.756 103.9 233.211 112.762C217.666 121.624 183.401 141.602 173.78 147.099C164.159 152.594 145.161 165.47 140.458 168.622C135.755 171.774 124.247 178.502 108.221 186.522C92.1945 194.542 80.7445 198.9 61.3035 204.942C48.3424 208.97 38.1534 211.48 30.7374 212.472L25.9214 209.057C42.1474 205.475 56.4004 201.681 68.6795 197.673C87.0975 191.662 121.476 174.858 132.976 167.52C144.476 160.182 158.589 149.02 172.775 135.964C186.961 122.907 197.293 108.96 207.603 105.035C217.913 101.11 225.746 102.757 233.065 101.314C240.384 99.8714 253.046 96.1944 253.155 88.4994C253.262 80.8043 250.553 77.7723 250.672 77.9263Z" fill="#DBD8D2"/>
<path d="M207.602 105.034C214.677 102.341 220.585 102.271 225.961 102.026L222.122 102.957C213.627 105.065 208.369 106.722 206.342 107.928L204.088 109.292C200.442 111.567 195.164 115.306 188.959 122.366L187.511 124.055C179.215 133.969 162.865 147.803 157.374 152.019L153.444 154.935C145.704 160.551 131.562 170.276 122.464 175.001L116.816 177.894C104.942 183.897 86.8184 192.581 72.3334 197.673C61.3304 201.541 46.3113 205.653 27.2783 210.01L25.9193 209.055C42.1453 205.473 56.3984 201.679 68.6774 197.671C87.0954 191.66 121.473 174.856 132.974 167.518C144.474 160.18 158.587 149.018 172.773 135.962C186.959 122.906 197.291 108.959 207.602 105.034ZM253.457 78.7225L254.982 82.0995C256.149 84.7745 257.57 88.2545 257.75 89.6865C258.042 92.0145 258.111 95.8845 257.064 97.2345C256.646 97.7725 255.241 98.9415 252.717 100.714C253.602 99.4315 256.285 97.4285 256.825 95.9185C258.072 92.4335 256.728 85.5115 253.918 81.1565C252.83 79.4705 251.974 78.4165 251.35 77.9965C252.069 78.0355 253.167 78.1185 253.457 78.7225Z" fill="#F1F0ED"/>
<path d="M196.845 112.156L193.891 115.62C190.644 119.488 188.065 122.787 186.154 125.517C182.06 131.367 176.829 140.779 173.859 146.382C173.685 146.711 173.423 147.087 173.084 147.502L169.777 149.471C164.462 152.713 157.8 157.056 152.068 160.854L140.456 168.621C136.881 171.017 129.372 175.48 118.934 181.007L106.366 186.794C102.525 188.509 99.8935 189.579 99.8175 189.284C99.5655 188.286 128.135 173.823 134.399 169.901L135.472 169.212C137.471 167.879 136.053 168.419 133.551 169.579L123.547 174.403C120.578 175.762 117.279 177.052 117.757 175.997L121.474 174.053C126.248 171.522 130.251 169.255 132.973 167.519C144.473 160.181 158.586 149.019 172.772 135.963C182.1 127.378 189.761 118.409 196.845 112.156Z" fill="#D1CEC8"/>
<path d="M160.857 148.693L158.44 150.699C155.349 153.227 142.157 164.101 119.192 175.904C104.156 183.632 104.508 183.097 100.131 185.112C95.7544 187.128 80.6734 193.575 76.1624 194.871C93.2984 188.19 114.13 177.896 117.397 176.221C120.664 174.546 131.58 168.407 132.973 167.518C144.474 160.18 158.587 149.018 172.773 135.962C179.471 129.798 185.309 123.434 190.692 118.021C186.734 124.306 168.134 142.558 160.857 148.693Z" fill="#ABA59A"/>
<path d="M250.672 77.9263C250.75 78.0273 251.749 77.9493 252.544 78.1433C254.486 82.5184 256.382 89.4784 255.086 93.7984C253.392 99.4464 246.94 103.228 239.816 104.495C232.692 105.762 223.785 104.57 220.559 104.747C218.418 104.865 212.948 104.328 207.953 104.904L207.601 105.035C217.911 101.11 225.744 102.757 233.063 101.314C240.382 99.8714 253.044 96.1944 253.153 88.4994C253.262 80.8043 250.553 77.7723 250.672 77.9263Z" fill="#D1CEC8"/>
<path d="M250.672 77.9263L250.78 77.9523L251.375 79.0014C252.48 81.0574 254.535 85.4814 253.96 89.1324C253.193 94.0004 251.079 96.4244 246.526 98.5764C241.973 100.727 237.02 102.296 229.85 102.569C225.246 102.744 220.971 102.563 217.786 102.566C223.445 101.892 228.361 102.241 233.064 101.314L235.083 100.886C242.49 99.2024 253.055 95.5254 253.154 88.5004C253.262 80.8044 250.553 77.7723 250.672 77.9263Z" fill="#ABA59A"/>
<path d="M266.587 109.553C266.374 115.309 264.536 120.322 261.071 124.594C255.874 131.001 244.407 139.423 231.419 145.723C218.431 152.023 183.437 169.736 174.056 174.43C164.675 179.125 115.981 203.493 110.258 206.357C104.535 209.221 85.4654 215.33 66.6733 220.21C47.8813 225.09 43.0223 224.025 33.9963 223.665C26.5043 222.382 19.1662 215.563 17.7032 212.639C16.2402 209.715 13.8422 204.215 14.4612 203.794C15.0792 203.373 18.9232 203.471 22.4022 205.996C25.8812 208.521 34.2123 215.978 39.3603 216.598C44.5083 217.217 56.7433 217.066 80.4354 209.151C104.127 201.236 134.246 184.677 135.648 184.068C137.05 183.459 147.307 183.173 151.155 180.731C155.002 178.29 162.535 173.905 171.539 169.399C180.543 164.893 209.769 150.125 216.223 146.895C222.676 143.665 247.082 130.682 255.533 122.22C261.167 116.581 264.852 112.358 266.587 109.553Z" fill="#2C4C2E"/>
<path d="M25.4193 219.346L38.7083 216.488L39.3603 216.599L41.1213 216.755C47.0693 217.111 59.1123 216.276 80.4354 209.152L83.8594 207.965C106.929 199.696 134.313 184.649 135.649 184.069C137.051 183.46 147.307 183.174 151.155 180.732L151.62 180.442L150.335 186.296L110.258 206.357C104.755 209.111 86.9124 214.865 68.8424 219.642L66.6734 220.21C47.8813 225.09 43.0223 224.025 33.9963 223.665C30.9153 223.137 27.8603 221.673 25.2283 219.929L25.4193 219.346Z" fill="#52684E"/>
<path d="M263.211 119.556C263.411 119.913 263.581 120.267 263.72 120.618C262.976 122.006 262.095 123.332 261.072 124.593C255.875 131 244.408 139.422 231.42 145.722L219.988 151.363C204.814 158.919 183.354 169.767 175.118 173.899L150.139 186.398C130.35 196.635 118.07 202.881 113.299 205.138C102.942 210.037 87.3204 215.03 66.4324 220.118C91.3784 211.928 104.929 207.335 107.086 206.338C117.656 201.453 149.458 185.119 149.88 184.7C150.161 184.42 150.513 183.965 150.936 183.336C151.106 182.404 151.867 181.599 153.22 180.922L217.63 148.687L217.225 150.994L224.733 147.015C234.218 141.916 241.599 137.644 246.875 134.198C253.471 129.89 258.916 125.009 263.211 119.556Z" fill="#021405"/>
<path d="M23.2793 217.015C24.8623 217.279 26.1513 217.338 27.1443 217.191L29.9773 216.632C31.3983 216.329 33.2963 215.908 35.6713 215.37C37.0043 216.017 38.2563 216.466 39.3613 216.599C40.3473 216.718 41.5933 216.808 43.1293 216.821L37.1783 218.697C34.1393 219.63 30.9443 220.575 30.0023 220.742C28.1103 221.078 24.4193 219.054 23.9073 218.27C23.5663 217.747 23.3563 217.329 23.2793 217.015Z" fill="#7A9079"/>
<path d="M14.4623 203.795C15.0803 203.374 18.9243 203.472 22.4033 205.997C25.1693 208.004 31.0024 213.13 35.8644 215.458L36.6244 215.229L33.6674 216.061C29.0624 217.277 26.0714 217.638 24.6943 217.143L23.5473 216.773C22.6143 216.487 21.3803 216.12 20.0543 215.657C18.9133 214.489 18.0973 213.424 17.7043 212.639L16.6743 210.48C15.3523 207.592 13.9763 204.126 14.4623 203.795Z" fill="#D5D0CD"/>
<path d="M21.6982 207.252L22.8102 208.55C24.0432 210.044 25.6372 212.124 27.5932 214.79C26.6942 215.75 25.8512 216.57 25.0652 217.249L24.6942 217.142L23.5472 216.772L21.0282 215.985C20.7112 215.881 20.3852 215.771 20.0542 215.656C18.9132 214.488 18.0972 213.423 17.7042 212.638L16.6742 210.479L15.7692 208.42C15.1922 207.047 14.6982 205.735 14.4812 204.857C16.9302 204.912 20.3682 205.774 21.6982 207.252Z" fill="#C5BDB7"/>
<path d="M22.0521 214.562L31.4901 212.873C32.5022 213.56 33.5211 214.204 34.5171 214.758L35.8401 215.446L33.6681 216.061L31.0991 216.688C27.9321 217.387 25.7971 217.539 24.6951 217.143L23.7811 216.856L22.0521 214.562Z" fill="#B1C5BE"/>
<path d="M17.9523 211.373C18.8913 210.794 21.6243 212.717 23.9483 215.063L24.5703 215.712C26.6793 217.986 31.5703 221.814 36.8824 223.817L35.4403 223.729C31.9153 222.531 28.3813 220.347 26.4333 218.641L24.4463 216.82C22.1613 214.663 19.8203 212.312 19.4323 212.297C19.1043 212.285 18.3533 212.371 17.6513 212.547L17.1593 211.522C17.4763 211.554 17.7393 211.504 17.9523 211.373Z" fill="#EBEBEB"/>
<path d="M18.1373 211.715C18.8113 211.692 21.4173 213.488 22.3503 214.554L23.4563 215.735C24.6003 216.896 26.2163 218.386 27.6823 219.341L34.2614 223.667L33.9973 223.666C26.5053 222.383 19.1673 215.564 17.7043 212.64L17.5283 212.282C17.6733 211.913 17.8763 211.724 18.1373 211.715Z" fill="#285D37"/>
<path d="M266.277 108.186C265.185 111.173 264.129 113.364 263.109 114.762C261.579 116.861 261.438 116.882 261.414 118.773C261.39 120.664 260.718 124.319 261.072 124.594C261.425 124.868 265.087 121.377 266.121 119.686C267.155 117.995 268.512 113.191 268.085 111.239C267.871 110.261 267.405 108.885 266.831 108.227C266.705 108.083 266.52 108.069 266.277 108.186Z" fill="#061D0F"/>
<path d="M260.428 105.969L262.848 103.86L262.775 103.801C263.512 104.32 264.131 104.864 264.631 105.431C264.171 106.186 262.446 108.243 261.376 109.044C260.191 109.93 262.538 107.494 263.37 106.015C264.202 104.535 260.81 107.152 259.226 107.693C258.494 107.942 258.895 107.368 260.428 105.969Z" fill="#224F2D"/>
<path d="M57.1923 146.065C57.6133 145.854 58.1173 145.693 58.7053 145.582C57.4943 147.714 59.0943 153.03 59.5533 153.869C60.0583 154.792 58.7043 156.542 57.6723 157.171C56.6403 157.8 55.5153 157.346 54.1093 155.831C53.4973 155.171 53.0173 154.123 52.6693 152.688C52.6713 152.446 52.6473 152.182 52.6063 151.893L55.0203 150.685L55.3633 149.597C55.7853 148.339 56.5303 146.396 57.1923 146.065ZM82.1694 120.758L83.5414 119.978L82.7054 120.592C81.4514 121.572 77.1954 132.31 76.9494 133.74C76.7024 135.17 76.6694 139.312 76.4024 139.896C76.1354 140.48 74.8594 140.857 74.4244 140.886C73.9894 140.915 72.5384 139.378 72.2064 137.757C71.9804 136.653 72.3124 133.718 72.7084 131.575L72.8444 131.436C73.2564 129.866 73.9054 128.431 74.7904 127.129L75.6694 125.999C76.0744 125.491 76.5334 125.015 77.0324 124.561C78.8204 122.932 80.5644 121.714 82.1694 120.758ZM98.2965 104.058L98.1054 104.263C93.0914 109.707 92.5544 118.558 92.8434 120.876L92.9064 121.232C93.3564 122.968 92.1504 124.295 91.5414 124.386C90.9324 124.477 89.3754 123.706 88.7304 122.441C88.0854 121.176 88.4644 118.632 88.7344 115.979C88.8264 115.075 89.1924 113.878 89.6054 112.722C90.7294 110.25 92.0764 108.324 93.6404 106.936C94.9024 105.813 96.4554 104.854 98.2965 104.058ZM112.812 87.6445L112.741 87.7365C111.405 89.3475 109.162 93.1155 108.507 94.4825C107.807 95.9445 107.397 98.8885 107.752 101.302L107.952 102.298C108.619 104.836 107.554 106.577 106.641 107.016C105.728 107.455 103.841 105.998 102.99 104.781C102.553 104.156 102.442 102.689 102.52 101.14L101.877 102.811C103.078 99.4275 104.821 96.0975 107.106 92.8215C108.854 90.3175 110.756 88.5915 112.812 87.6445ZM118.521 74.4625L119.103 73.9885C119.544 73.6565 119.886 73.4575 119.768 73.7885L119.482 74.6675C118.958 76.3655 117.997 79.8185 118.312 80.7855C118.705 81.9935 120.355 84.7035 121.091 86.3385C121.827 87.9745 121.594 89.0065 120.624 89.5725C119.654 90.1385 117.698 89.6495 116.78 88.8265C116.106 88.2225 115.304 87.1715 114.801 86.1665L114.754 86.9915C114.907 84.5875 115.166 82.8445 115.533 81.7615L116.601 79.2355C117.089 78.0565 117.729 76.4655 118.521 74.4625ZM120.438 56.0225C120.496 56.1605 120.481 56.3085 120.361 56.4525C119.793 57.1355 121.324 59.7985 122.749 61.3885C124.174 62.9785 124.702 65.1735 125.42 66.7265C126.138 68.2785 124.393 69.6165 123.25 70.1745C122.459 70.5615 120.705 68.6685 119.492 66.9905L117.868 63.7395C117.088 62.1815 118.489 57.0005 118.489 57.0005L120.438 56.0225Z" fill="#489056"/>
<path d="M126.627 46.9214C125.759 47.4764 125.333 47.8484 125.349 48.0374C125.426 48.9834 125.635 49.7464 125.976 50.3274C126.641 51.4574 132.526 58.6194 133.254 59.9584C133.982 61.2974 136.05 64.1024 135.974 64.6314C135.898 65.1614 135.432 68.0444 134.708 68.4054C133.984 68.7664 130.277 69.5264 128.121 70.2114C125.965 70.8964 120.243 72.5244 119.417 72.9184C118.591 73.3124 117.478 74.2524 117.487 73.8844C117.496 73.5154 117.789 69.3234 118.045 69.0304C118.301 68.7374 120.228 67.6494 121.442 67.0794C122.655 66.5094 128.704 64.3614 128.856 64.1484C129.008 63.9354 129.143 63.4554 127.471 60.8874C125.8 58.3204 123.685 53.6874 123.325 53.0974C122.965 52.5074 122.903 51.8884 123.078 51.2654C123.253 50.6424 124.097 47.9674 124.315 47.6394C124.46 47.4204 125.231 47.1814 126.627 46.9214Z" fill="#A0B1EF"/>
<path d="M119.604 68.0334L118.885 71.9604L121.72 71.1734L132.457 68.0604L133.793 67.0584L134.605 64.7244L135.954 64.7274L135.731 65.9634C135.512 66.9694 135.161 68.1794 134.708 68.4054C134.064 68.7254 131.064 69.3624 128.891 69.9804L121.014 72.3644C120.232 72.6114 119.642 72.8104 119.417 72.9174C118.59 73.3114 117.478 74.2514 117.487 73.8834L117.639 71.8044C117.749 70.5584 117.902 69.1924 118.045 69.0294L118.436 68.7314C118.727 68.5384 119.146 68.2894 119.604 68.0334Z" fill="#6B5FA5"/>
<path d="M123.033 52.3875L124.095 49.1835L126.43 53.1385L129.792 55.4165L130.481 56.2055L132.45 58.7825C132.709 59.1355 132.923 59.4365 133.074 59.6675L133.898 61.0285C134.793 62.4325 136.031 64.2205 135.972 64.6335L135.929 64.8695L135.291 64.8845L134.664 66.9565L133.534 67.3345L134.089 64.3525L125.729 52.8965L124.41 55.2605L123.438 53.3065L123.323 53.0985C123.181 52.8645 123.086 52.6275 123.033 52.3875Z" fill="#102546"/>
<path d="M121.441 67.0794C122.542 66.5624 127.626 64.7454 128.67 64.2544L128.917 64.3564L129.219 63.7054C129.319 63.5194 129.585 63.2924 130.017 63.0244L130.728 62.6184C131.209 62.3614 131.635 62.1664 131.588 62.2384C131.517 62.3464 130.168 62.8214 130.129 63.2494C130.09 63.6774 130.858 64.0914 131.249 64.0954C131.64 64.0994 132.87 63.5234 132.69 63.1264C132.974 63.3784 133.43 64.4154 133.387 65.1004C133.344 65.7854 133.344 66.2634 132.782 66.6854L132.286 67.0934C131.846 67.4384 131.303 67.7124 130.384 67.2874C129.526 66.8904 129.053 66.1254 128.965 64.9904L122.071 67.2814L121.312 68.1614L120.906 69.6304L120.22 70.5334C120.129 70.9084 120.131 71.0984 120.225 71.1054L121.551 70.8474C121.788 70.8064 121.954 70.7894 121.932 70.8334C121.864 70.9664 119.104 72.0914 119.11 71.8474L119.625 69.4874C119.739 68.9984 119.871 68.4344 120.022 67.7954C120.515 67.5354 121.021 67.2764 121.441 67.0794Z" fill="#2E5860"/>
<path d="M132.014 50.2103C131.716 49.3283 130.757 49.2873 129.805 49.9663C128.853 50.6453 129.121 51.5013 129.368 51.9173C129.615 52.3333 130.234 53.2554 131.163 52.6103C132.092 51.9643 132.312 51.0923 132.014 50.2103Z" fill="#251A1A"/>
<path d="M263.066 115.069C262.691 115.718 257.608 121.692 252.587 125.999C247.566 130.306 235.485 137.944 219.678 146.163C203.871 154.382 169.793 171.128 167.181 172.435C164.569 173.742 152.884 179.76 151.868 180.524C150.852 181.289 145.05 183.293 139.902 183.578C135.885 183.841 130.723 186.871 127.824 188.431C124.925 189.991 107.331 198.99 94.8455 204.179C82.3614 209.369 74.8024 211.501 59.7234 215.297C44.6444 219.093 38.2564 217.318 35.5333 215.942C33.7173 215.025 30.6133 212.71 26.2213 208.996C32.2423 213.122 35.7933 215.365 36.8733 215.727C37.9153 216.076 41.0544 217.503 49.0754 216.504C53.1774 215.993 60.1854 214.696 64.4404 213.47C76.3624 210.035 83.5524 208.021 95.8335 202.906C108.114 197.791 123.602 189.843 128.144 187.514C132.686 185.185 136.099 183.721 140.819 183.118C145.539 182.515 149.638 181.065 153.139 179.005C156.639 176.945 167.821 171.232 173.334 168.473C178.847 165.714 223.275 143.271 224.984 142.416C226.693 141.561 239.036 135.063 246.978 129.157C254.92 123.251 262.499 115.696 265.851 110.062L264.949 112.524C263.944 113.788 263.316 114.636 263.066 115.069Z" fill="#061D0F"/>
<path d="M141.583 48.0944C155.772 61.2014 165.752 69.8445 171.523 74.0225C180.18 80.2905 184.43 79.4335 186.573 78.6495C188.715 77.8655 193.378 75.5405 195.395 67.9424C196.74 62.8774 197.011 54.7414 196.208 43.5354C193.491 55.5464 190.685 62.8274 187.789 65.3774C183.446 69.2024 180.696 70.4394 174.219 68.0534C169.9 66.4624 159.022 59.8094 141.583 48.0944Z" fill="#E2DEDA"/>
<path d="M200.12 38.7433C202.69 33.2773 204.121 30.3033 204.413 29.8213C204.609 29.9063 204.859 29.9883 205.162 30.0683C202.917 34.5713 201.52 37.5213 200.97 38.9174C200.943 38.9324 200.659 38.8743 200.12 38.7433Z" fill="#426F4A"/>
</g>
<defs>
<clipPath id="clip0_5_2">
<rect width="277" height="247" fill="white"/>
</clipPath>
</defs>
</svg>
