<svg width="270" height="253" viewBox="0 0 270 253" fill="none" xmlns="http://www.w3.org/2000/svg">
<g clip-path="url(#clip0_7_88)">
<path d="M60.9951 173.87C59.6771 174.53 56.0421 178.126 52.9351 179.682C49.8271 181.237 45.2631 183.537 37.1201 191.017C28.9771 198.498 20.2151 206.391 18.3331 209.728C16.4511 213.065 16.7751 217.371 18.4941 220.743C20.2151 224.113 25.4741 227.865 27.0741 229.197C28.6741 230.529 30.0691 230.643 31.9161 230.162C33.7631 229.681 112.101 194.421 143.794 176.307C175.486 158.193 157.916 155.43 151.513 154.174C145.11 152.918 173.475 124.079 167.742 112.69C162.008 101.302 136.835 99.893 131.067 102.634C125.299 105.375 75.3131 160.334 71.0801 164.827C66.8471 169.319 62.3131 173.21 60.9951 173.87Z" fill="#ECEEEF"/>
<path d="M131.066 102.632C136.834 99.892 162.007 101.3 167.742 112.688C173.474 124.078 145.109 152.916 151.512 154.172L154.701 154.828C161.73 156.472 170.665 160.562 145.416 175.366L143.793 176.305C112.101 194.419 33.762 229.679 31.915 230.16C30.068 230.641 28.673 230.526 27.073 229.195L24.07 226.792C23.564 226.373 23.036 225.923 22.513 225.452C18.947 218.784 18.58 213.921 21.407 210.854C27.193 204.578 52.341 191.996 66.254 183.605L67.752 182.69C81.274 174.325 94.971 167.874 99.927 165.568C104.685 163.354 102.57 160.628 94.07 164.343C85.57 168.058 82.399 167.855 77.197 167.774C75.553 167.749 74.131 165.889 71.911 163.933L91.576 142.626C107.579 125.403 127.548 104.305 131.066 102.632Z" fill="#DADEE0"/>
<path d="M131.066 102.632C136.834 99.892 162.007 101.3 167.742 112.688C173.474 124.078 145.109 152.916 151.512 154.173L154.701 154.829C161.73 156.473 170.665 160.563 145.416 175.367L143.793 176.306C114.33 193.146 44.551 224.805 33.397 229.561C24.524 221.241 22.662 216.242 28.136 212.641C33.248 209.279 48.853 202.519 62.223 195.9C75.593 189.281 80.917 186.952 90.96 181.922C101.003 176.892 106.608 172.059 109.654 168.024C114.006 162.26 105.055 155.836 103.656 156.792C102.257 157.748 96.309 161.491 92.486 164.237C88.663 166.984 80.724 169.568 76.27 168.822C74.709 168.561 76.699 162.622 80.581 154.515L100.239 133.344C114.069 118.609 128.164 104.012 131.066 102.632Z" fill="#CDD1D2"/>
<path d="M107.214 148.131C110.969 145.981 128.934 147.56 131.164 151.768C133.394 155.976 148.791 171.651 141.194 177.322L139.013 178.871C138.778 179.033 138.531 179.203 138.271 179.381L134.61 181.353C101.862 198.801 43.5141 225.249 33.3981 229.563C32.2031 228.443 31.1361 227.383 30.1961 226.379C29.5891 223.862 31.6121 220.551 40.8581 215.765L44.9751 213.718C64.9161 203.936 107.895 183.668 113.136 179.2C118.633 174.514 115.168 167.959 117.804 164.598C120.44 161.237 117.877 159.84 113.899 160.042C109.922 160.244 105.837 155.041 105.426 154.934C105.015 154.826 104.124 155.347 103.489 155.79C101.936 156.873 98.7481 159.36 95.7671 161.735L93.8021 163.06C91.9061 164.305 90.2681 165.262 89.3541 165.508C86.1281 166.374 103.459 150.28 107.214 148.131Z" fill="#BBC2C5"/>
<path d="M131.066 102.632C136.834 99.892 162.007 101.3 167.742 112.688C173.474 124.078 145.109 152.916 151.512 154.172L154.701 154.828C161.73 156.472 170.665 160.562 145.416 175.366L143.793 176.305C112.101 194.419 33.762 229.679 31.915 230.16C30.068 230.641 28.6731 230.526 27.0731 229.195L24.6711 227.283C23.6551 226.461 22.5011 225.485 21.4381 224.445L20.3691 222.608C19.8881 221.761 19.4991 221.039 19.2531 220.535C17.9901 217.911 18.3421 216.401 19.8731 218.715L20.219 219.27C22.038 222.349 27.29 227.082 27.784 227.246C28.231 227.395 36.5741 222.673 43.5241 219.309L65.8711 208.828C76.2061 203.917 87.8111 198.298 94.8411 194.585L96.1841 193.869C108.545 187.205 126.278 176.217 125.11 175.233L123.989 174.018C121.844 171.571 119.441 168.07 120.577 166.174L123.517 161.563C125.325 158.691 127.148 155.559 126.779 154.826C126.164 153.605 118.999 158.326 114.273 158.446C109.547 158.566 107.177 151.783 104.765 153.582C102.353 155.381 91.123 164.869 88.98 166.014C86.8371 167.159 84.4751 168.019 83.8711 169.263C83.2671 170.507 87.051 170.276 88.109 170.258C89.167 170.24 91.1801 172.08 90.9611 174.335C90.7421 176.59 88.1151 181.573 84.8341 183.093C81.5531 184.613 78.413 185.674 77.176 184.131C76.351 183.103 76.0241 181.772 76.1951 180.139L72.9321 180.607C71.5741 180.782 67.0101 178.327 65.9491 178.231C64.8881 178.135 59.289 178.193 57.536 178.429C56.0751 178.626 55.2051 179.284 54.1081 179.16L53.9381 179.118C56.4701 177.582 59.1441 175.092 60.5351 174.144L60.993 173.865C62.1231 173.3 65.6151 170.36 69.2551 166.702L71.077 164.821C75.312 160.332 125.298 105.374 131.066 102.632Z" fill="#9998A7"/>
<path d="M148.637 123.321C151.382 123.189 155.062 119.013 153.999 116.26C152.936 113.507 144.393 111.705 141.854 111.839C139.315 111.973 137.366 113.027 140.179 116.322C142.992 119.617 145.892 123.453 148.637 123.321Z" fill="#A3857C"/>
<path d="M142.651 114.518C145.854 115.049 150.485 115.532 151.157 116.932C151.829 118.332 150.82 119.883 148.356 120.066C145.891 120.25 141.518 113.384 139.813 113.294C138.109 113.203 133.34 113.85 134.583 116.409C135.825 118.968 147.67 125.333 148.869 125.855C150.067 126.377 156.673 122.62 156.723 120.293C156.773 117.966 158.722 113.252 153.821 112.247C148.92 111.241 139.449 113.987 142.651 114.518Z" fill="#967D73"/>
<path d="M131.973 147.272C132.77 146.561 136.188 143.134 139.105 139.646C139.676 138.963 137.791 137.703 139.124 136.162C140.457 134.621 141.855 136.224 142.23 135.66C142.584 135.127 142.623 135.213 142.858 134.756C143.01 134.492 142.065 133.629 142.442 132.51C142.819 131.392 143.483 131.031 143.455 130.648C143.26 128.017 139.201 126.521 137.975 125.822C136.551 125.01 130.709 125.226 128.458 127.346C126.207 129.466 121.695 134.557 124.125 135.186C126.555 135.815 129.36 135.849 131.121 139.492C132.882 143.135 130.5 148.587 131.973 147.272Z" fill="#BBBCC1"/>
<path d="M174.07 72.977C166.107 77.43 159.844 84.144 167.058 89.52C171.868 93.104 178.346 97.222 186.492 101.874L222.114 71.16C222.04 70.663 221.977 70.381 221.926 70.313C217.755 64.788 215.01 61.467 213.27 59.192C211.498 56.875 208.321 53.124 203.739 47.939C200.277 54.145 196.471 58.857 192.321 62.078C186.097 66.909 182.034 68.524 174.07 72.977Z" fill="#65656E"/>
<path d="M205.028 58.404C204.901 59.927 203.972 61.971 200.836 64.964C197.7 67.958 184.966 73.619 180.742 78.141C176.518 82.663 176.306 85.988 178.152 87.361C179.998 88.734 193.828 74.987 197.653 70.808C201.478 66.629 203.116 64.92 205.145 64.415C207.173 63.91 210.695 65.322 209.702 63.648C208.707 61.974 205.155 56.881 205.028 58.404Z" fill="#737378"/>
<path d="M203.74 47.939L206.321 50.878C208.733 53.645 210.64 55.896 212.04 57.63L218.824 66.261C219.758 67.463 220.79 68.806 221.927 70.313L221.982 70.452L222.115 71.16L186.493 101.874C183.02 99.891 179.849 98.004 176.983 96.215C177.08 94.097 177.662 92.042 178.149 92.166C178.953 92.371 181.116 91.007 181.686 90.396L192.678 77.805C197.274 72.565 201.811 67.455 202.931 66.422C204.619 64.864 205.968 64.816 207.164 65.062L210.982 66.009C212.467 66.356 214.014 66.699 214.431 66.739C215.061 66.799 208.377 60.647 205.815 56.994L205.408 56.377C203.251 52.852 201.99 55.757 201.197 57.4C200.404 59.043 187.421 70.761 178.303 76.529C171.236 80.999 172.033 89.22 172.988 93.658C170.781 92.201 168.81 90.827 167.06 89.523C159.845 84.147 166.108 77.433 174.072 72.98C182.035 68.527 186.099 66.912 192.323 62.081C196.471 58.858 200.277 54.145 203.74 47.939Z" fill="#504F51"/>
<path d="M138.899 175.361C130.934 174.938 123.881 171.401 122.225 168.617C120.569 165.833 120.43 162.168 122.742 159.762C125.054 157.356 146.744 133.595 150.119 128.954C153.493 124.313 157.271 118.804 156.15 115.495C155.029 112.186 149.465 111.879 144.801 111.987C140.137 112.095 133.39 111.487 130.244 111.805C127.098 112.123 130.822 90.936 131.71 85.795C132.597 80.654 132.981 77.389 142.89 73.199C152.798 69.009 163.216 68.035 168.783 66.116C174.349 64.196 182.858 60.917 182.392 56.572C181.926 52.228 181.437 45.345 182.477 40.266C183.517 35.187 185.352 33.574 187.132 32.587C188.912 31.6 189.958 31.491 190.321 31.896C190.684 32.301 191.255 32.605 191.261 33.001C191.267 33.397 190.917 34.549 191.108 35.22C191.299 35.891 196.181 40.906 198.131 42.69C200.081 44.473 204.822 47.266 205.396 47.792C205.97 48.318 207.369 49.731 206.899 50.222C206.429 50.713 205.277 50.952 204.953 51.833C204.629 52.714 204.753 57.641 202.251 61.671C199.749 65.7 182.19 73.614 178.311 75.66C174.432 77.705 170.619 81.589 171.567 86.027C172.515 90.465 181.515 92.273 186.333 93.613C191.151 94.953 212.705 105.106 213.043 107.852C213.381 110.598 185.434 141.326 174.48 150.578C163.526 159.83 146.864 175.785 138.899 175.361Z" fill="#BAB3DD"/>
<path d="M139.718 174.494C131.753 174.071 125.623 170.897 123.967 168.113C122.311 165.329 122.367 162.232 124.679 159.826C126.991 157.42 148.714 133.991 152.089 129.35C155.463 124.709 158.719 118.407 157.598 115.097C156.477 111.788 151.373 110.811 146.71 110.918C142.047 111.025 133.85 110.815 130.705 111.133C127.56 111.451 130.823 90.934 131.711 85.793C132.598 80.652 132.982 77.387 142.891 73.197C152.799 69.007 163.217 68.033 168.784 66.114C174.35 64.194 182.859 60.915 182.393 56.57C181.927 52.226 181.438 45.343 182.478 40.264C183.518 35.185 185.353 33.572 187.133 32.585C188.913 31.598 189.959 31.489 190.322 31.894C190.685 32.299 191.256 32.603 191.262 32.999C191.268 33.395 190.918 34.547 191.109 35.218C191.3 35.889 196.182 40.904 198.132 42.688C200.082 44.471 204.823 47.264 205.397 47.79C205.971 48.316 206.811 49.05 206.341 49.541C205.871 50.032 204.719 50.271 204.395 51.152C204.071 52.033 204.195 56.96 201.693 60.99C199.191 65.019 181.632 72.933 177.753 74.979C173.874 77.025 170.061 80.908 171.009 85.346C171.957 89.784 180.446 92.068 185.264 93.409C190.082 94.749 212.195 105.581 212.533 108.327C212.871 111.073 185.435 141.324 174.481 150.576C163.527 159.828 147.683 174.917 139.718 174.494Z" fill="#7756D3"/>
<path d="M129.889 163.855C130.381 168.822 137.82 169.129 141.263 170.662C143.074 171.469 145.945 171.736 148.45 171.394C145.073 173.406 142.055 174.618 139.717 174.494C131.752 174.071 125.622 170.897 123.966 168.113C122.31 165.329 122.366 162.232 124.678 159.826L132.669 151.227C134.984 148.712 137.557 145.902 140.063 143.14C133.93 151.863 129.571 160.64 129.889 163.855ZM204.761 102.606L203.344 100.944C206.219 104.271 208.9 107.508 211.385 110.655C206.279 118.221 185.635 140.76 175.59 149.618L174.48 150.578C168.332 155.771 160.644 162.802 153.674 167.897L154.252 165.946C156.562 157.77 161.768 136.32 165.462 129.539C168.342 124.254 180.715 114.878 202.583 101.412C203.335 101.812 204.061 102.212 204.761 102.606ZM142.517 73.357L142.28 73.744C137.817 81.188 141.877 84.435 145.036 87.061C148.775 90.17 149.01 99.158 161.398 102.282L162.666 102.736C171.934 105.558 162.751 117.67 153.063 127.956C156.052 123.513 158.608 118.084 157.596 115.096C156.555 112.023 152.08 110.961 147.712 110.911L143.865 110.949C139.23 110.965 133.276 110.872 130.702 111.132C127.79 111.427 130.372 93.858 131.475 87.173L131.965 84.322C132.755 80.06 133.926 77.06 142.517 73.357Z" fill="#7152CB"/>
<path d="M166.243 100.61C177.135 102.859 182.114 109.376 174.869 120.704C170.382 127.718 153.576 140.849 124.45 160.095L135.375 148.282C141.811 141.257 149.174 133.095 151.658 129.917L152.088 129.35C155.462 124.709 158.718 118.407 157.597 115.097C156.556 112.024 152.081 110.962 147.713 110.912L143.866 110.95C139.231 110.966 133.277 110.873 130.703 111.133C129.248 111.28 130.195 100.04 130.614 94.853C136.992 98.136 142.574 99.829 147.36 99.933C154.54 100.088 161.168 99.562 166.243 100.61ZM140.186 82.557L142.273 82.375C150.758 81.835 164.256 83.1 163.996 86.358C163.765 89.255 141.361 90.609 130.619 92.712L131.463 87.259L132.029 83.997C135.452 83.226 138.315 82.771 140.186 82.557Z" fill="#674DC5"/>
<path d="M185.919 33.41C189.251 37.699 191.445 40.955 192.5 43.179L194.374 47.714C196.387 52.814 198.548 59.629 195.503 63.052C191.588 67.453 182.541 70.06 175.68 73.412C168.819 76.764 162.858 81.076 157.518 81.208C152.179 81.341 147.554 80.818 143.127 80.997C140.818 81.09 136.902 83.356 131.381 87.794L131.97 84.305C132.768 79.991 133.971 76.969 142.889 73.198C152.797 69.008 163.215 68.034 168.782 66.115L171.755 65.043C176.935 63.072 182.779 60.192 182.391 56.571C181.925 52.227 181.436 45.344 182.476 40.265C183.256 36.455 184.483 34.596 185.799 33.488L185.919 33.41Z" fill="#DFA76D"/>
<path d="M183.384 37.09C185.577 36.645 187.168 37.114 187.895 38.815C192.542 49.684 192.625 55.508 188.777 62.325C185.143 68.764 174.913 70.538 165.593 74.03L163.959 74.665C154.231 78.6 144.263 78.286 141.14 79.599C139.248 80.395 136.387 82.725 132.559 86.589L131.381 87.794L131.97 84.305L132.261 82.912C133.131 79.31 134.962 76.55 142.889 73.198C152.797 69.008 163.215 68.034 168.782 66.115L171.755 65.043L173.715 64.262C178.298 62.341 182.73 59.739 182.391 56.572C181.925 52.228 181.436 45.345 182.476 40.266C182.649 39.419 182.845 38.669 183.058 38.002L183.384 37.09Z" fill="#F4C782"/>
<path d="M190.32 31.895C190.683 32.3 191.254 32.604 191.26 33C191.265 33.297 191.069 34.019 191.051 34.645L191.315 35.658L190.3 37.689C189.197 39.992 188.796 42.345 189.367 45.754C190.03 49.711 189.603 54.238 186.345 59.106C183.087 63.974 178.059 66.956 169.178 69.569C165.821 70.452 161.978 71.506 157.649 72.729C151.156 74.564 147.505 75.773 144.201 77.064C139.574 78.871 137.114 81.174 134.573 83.607C133.959 84.195 132.73 83.744 132.123 83.571L132.45 82.224C133.394 78.95 135.475 76.333 142.89 73.198C152.798 69.008 163.216 68.034 168.783 66.115L171.756 65.043C176.936 63.072 182.78 60.192 182.392 56.571C181.926 52.227 181.437 45.344 182.477 40.265C183.517 35.186 185.352 33.573 187.132 32.586C188.91 31.599 189.957 31.49 190.32 31.895Z" fill="#9F4C0B"/>
<path d="M190.32 31.895C190.683 32.3 191.254 32.604 191.26 33C191.265 33.297 191.069 34.019 191.051 34.645L191.107 35.219L190.092 37.25C188.989 39.553 188.246 41.726 188.68 44.841C189.237 48.846 189.209 54.273 185.381 59.142C181.792 63.706 177.69 66.413 168.809 69.026L158.684 71.845C152.191 73.68 146.845 75.302 143.54 76.593C138.913 78.4 136.561 80.568 134.02 83.001C133.406 83.589 132.731 83.743 132.124 83.571L132.451 82.224C133.395 78.95 135.476 76.333 142.891 73.198C152.799 69.008 163.217 68.034 168.784 66.115L171.757 65.043C176.937 63.072 182.781 60.192 182.393 56.571C181.927 52.227 181.438 45.344 182.478 40.265C183.518 35.186 185.353 33.573 187.133 32.586C188.91 31.599 189.957 31.49 190.32 31.895Z" fill="#FBD47F"/>
<path d="M190.32 31.895C190.683 32.3 191.254 32.604 191.26 33C191.265 33.297 191.069 34.019 191.051 34.645L191.107 35.219L190.092 37.25C188.989 39.553 188.246 41.726 188.68 44.841C189.237 48.846 189.209 54.273 185.381 59.142C181.792 63.706 177.69 66.413 168.809 69.026L158.684 71.845L154.535 73.036C149.916 74.385 146.11 75.589 143.54 76.593C138.913 78.4 136.561 80.568 134.02 83.001C133.789 83.223 133.549 83.383 133.307 83.487C134.29 81.621 136.144 78.827 139.649 77.025C144.82 74.366 155.896 70.931 163.856 69.128L165.633 68.742C173.631 67.087 179.684 63.784 182.977 60.841C186.27 57.898 187.953 51.631 188.021 48.813C188.09 45.995 185.807 42.414 187.622 38.251C189.035 35.011 189.376 32.896 188.794 31.834C189.589 31.589 190.09 31.64 190.32 31.895Z" fill="#F4AA5A"/>
<path d="M191.436 100.556L177.165 93.433C174.462 92.057 172.882 91.181 172.014 90.561C168.06 87.737 166.658 82.251 170.428 78.117C172.509 75.835 176.106 73.514 182.011 70.392L191.977 65.271L192.535 64.975C198.47 61.807 201.485 58.046 202.053 53.878L202.141 52.909C202.29 49.66 202.984 47.909 204.565 47.907C204.958 47.906 205.278 48.225 205.279 48.618C205.279 48.913 205.1 49.167 204.845 49.275L204.568 49.331C204.129 49.332 203.68 50.462 203.565 52.973C203.331 58.073 200.013 62.598 193.207 66.231L184.335 70.785C177.587 74.274 173.596 76.758 171.482 79.076C168.362 82.497 169.519 87.025 172.843 89.4C173.618 89.954 175.109 90.781 177.628 92.067L190.936 98.702L197.018 101.844C205.568 106.382 208.3 114.934 206.167 120.358C204.942 123.472 160.53 164.465 155.115 167.461C151.496 169.463 146.934 171.737 140.906 174.314L132.826 171.612C130.007 170.647 128.214 169.995 127.436 169.652C124.301 168.269 122.693 163.395 125.773 160.355L128.846 157.179C136.22 149.399 151.891 132.234 154.779 128.505C159.381 122.564 161.456 117.583 160.202 114.39C158.42 109.849 156.299 108.4 149.589 108.452L144.77 108.539C140.053 108.664 134.179 108.917 127.151 109.296C122.465 109.549 124.821 108.441 134.218 105.972C140.395 105.687 145.537 105.752 149.423 105.676C157.168 105.526 160.983 107.51 162.806 113.308C164.046 117.252 163.016 123.39 157.746 129.65L154.807 130.722C149.27 137.3 130.805 157.388 126.775 161.367C124.492 163.621 125.716 167.333 128.012 168.346L129.277 168.848C131.343 169.626 135.288 171.004 140.83 172.988L145.293 170.884C148.82 169.186 151.864 167.629 154.426 166.212C159.579 163.362 203.763 122.579 204.842 119.834C206.719 115.06 204.236 107.285 196.351 103.1L194.925 102.349C193.815 101.774 192.659 101.178 191.436 100.556Z" fill="#5A37B5"/>
<path d="M134.216 105.975C140.393 105.69 145.535 105.755 149.421 105.679C157.166 105.529 160.981 107.513 162.804 113.311C164.044 117.255 163.014 123.393 157.744 129.653L154.805 130.725L152.238 133.697C151.45 134.594 151.033 135.005 150.096 136.055C149.992 136.213 151.845 138.758 150.306 139.887C148.767 141.016 147.584 138.934 147.398 139.105C147.113 139.46 146.856 139.736 146.305 140.346C146.151 140.566 148.183 142.423 146.735 143.996C145.287 145.569 143.625 143.268 143.221 143.712C140.284 146.942 137.773 149.698 135.026 152.66C131.026 156.179 127.291 159.624 124.404 162.554C124.65 161.769 125.098 161.019 125.77 160.356L128.843 157.18L137.78 147.576C144.937 139.79 152.812 131.042 154.776 128.506C159.378 122.565 161.453 117.584 160.199 114.391C158.417 109.85 156.296 108.401 149.586 108.453L144.767 108.54L141.012 108.658C138.364 108.752 135.428 108.879 132.202 109.037L127.147 109.298C122.464 109.553 124.819 108.445 134.216 105.975Z" fill="#4A27A6"/>
<path d="M140.569 136.846L140.847 136.78C141.875 136.652 144.655 139.676 145.602 141.062C146.549 142.447 146.618 143.061 145.944 143.546C145.27 144.031 144.396 143.072 143.981 142.252C143.565 141.432 141.66 139.654 141.218 139.306C140.776 138.958 140.333 138.976 140.075 138.492C139.816 138.008 139.821 136.908 140.848 136.78L140.569 136.846ZM144.285 132.565L144.563 132.499C145.591 132.371 148.371 135.395 149.318 136.781C150.265 138.166 150.334 138.78 149.66 139.265C148.986 139.75 148.112 138.791 147.697 137.971C147.281 137.151 145.376 135.373 144.934 135.025C144.492 134.677 144.049 134.695 143.791 134.211C143.532 133.727 143.537 132.627 144.564 132.499L144.285 132.565Z" fill="#9053DC"/>
<path d="M140.468 136.889L140.848 136.779C141.349 136.717 142.267 137.404 143.185 138.285L142.166 140.165L141.443 139.494C141.349 139.412 141.273 139.347 141.218 139.304C140.776 138.956 140.333 138.974 140.075 138.49C139.89 138.144 139.84 137.484 140.2 137.089L140.468 136.889ZM144.009 132.323L144.388 132.205C144.802 132.154 145.529 132.661 146.311 133.376C145.905 133.919 145.496 134.506 145.083 135.136L144.934 135.024C144.492 134.676 143.898 134.549 143.639 134.065C143.454 133.719 143.391 132.983 143.744 132.544L144.009 132.323Z" fill="#8343D1"/>
<path d="M148.783 129.051C150.277 129.327 151.863 129.077 153.322 128.035C154.781 126.993 157.192 124.273 158.438 121.623C159.684 118.973 159.762 117.978 159.913 116.43C160.064 114.882 157.536 110.536 155.269 109.775C153.002 109.014 155.71 110.541 156.63 113.053C157.549 115.565 157.028 120.501 155.319 122.974C153.611 125.447 147.29 128.775 148.783 129.051Z" fill="#8A532D"/>
<path d="M150.879 129.007C151.989 128.766 154.593 126.577 156.359 124.016C158.125 121.455 159.563 117.47 159.553 116.152C159.543 114.834 157.502 110.005 153.833 109.238C150.164 108.471 137.879 109.076 135.682 109.346C134.218 109.526 133.138 109.667 132.442 109.768C137.638 112.482 140.549 113.926 141.173 114.1C142.11 114.362 144.901 114.486 147.175 114.63C149.449 114.774 152.644 114.27 153.361 115.8C154.078 117.33 153.569 117.977 153.144 118.835C152.719 119.693 151.067 122.217 149.899 122.725C148.731 123.234 147.15 122.643 145.798 121.539C144.446 120.435 143.015 118.334 140.961 117.466C139.592 116.887 138.524 116.335 137.759 115.81L129.677 110.097L122.555 120.863C127.26 121.858 130.246 122.338 131.513 122.304C133.413 122.253 134.498 122.008 135.28 122.221C136.062 122.434 139.039 122.876 139.402 123.459C139.765 124.042 140.082 124.765 140.555 125.07C141.028 125.375 144.339 127.187 146.38 128.291C148.419 129.395 149.769 129.248 150.879 129.007Z" fill="#C28D59"/>
<path d="M122.555 120.863L129.677 110.097L137.759 115.81C137.891 115.9 138.032 115.992 138.181 116.084C133.973 117.122 131.224 118.226 129.938 119.396C129.003 120.246 128.924 121.172 129.701 122.174C128.333 121.998 126.384 121.652 123.863 121.136L122.555 120.863ZM132.442 109.768L135.682 109.346C136.712 109.219 139.958 109.019 143.494 108.922C142.431 110.775 142.045 111.971 142.329 112.51C142.628 113.077 143.173 113.717 143.963 114.428L142.601 114.318C141.983 114.257 141.479 114.186 141.172 114.101L140.669 113.908C139.515 113.409 136.772 112.029 132.442 109.768Z" fill="#BD7E59"/>
<path d="M132.457 121.423C130.599 121.018 129.892 120.406 131.27 120.319C132.648 120.232 137.712 121.815 138.443 122.121C139.174 122.427 141.284 124.08 143.052 125.321L143.645 125.755C145.192 126.949 148.03 128.713 150.376 128.158C152.722 127.603 154.67 125.302 155.873 123.418C157.076 121.533 159.345 117.683 158.678 114.697C158.387 113.396 157.51 111.633 155.955 110.22C158.279 111.902 159.545 115.114 159.553 116.152C159.563 117.471 158.124 121.455 156.359 124.016C154.594 126.577 151.99 128.766 150.879 129.007C149.769 129.248 148.418 129.395 146.378 128.291L140.553 125.07C140.316 124.917 140.119 124.66 139.936 124.369L139.401 123.459C139.038 122.876 136.062 122.434 135.279 122.221C134.92 122.123 134.497 122.122 133.961 122.154L133.088 121.669C132.837 121.544 132.626 121.46 132.457 121.423Z" fill="#E1AE86"/>
<path d="M142.488 118.386C143.776 119.388 144.728 120.507 145.718 121.316C147.07 122.42 148.641 122.826 149.809 122.317C150.831 121.872 152.163 120.286 152.78 119.222L152.994 118.829C153.419 117.971 153.633 116.686 153.362 115.801C153.285 115.549 153.081 115.377 152.864 115.227C153.556 115.512 154.079 116.051 154.194 116.602C154.469 117.921 153.905 119.412 151.918 121.708C149.931 124.004 148.215 123.531 146.539 122.56C145.868 122.171 145.172 121.481 144.487 120.716L142.488 118.386ZM136.745 122.526L135.279 122.22C134.497 122.007 133.412 122.252 131.512 122.303C130.499 122.33 128.385 122.028 125.171 121.397L122.554 120.862L123.809 118.988L129.462 120.697C130.022 120.903 133.241 121.2 134.645 121.577C135.217 121.731 135.962 122.074 136.745 122.526Z" fill="#925728"/>
<path d="M127.364 49.821C126.529 49.404 124.839 49.763 123.464 50.998C122.089 52.233 115.054 66.14 113.916 67.596C113.643 68.034 113.46 68.415 113.367 68.74C112.617 69.017 112.033 69.737 111.615 70.9C110.988 72.645 105.623 82.311 104.83 84.652C104.037 86.993 100.536 94.153 100.297 94.817C100.058 95.481 93.7771 107.992 92.4881 111.41C91.2001 114.828 91.1241 116.411 90.5841 117.81C90.0441 119.209 88.1531 122.337 87.5381 123.539C86.9241 124.74 84.2191 125.938 83.7801 127.05C83.3411 128.162 82.4581 128.991 81.4291 130.382C80.4001 131.773 77.1351 137.494 76.1391 139.485C75.1431 141.476 73.4551 145.873 71.9001 148.99C70.3461 152.107 69.6751 152.28 68.4541 155.29C67.2331 158.301 66.0941 161.761 65.8871 162.778C65.6801 163.795 64.0751 166.066 63.1791 167.789C62.2831 169.512 62.1581 171.239 60.4541 172.568C58.7501 173.897 57.8361 175.949 60.5631 175.948C63.2901 175.947 78.8101 170.026 83.1001 167.617C87.3901 165.207 91.9841 160.223 95.4841 157.922C98.9841 155.621 104.892 151.01 108.148 147.965C111.404 144.92 119.493 134.693 123.451 128.923C127.409 123.153 131.229 116.246 131.562 115.264C131.784 114.61 131.146 112.773 129.649 109.753C133.985 109.11 136.289 108.646 136.559 108.362C136.964 107.936 145.751 93.046 146.392 91.593C147.033 90.14 146.979 87.512 142.522 84.781C138.065 82.05 128.711 72.162 127.569 66.079C126.427 59.995 128.88 53.925 128.961 53.055C129.041 52.185 128.199 50.237 127.364 49.821Z" fill="#A089E5"/>
<path d="M127.364 49.821C126.529 49.404 124.839 49.763 123.464 50.998C122.089 52.233 115.054 66.14 113.916 67.596C113.643 68.034 113.46 68.415 113.367 68.74C112.617 69.017 112.033 69.737 111.615 70.9C110.988 72.645 105.623 82.311 104.83 84.652C104.037 86.993 100.536 94.153 100.297 94.817C100.058 95.481 93.777 107.992 92.488 111.41C91.2 114.828 91.124 116.411 90.584 117.81C90.044 119.209 88.153 122.337 87.538 123.539C86.924 124.74 84.219 125.938 83.78 127.05C83.341 128.162 82.458 128.991 81.429 130.382C80.4 131.773 77.135 137.494 76.139 139.485C75.143 141.476 73.455 145.873 71.9 148.99C70.346 152.107 69.675 152.28 68.454 155.29C67.233 158.301 66.094 161.761 65.887 162.778C65.68 163.795 64.075 166.066 63.179 167.789C62.283 169.512 62.158 171.239 60.454 172.568C58.75 173.897 57.13 175.379 59.857 175.378C62.584 175.377 78.305 169.271 82.595 166.861C86.885 164.451 91.479 159.467 94.979 157.166C98.479 154.865 104.387 150.254 107.643 147.209C110.899 144.164 118.988 133.937 122.946 128.167C126.904 122.397 130.456 115.895 130.789 114.914C131.011 114.26 130.373 112.423 128.876 109.403C133.36 108.741 135.737 108.269 136.007 107.985C136.412 107.559 144.65 92.897 145.292 91.444C145.933 89.991 145.427 87.831 140.97 85.1C136.513 82.369 128.259 72.631 127.116 66.547C125.973 60.463 128.391 53.146 128.472 52.276C128.552 51.406 128.199 50.237 127.364 49.821Z" fill="#AA7EF7"/>
<path d="M127.121 66.574C128.21 72.279 135.517 81.173 140.093 84.509L140.969 85.1C145.426 87.831 145.932 89.991 145.291 91.444L144.854 92.31C143.002 95.826 136.369 107.604 136.006 107.985C135.736 108.269 133.359 108.741 128.875 109.403C130.372 112.422 131.01 114.259 130.788 114.914L130.518 115.529C129.561 117.51 126.408 123.118 122.945 128.168C118.987 133.938 110.898 144.165 107.642 147.21C104.386 150.255 98.4781 154.866 94.9781 157.167C91.4781 159.468 86.8841 164.453 82.5941 166.862C80.1671 168.226 74.0791 170.773 68.7571 172.728C69.2461 171.223 68.7991 169.253 70.2911 168.226L71.0761 167.749C77.7431 164.195 76.9641 153.547 81.5731 148.06C86.1821 142.573 88.6921 138.109 89.4011 134.938C90.1101 131.767 89.3151 129.385 90.9721 123.616L97.0171 115.397C101.242 109.575 104.001 105.559 105.292 103.35C108.037 98.657 111.219 84.687 114.209 84.417C117.199 84.147 120.645 82.916 121.383 79.83C121.684 78.573 122.726 76.086 124.131 72.992L127.121 66.574Z" fill="#8459EB"/>
<path d="M140.093 84.509L140.969 85.1C145.426 87.831 145.932 89.991 145.291 91.444L144.854 92.31L140.797 99.678C138.528 103.724 136.216 107.764 136.007 107.985C135.737 108.269 133.36 108.741 128.876 109.403C130.373 112.422 131.011 114.259 130.789 114.914L130.519 115.529L129.928 116.686C128.706 118.992 126.357 123.064 123.739 126.995L122.946 128.168C118.988 133.938 110.899 144.165 107.643 147.21C104.387 150.255 98.4791 154.866 94.9791 157.167C91.4791 159.468 86.8851 164.453 82.5951 166.862C80.1681 168.226 74.0801 170.773 68.7581 172.728C69.2471 171.223 70.2641 169.781 71.7551 168.754L72.5401 168.277C73.6191 167.702 74.5801 166.992 75.4531 166.185L81.7311 162.216C83.7811 160.901 85.2781 159.912 86.2211 159.248C90.7681 156.043 108.309 133.889 111.664 126.031C115.018 118.174 105.836 118.905 107.404 114.222C108.972 109.539 119.691 101.728 122.03 98.103L123.171 96.236C125.397 92.477 129.564 85.011 133.297 77.697C135.581 80.541 138.097 83.054 140.093 84.509Z" fill="#784DDE"/>
<path d="M77.7761 143.014C78.3541 143.59 78.8321 144.686 79.2091 146.303L79.4231 147.335C79.9701 150.29 81.0251 154.109 81.1911 155.797L81.2111 156.277C81.1561 157.585 81.5161 158.877 81.8461 159.414C82.1761 159.952 82.5311 162.705 82.6661 163.685C82.7561 164.338 82.8241 165.158 82.8721 166.144L82.4011 164.074C82.2721 163.45 82.1701 162.891 82.0961 162.397L82.0051 161.706C81.9051 160.789 81.8491 160.547 81.6831 160.367L81.0561 159.81C80.4261 159.164 79.9721 158.934 80.0461 159.367L80.3661 160.351C80.7371 161.564 81.2461 163.575 80.9281 163.203L80.5391 162.662C80.1971 162.148 79.6911 161.325 79.0201 160.195C78.2641 159.069 77.8881 158.317 77.8911 157.94L78.1301 155.141C78.2671 153.143 78.3231 150.574 77.8111 149.106L76.2251 144.642L77.7761 143.014Z" fill="#4433A5"/>
<path d="M92.654 121.855C95.545 120.115 99.15 121.022 104.738 120.708C109.909 120.417 120.995 122.449 125.712 123.945C124.835 125.331 123.901 126.77 122.944 128.166C119.25 133.552 111.957 142.82 108.354 146.507L107.641 147.208C107.489 147.35 107.332 147.495 107.169 147.644C104.034 149.377 101.754 150.066 100.306 149.723C97.86 149.144 90.14 143.917 87.107 142.631C84.074 141.345 76.921 140.354 76.875 140.374L79.599 136.744C79.804 136.474 80.02 136.189 80.248 135.888L87.309 137.567C92.298 138.725 99.104 142.012 100.528 142.467C101.952 142.922 104.846 137.458 105.53 135.164C106.161 133.046 103.131 131.317 99.544 129.54L98.638 129.095C95.116 127.374 92.968 126.579 90.531 126.51L89.601 126.518C86.749 126.64 89.764 123.595 92.654 121.855Z" fill="#694ABE"/>
<path d="M66.5139 161.216C67.8609 161.39 69.7169 161.282 69.6299 161.671C69.5419 162.059 69.4329 162.608 69.2569 162.978C69.0809 163.348 66.4549 164.469 64.9569 165.13L64.6389 165.275C65.2439 164.264 65.7749 163.333 65.8879 162.777C65.9519 162.462 66.1069 161.91 66.3249 161.21C66.3949 161.203 66.4549 161.209 66.5139 161.216ZM101.774 129.755C102.741 129.282 105.017 129.047 106.06 129.054C107.103 129.06 107.139 129.463 107.143 130.169C107.147 130.876 106.118 131.109 105.765 131.179C105.412 131.249 103.177 131.567 102.756 131.718C102.335 131.869 101.758 132.551 101.899 132.626C102.04 132.701 102.689 132.577 103.287 132.78C103.885 132.983 103.469 134.308 103.186 134.575C102.903 134.842 100.544 134.896 99.4419 134.99C98.3399 135.084 98.2619 135.78 98.9179 135.631C99.5739 135.482 100.021 136.227 100.168 136.441C100.316 136.655 100.198 137.796 99.6539 137.876C99.1099 137.957 95.5229 138.654 95.2199 138.715C94.9169 138.776 94.9109 139.195 95.6929 139.01C96.4749 138.825 96.4359 139.804 96.4789 140.262C96.5209 140.719 93.7839 141.272 93.2059 141.341C92.7009 141.402 92.4119 141.591 92.6329 142.132L92.8909 142.646C93.2119 143.37 93.2929 144.303 92.9879 144.462C92.6449 144.64 89.3209 145.669 88.3679 145.862C87.4149 146.055 87.2439 144.272 87.8279 144.032C88.4119 143.792 91.6389 142.547 92.0069 142.499C92.3749 142.452 91.8139 142.126 91.4159 142.007C91.0179 141.888 90.7369 141.435 90.8139 140.774C90.8909 140.113 92.8609 139.266 93.6299 139.155C94.3979 139.044 94.4809 139.024 94.1589 138.318C93.8379 137.612 94.5319 136.725 95.1389 136.495C95.7459 136.265 97.6039 136.087 97.9429 135.904C98.2819 135.721 98.2279 135.079 97.8639 134.644C97.4999 134.209 97.8119 133.035 98.1919 132.99C98.5719 132.945 100.604 132.615 101.12 132.536C101.635 132.457 101.903 131.911 102.043 131.762C102.182 131.613 101.446 131.756 101.22 131.264C100.992 130.773 100.807 130.228 101.774 129.755ZM109.52 125.228C110.009 125.356 110.302 126.861 109.781 127.113C109.26 127.364 105.577 128.512 104.685 128.216C103.794 127.92 103.912 126.91 104.425 126.54C104.939 126.17 109.032 125.1 109.52 125.228ZM112.557 121.319C113.046 121.447 113.339 122.952 112.818 123.204C112.297 123.456 108.614 124.603 107.722 124.307C106.831 124.011 106.949 123.001 107.462 122.631C107.976 122.261 112.068 121.191 112.557 121.319ZM114.852 117.687C115.477 117.796 115.904 119.242 115.175 119.525C114.446 119.808 111.294 120.492 110.403 120.195C109.512 119.899 109.63 118.889 110.143 118.519C110.656 118.15 114.227 117.578 114.852 117.687ZM117.278 114.006C117.903 114.115 118.33 115.561 117.601 115.844C116.872 116.127 113.808 116.83 112.916 116.534C112.025 116.238 112.143 115.228 112.656 114.858C113.17 114.488 116.653 113.897 117.278 114.006ZM119.801 110.107C120.426 110.216 120.853 111.662 120.124 111.945C119.395 112.228 116.331 112.931 115.439 112.635C114.547 112.339 114.666 111.329 115.179 110.959C115.693 110.589 119.176 109.998 119.801 110.107Z" fill="#2B2D2E"/>
<path d="M123.464 50.998C124.839 49.763 126.529 49.404 127.364 49.821C128.199 50.238 128.553 51.407 128.472 52.277L128.329 52.951C127.81 55.077 126.126 61.275 127.116 66.548C128.187 72.252 135.509 81.167 140.092 84.509L140.969 85.101C143.293 86.525 144.543 87.794 145.116 88.888C145.113 90.659 144.596 92.53 144.237 93.479L143.901 94.08L143.913 93.935C144.133 92.62 142.206 90.772 140.048 88.293C137.89 85.814 128.959 78.679 125.802 70.941C122.644 63.203 124.423 57.682 125.441 55.09C126.458 52.498 125.277 51.922 124.673 51.298C124.488 51.106 123.868 51.218 123.089 51.463L123.165 51.343L123.464 50.998Z" fill="#FFD895"/>
<path d="M140.092 84.508L140.969 85.1C143.293 86.524 144.543 87.793 145.116 88.887C145.113 90.658 144.596 92.529 144.237 93.478L143.901 94.079L143.913 93.934C144.133 92.619 142.206 90.771 140.048 88.292L139.086 87.29C136.723 84.958 131.936 80.729 128.532 75.832C128.21 73.779 128.124 71.65 128.127 69.586C130.523 75.035 136.263 81.716 140.092 84.508Z" fill="#FFCA6F"/>
<path d="M116.158 69.384C116.581 70.269 115.116 73.532 114.538 75.105C113.959 76.678 112.831 80.785 113.643 82.173C114.455 83.561 120.092 89.009 120.701 90.465C121.31 91.922 120.161 95.051 119.411 96.576C118.661 98.1 116.924 100.957 115.797 101.545L109.301 104.45C108.29 104.917 107.461 105.327 107.093 105.577C105.931 106.367 99.7949 117.396 95.3719 122.417L92.3039 125.674C88.9089 129.372 86.1369 132.881 84.6519 134.875L81.4659 139.418C79.9219 141.611 78.2339 143.882 76.8819 145.11C75.1929 146.644 72.0519 150.093 70.1079 152.099L70.7409 151.095C71.0779 150.544 71.4529 149.89 71.9019 148.989C73.4559 145.872 75.1439 141.475 76.1409 139.484L76.9749 137.906C78.3539 135.378 80.6079 131.494 81.4309 130.381L82.8279 128.61C83.2319 128.09 83.5629 127.604 83.7819 127.048C84.2209 125.936 86.9259 124.738 87.5399 123.537C88.1539 122.336 90.0459 119.207 90.5859 117.808C91.1259 116.409 91.2009 114.826 92.4899 111.408L93.0889 109.961C95.0989 105.356 100.086 95.406 100.299 94.815L103.505 87.85C103.796 87.198 104.067 86.579 104.296 86.031L104.832 84.65C105.568 82.476 110.247 73.986 111.413 71.387L111.616 70.897C112.034 69.734 112.618 69.014 113.368 68.737L113.498 68.378C115.081 68.654 115.967 68.986 116.158 69.384Z" fill="#EDEBF0"/>
<path d="M116.158 69.384C116.581 70.269 115.116 73.532 114.537 75.105C113.958 76.678 112.83 80.785 113.642 82.173C114.454 83.561 120.091 89.009 120.7 90.465C121.309 91.922 120.16 95.051 119.41 96.576C118.66 98.1 116.923 100.957 115.796 101.545L109.3 104.45C108.289 104.917 107.46 105.327 107.092 105.577C105.93 106.367 99.794 117.396 95.371 122.417L92.303 125.674C88.908 129.372 86.136 132.881 84.651 134.875L81.465 139.418C79.921 141.611 78.233 143.882 76.881 145.11C76.176 145.751 75.218 146.725 74.199 147.789C74.478 146.746 74.845 145.731 75.299 144.742C77.412 140.147 82.066 133.903 85.656 130.703L86.697 129.839C90.11 127.239 94.694 119.471 96.383 114.754L96.72 113.723C97.888 109.703 103.806 95.625 107.05 88.557L110.288 81.694C111.389 79.311 113.274 75.126 115.942 69.14C116.045 69.218 116.117 69.3 116.158 69.384Z" fill="#E9E5E9"/>
<path d="M113.757 82.348L113.642 82.174C114.454 83.563 120.091 89.01 120.7 90.466C121.309 91.923 120.16 95.052 119.41 96.577C118.66 98.101 116.923 100.958 115.796 101.546L109.3 104.451C108.289 104.918 107.46 105.328 107.092 105.578C105.93 106.368 99.794 117.397 95.371 122.418L92.303 125.675C88.908 129.373 86.136 132.882 84.651 134.876L81.465 139.419C81.118 139.912 80.764 140.408 80.408 140.896L79.314 140.239C79.144 140.146 78.981 140.063 78.826 139.992L78.136 139.732L79.327 138.021C80.245 137.531 81.342 137.046 81.962 136.718C83.084 136.124 85.033 132.468 86.4 130.072L86.697 129.839C89.845 127.44 93.99 120.643 95.94 115.901L96.569 115.249L97.153 114.589C99.238 112.097 102.077 105.927 103.794 102.595C104.737 100.766 104.515 97.74 104.138 95.12L105.755 91.43L107.009 92.461C107.651 92.951 108.299 93.365 108.876 93.53C110.847 94.092 110.938 91.713 111.461 90.226L111.633 89.81C111.994 89.082 112.702 86.595 113.757 82.348Z" fill="#CDCDCD"/>
<path d="M78.2479 138.389C78.8309 137.849 78.9159 138.171 81.1389 137.649C81.7029 137.516 82.2779 137.473 82.8319 137.477L81.4089 139.482L80.1659 139.295C80.0869 139.288 80.0269 139.285 79.9859 139.286C79.4109 139.308 78.4449 139.438 77.0879 139.676C77.4729 139.178 77.8589 138.749 78.2479 138.389ZM87.8519 122.96C88.1849 122.722 88.4969 122.575 88.9409 122.493C89.7189 122.349 92.3189 122.464 94.4909 122.436L95.3699 122.417L93.2039 124.714L91.6449 124.461C90.0909 124.227 88.6579 124.091 88.2759 124.417L87.4839 125.204C86.1149 126.646 83.7599 129.344 83.5779 129.561C83.3939 129.78 83.1869 128.931 83.1239 128.197L82.8269 128.611C83.2309 128.091 83.5619 127.605 83.7809 127.049C84.2199 125.937 86.9249 124.739 87.5389 123.538L87.8519 122.96ZM108.07 77.971C108.417 77.879 108.663 77.865 108.737 77.912C108.961 78.053 108.189 79.267 107.48 80.707L105.219 85.778C104.805 86.691 104.429 87.484 104.182 87.913C103.571 88.975 109.025 93.137 110.993 94.845L111.381 95.193C112.213 95.978 115.063 98.113 117.336 99.991C116.789 100.72 116.245 101.313 115.797 101.546L108.657 104.752C110.225 103.558 113.423 101.831 113.856 101.38C114.329 100.888 112.963 100.154 111.912 99.179L111.487 98.746C110.788 97.95 107.872 95.736 102.741 92.104C101.641 95.465 100.899 97.136 100.513 97.117C100.333 97.108 100.114 96.51 99.8989 95.685L103.504 87.852L104.295 86.033L104.831 84.652C105.043 84.025 105.584 82.872 106.273 81.487L108.07 77.971Z" fill="#908F91"/>
<path d="M59.16 175.525C59.454 174.141 58.758 173.118 58.036 172.777C57.314 172.436 55.1409 172.827 53.4709 174.508C51.8019 176.189 51.8969 177.793 52.5249 178.676C53.1529 179.559 54.637 179.323 55.644 178.851C56.652 178.379 58.865 176.909 59.16 175.525Z" fill="#242424"/>
<path d="M54.1259 176.012C53.6739 177.167 53.8759 177.762 54.7739 177.941C55.6729 178.12 59.2339 177.537 60.7729 177.473C62.3119 177.41 67.0569 176.105 68.8069 174.966C70.5569 173.826 78.0449 162.773 79.6199 159.068C81.1939 155.363 79.2269 149.97 78.8139 147.741C78.4009 145.512 77.8619 144.293 77.7409 143.274C77.6199 142.255 77.9139 141.64 77.9489 140.961C77.9719 140.508 78.0949 140.093 78.3179 139.715C80.3419 139.017 81.8339 138.657 82.7929 138.636C84.2329 138.605 86.6079 139.274 90.7599 141.205C94.9119 143.136 96.4969 143.846 99.2479 144.506C101.999 145.166 104.892 145.687 110.27 138.744C115.648 131.801 116.679 128.615 115.988 126.709C115.527 125.438 115.199 124.578 115.003 124.127C118.504 125.709 122.003 126.583 125.502 126.749C130.75 126.999 132.893 126.858 135.665 126.035C138.437 125.212 139.829 124.258 139.965 123.883C140.101 123.508 136.96 122.549 135.947 122.309C134.935 122.069 132.845 122.291 131.857 122.318C130.869 122.345 128.155 122.628 122.616 121.644C117.077 120.66 108.257 117.887 105.265 117.091C102.273 116.295 95.4829 114.705 92.8169 115.22C90.1509 115.735 88.1039 116.588 88.5599 119.159C87.7759 119.23 86.2249 119.869 86.2519 121.071C86.2789 122.273 87.0769 123.332 89.5409 123.232C92.0049 123.132 96.5609 124.269 99.1169 124.443C101.673 124.617 108.803 125.141 110.075 125.196C111.347 125.251 112.213 126.53 111.91 127.181C111.607 127.832 102.111 139.623 101.43 140.237C100.749 140.85 100.226 140.953 97.4509 139.791C94.6759 138.629 90.4579 136.276 87.1079 135.387C83.7579 134.498 82.7899 133.939 81.1569 133.969C79.5229 133.998 79.7579 133.85 78.6499 134.688C77.5429 135.525 75.9029 135.392 74.9819 136.787C74.0619 138.182 72.6759 140.534 74.0989 144.597C75.5219 148.66 76.9109 153.272 76.2509 155.977C75.5909 158.682 65.6289 171.291 64.7979 172.006C63.9669 172.721 60.1689 174.129 59.0909 174.111C58.0129 174.093 56.9899 173.875 56.0949 174.292C55.2009 174.71 54.5779 174.857 54.1259 176.012Z" fill="#F0EDF4"/>
<path d="M90.5129 119.27C98.7299 119.943 103.843 120.429 105.851 120.73C108.863 121.181 99.4459 118.803 96.1139 118.776C93.8929 118.757 92.0259 118.922 90.5129 119.27Z" fill="#D4D4D4"/>
<path d="M79.826 152.095C80.272 154.379 80.504 156.989 79.62 159.068C78.046 162.773 70.558 173.826 68.807 174.966C67.057 176.106 62.312 177.41 60.773 177.473C59.788 177.513 57.976 177.767 56.562 177.897L57.295 177.551C57.401 177.503 57.499 177.461 57.589 177.423C58.616 176.993 61.278 176.517 63.045 175.71C64.635 174.984 64.096 174.287 63.298 174.227L63.025 174.232C62.1 174.332 63.889 172.993 65.945 171.897C67.83 170.892 72.06 165.323 73.89 162.538L74.326 161.853C75.557 159.836 76.74 158.365 77.363 156.919L77.666 156.05C78.121 154.301 78.523 158.171 78.738 156.86L78.992 155.68C79.167 154.938 79.397 154.013 79.606 153.099L79.826 152.095ZM108.688 124.992L110.463 124.685C112.526 124.361 113.433 124.419 113.89 125.362L114.041 125.758C114.338 126.739 115.172 128.484 115.839 129.721C115.189 131.713 113.526 134.54 110.27 138.745C104.892 145.688 101.999 145.167 99.248 144.507C96.812 143.923 95.29 143.299 92.09 141.822C92.538 141.798 92.956 141.834 93.345 141.927L93.908 142.108C96.154 143.031 99.777 142.942 99.585 141.933C99.484 141.404 99.114 140.839 98.768 140.305C100.427 140.899 100.876 140.738 101.43 140.239C102.111 139.626 111.607 127.834 111.91 127.183C112.213 126.532 111.346 125.253 110.075 125.198L108.388 125.095C108.483 125.037 108.587 125.01 108.688 124.992ZM113.838 122.414C118.103 123.983 121.044 124.791 122.661 124.838C125.086 124.909 127.341 123.168 131.089 123.16C131.956 123.158 132.463 122.828 132.687 122.291C133.737 122.216 135.164 122.125 135.947 122.31L136.878 122.562C138.194 122.947 140.071 123.592 139.965 123.884C139.829 124.259 138.437 125.213 135.665 126.036C132.893 126.859 130.749 127 125.502 126.75C122.587 126.611 119.671 125.981 116.754 124.859L115.315 124.256L113.838 122.414Z" fill="#CCCDD8"/>
<path d="M144.315 120.081C144.6 118.608 144.529 117.398 144.101 116.452C143.459 115.032 143.063 113.537 140.027 111.94C136.991 110.342 131.46 107.911 129.277 106.377C127.094 104.843 116.607 96.535 113.656 94.276C110.705 92.017 106.019 88.677 105.011 87.132C104.339 86.102 104.154 85.428 104.455 85.108C103.488 84.065 102.582 83.738 101.737 84.125C100.47 84.706 99.8589 86.234 100.081 86.937C100.303 87.64 100.998 88.914 103.491 91.346C105.984 93.778 114.174 100.028 118.779 104.109C123.384 108.19 129.215 111.471 132.602 113.024C135.989 114.577 139.793 116.924 140.943 117.493C141.711 117.872 142.835 118.735 144.315 120.081Z" fill="#E8E6E4"/>
<path d="M101.738 84.125C102.583 83.738 103.489 84.066 104.456 85.108C104.396 85.172 104.355 85.25 104.334 85.342L103.868 85.157C103.542 85.068 103.179 85.054 102.781 85.113C101.292 85.335 100.836 87.146 101.169 88.814C100.491 87.925 100.21 87.338 100.083 86.937C99.86 86.234 100.471 84.705 101.738 84.125Z" fill="#727272"/>
<path d="M132.802 110.488C134.718 111.191 137.561 111.786 137.984 110.912L140.027 111.939C143.063 113.537 143.459 115.032 144.101 116.451C144.529 117.397 144.6 118.607 144.315 120.08C143.131 119.003 142.175 118.236 141.448 117.777L136.672 115.102C135.703 114.569 134.661 114.015 133.629 113.509L132.603 113.022C131.255 112.404 129.521 111.513 127.631 110.406C129.698 110.582 131.043 109.842 132.802 110.488Z" fill="#DBD0D0"/>
<path d="M108.31 79.053C108.842 78.137 109.604 76.7 108.366 77.147C107.128 77.593 106.196 77.702 105.066 77.293C103.936 76.884 101.67 76.934 99.5431 79.033C97.4161 81.132 97.7331 83.755 98.1301 85.693C98.5271 87.631 97.5841 91.016 97.4281 92.467C97.2721 93.918 98.3561 94.738 98.8491 93.986C99.3421 93.235 100.247 88.417 100.082 86.936C99.9181 85.455 99.7631 82.122 100.711 80.977C101.659 79.832 105.002 79.571 105.305 80.556C105.608 81.542 106.551 83.17 106.615 82.585C106.679 82.001 107.778 79.969 108.31 79.053Z" fill="#343434"/>
<path d="M87.3249 179.009C84.4799 181.908 80.5599 183.42 79.2199 183.821C77.8799 184.222 75.3939 182.784 74.8289 179.818C74.2639 176.852 76.0949 173.382 77.7679 171.814C79.4409 170.246 82.2969 168.225 84.7749 168.604C87.2529 168.983 89.6959 170.245 90.4139 171.743C91.1329 173.242 90.1709 176.11 87.3249 179.009Z" fill="#6D5CCA"/>
<path d="M86.4009 178.02C83.5559 180.919 79.5559 182.44 78.2159 182.841C76.8759 183.242 75.3949 182.784 74.8289 179.818C74.2639 176.852 76.0949 173.382 77.7679 171.814C79.4409 170.246 82.2969 168.225 84.7749 168.604C87.2529 168.983 88.4649 169.296 89.1819 170.794C89.9009 172.293 89.2459 175.121 86.4009 178.02Z" fill="#7B53E8"/>
<path d="M84.428 170.625C84.603 170.177 85.211 170.26 85.649 170.236C86.087 170.212 88.041 170.85 88.166 171.625C88.291 172.4 87.35 173.55 86.482 174.124C85.614 174.698 83.447 175.188 83.105 175.814C82.763 176.44 81.113 177.791 80.506 178.886C79.899 179.98 78.723 179.942 77.454 180.414C76.499 180.768 77.444 182.028 78.264 182.831C76.877 183.242 75.396 182.784 74.83 179.818C74.771 179.511 74.739 179.198 74.729 178.883L74.903 178.728L75.24 178.484C76.056 177.962 79.374 177.301 80.33 176.916C81.286 176.531 83.056 174.259 83.497 173.745C83.939 173.232 84.253 171.073 84.428 170.625Z" fill="#9175F6"/>
<path d="M84.7759 168.604L85.4459 168.697C85.8979 169.349 85.9119 170.486 86.7639 171.189C87.5659 171.851 87.0329 173.461 85.5459 173.81C84.0589 174.159 83.4779 174.238 82.9399 175.083C82.4019 175.928 81.1219 177.1 80.6209 177.41C80.3569 177.811 80.2409 178.155 80.2729 178.442C80.3469 179.113 79.7679 179.543 78.8829 179.854C77.9979 180.165 77.4089 179.525 77.1629 179.071C76.9169 178.617 76.8539 178.922 75.6359 179.225C75.2249 179.327 75.0369 179.808 74.9689 180.408L74.8289 179.819C74.2639 176.853 76.0949 173.383 77.7679 171.815C79.4419 170.246 82.2979 168.226 84.7759 168.604Z" fill="#4334A5"/>
<path d="M129.83 141.25C130.372 142.265 130.336 144.709 128.611 147.544C126.886 150.38 123.699 153.366 120.471 154.311C117.243 155.256 115.162 150.973 114.793 149.018C114.424 147.063 115.071 143.465 117.454 141.002C119.837 138.539 122.397 137.394 125.071 137.81C127.746 138.225 129.288 140.235 129.83 141.25Z" fill="#6645BD"/>
<path d="M129.231 140.401C129.773 141.416 129.68 143.776 127.953 146.295C126.226 148.814 122.66 152.453 119.431 153.398C116.203 154.343 115.163 150.973 114.794 149.018C114.425 147.063 115.072 143.465 117.455 141.002C119.838 138.539 122.398 137.394 125.072 137.81C127.746 138.225 128.689 139.386 129.231 140.401Z" fill="#7857DD"/>
<path d="M125.071 137.809C125.731 137.912 126.286 138.06 126.756 138.24C124.434 138.832 124.774 139.813 125.711 140.273C126.745 140.781 129.425 142.055 126.14 144.14C125.513 144.538 124.696 145.888 123.716 147.093C123.208 147.718 122.317 148.859 121.044 150.516C119.788 151.875 118.983 151.046 117.264 150.755C116.194 150.574 116.085 151.766 117.252 153.308C115.687 152.618 115.062 150.441 114.793 149.016C114.424 147.061 115.071 143.463 117.454 141C119.837 138.538 122.397 137.393 125.071 137.809Z" fill="#4D34B6"/>
<path d="M121.48 138.195L122.154 138.112L122.723 138.132C124.038 138.392 124.519 140.498 125.222 140.568C125.925 140.638 126.852 141.185 127.373 141.936C127.894 142.687 125.893 143.895 125.227 143.954L123.724 143.955C122.898 143.969 122.036 144.065 121.834 144.494C121.48 145.244 120.768 147.227 121.033 148.097C121.298 148.967 121.285 150.178 120.338 150.871C119.391 151.564 117.013 150.281 116.585 149.919C116.252 149.638 115.211 148.337 114.948 146.795L114.888 146.046C115.225 144.355 116.03 142.476 117.455 141.003C118.747 139.665 120.093 138.716 121.48 138.195Z" fill="#311B8E"/>
<path d="M66.246 168.494C65.107 169.482 63.698 170.938 64.128 171.479C64.558 172.02 69.863 175.989 71.674 176.788C73.485 177.587 75.123 178.048 76.956 177.538C78.789 177.028 81.405 176.104 82.625 173.97C83.846 171.836 83.601 168.669 82.719 166.861C81.837 165.052 78.603 159.567 78.004 158.747C77.404 157.927 76.171 156.503 76.473 155.689C75.813 155.262 75.336 155.392 74.944 155.8C74.552 156.208 72.198 160.864 71.35 161.93C70.502 162.995 67.385 167.506 66.246 168.494Z" fill="#4E2FBB"/>
<path d="M66.246 168.494C65.107 169.482 63.698 170.938 64.128 171.479C64.558 172.02 69.56 175.471 71.371 176.271C73.182 177.07 74.816 177.56 76.649 177.05C78.482 176.54 81.098 175.616 82.318 173.482C83.539 171.348 83.294 168.181 82.412 166.373C81.53 164.565 78.603 159.567 78.003 158.747C77.403 157.927 76.17 156.503 76.472 155.689C75.812 155.262 75.335 155.392 74.943 155.8C74.551 156.208 72.197 160.864 71.349 161.93C70.502 162.995 67.385 167.506 66.246 168.494Z" fill="#7B4EE4"/>
<path d="M74.1869 157.045L78.1629 163.39C78.6089 164.124 78.9579 164.716 79.2119 165.167L79.4329 165.57C80.4739 167.529 81.8789 170.581 80.4459 172.974C79.0129 175.367 76.5299 175.783 73.3569 174.96C71.4379 174.462 68.6879 172.669 65.1079 169.58C65.4609 169.2 65.8679 168.821 66.2449 168.494C66.6249 168.165 67.2239 167.444 67.8859 166.59L71.3489 161.93C71.9509 161.175 73.3079 158.617 74.1869 157.045Z" fill="#8754ED"/>
<path d="M75.4231 173.007C75.0291 173.659 75.4141 175.173 75.9171 175.656C76.4201 176.139 78.2351 175.797 78.3461 174.836C78.4571 173.875 77.8251 172.789 77.0031 172.452C76.1791 172.116 75.8161 172.355 75.4231 173.007Z" fill="#483C9D"/>
<path d="M78.8229 170.343C79.0189 171.079 80.3749 171.854 81.0709 171.828C81.7669 171.802 82.7819 170.258 82.1689 169.511C81.5549 168.764 80.3349 168.464 79.5209 168.821C78.7069 169.178 78.6269 169.607 78.8229 170.343Z" fill="#483C9D"/>
<path d="M74.1869 157.045L76.0759 160.068L70.9319 173.902C69.3269 172.986 67.3859 171.545 65.1089 169.58C65.4619 169.2 65.8689 168.821 66.2459 168.494C66.6259 168.165 67.2249 167.444 67.8869 166.59L71.3499 161.93C71.9509 161.175 73.3079 158.617 74.1869 157.045Z" fill="#9D6CFA"/>
<path d="M75.992 173.239C75.764 173.418 75.858 174.45 76.426 175.866C76.994 177.282 77.961 178.943 78.173 179.157C78.385 179.371 79.548 178.944 79.576 178.442C79.604 177.94 77.453 173.662 77.194 173.199C76.935 172.736 76.219 173.059 75.992 173.239Z" fill="#7A00FE"/>
<path d="M80.2201 169.227C79.5331 169.27 79.0611 169.815 79.3411 170.291C79.6221 170.767 83.3941 172.636 83.7341 172.902C84.0741 173.168 85.1551 173.463 85.7501 172.801C86.3451 172.139 86.3081 171.646 85.7051 171.49C85.1021 171.334 81.8911 169.67 81.1331 169.395C80.3751 169.12 80.9071 169.184 80.2201 169.227Z" fill="#7A00FE"/>
<path d="M122.679 145.506C124.393 143.45 122.918 138.606 120.948 135.651C118.978 132.696 113.591 127.097 112.96 126.762C112.329 126.427 112.109 125.143 111.403 125.511C110.697 125.879 104.15 135.116 103.026 136.764C101.902 138.413 100.882 139.218 100.671 140.297C100.46 141.376 103.647 143.791 105.609 144.876C107.571 145.961 111.597 148.002 114.885 147.97C118.175 147.937 120.965 147.561 122.679 145.506Z" fill="#784CDF"/>
<path d="M109.866 127.335C110.52 127.672 111.053 128 111.464 128.318C113.631 129.986 117.895 134.452 120.025 138.214C122.155 141.976 121.021 144.825 118.962 145.743C116.902 146.661 112.829 146.264 108.207 144.014C104.762 142.337 102.462 139.972 101.464 138.794L102.456 137.551L106.674 131.62C107.602 130.335 108.561 129.027 109.376 127.951L109.866 127.335Z" fill="#6D45D6"/>
<path d="M115.633 143.75C115.239 144.402 115.772 145.725 116.274 146.208C116.777 146.691 118.576 146.335 118.493 145.421C118.41 144.507 117.958 143.472 117.135 143.135C116.313 142.799 116.027 143.098 115.633 143.75Z" fill="#302387"/>
<path d="M118.341 140.888C118.6 141.604 119.725 141.962 120.521 141.751C121.317 141.539 121.772 139.919 121.01 139.408C120.248 138.897 119.656 138.887 118.877 139.315C118.096 139.741 118.081 140.171 118.341 140.888Z" fill="#302387"/>
<path d="M109.866 127.335C110.52 127.672 111.053 128 111.464 128.318L112.399 129.097C112.569 129.248 112.746 129.408 112.928 129.577L106.283 142.944C103.895 141.441 102.262 139.737 101.463 138.794L102.455 137.551L106.673 131.62L109.375 127.951L109.866 127.335Z" fill="#895BE9"/>
<path d="M110.973 127.971L104.773 135.597C103.995 136.534 103.406 137.227 103.007 137.676C102.372 138.391 102.122 138.433 102.257 137.803L102.455 137.551L106.673 131.62L109.375 127.951L109.866 127.336C110.285 127.551 110.654 127.763 110.973 127.971Z" fill="#AD90F5"/>
<path d="M115.221 129.144L113.838 127.525L115.471 129.177C117.349 131.146 119.765 133.875 120.948 135.65C122.918 138.605 124.393 143.449 122.679 145.505C120.965 147.561 118.175 147.936 114.887 147.968C111.599 148 107.573 145.959 105.611 144.874C103.901 143.928 101.26 141.972 100.75 140.771C103.259 142.91 107.881 145.496 110.763 146.275C113.881 147.117 116.686 147.28 118.541 146.799C120.396 146.318 121.351 145.106 121.94 143.466C122.529 141.826 121.691 139.707 120.211 136.293C119.493 134.638 117.83 132.255 115.221 129.144Z" fill="#4E34AF"/>
<path d="M116.439 143.657C115.909 143.847 115.527 144.372 116.466 146.113C117.405 147.853 118.659 150.826 119.758 150.289C120.857 149.753 119.841 148.368 119.627 147.881C119.413 147.394 117.919 144.501 117.652 144.062C117.384 143.624 116.969 143.467 116.439 143.657Z" fill="#9761E9"/>
<path d="M119.893 139.426C119.071 139.566 118.418 140.153 118.702 140.76C118.986 141.368 119.825 141.194 121.159 141.531C122.493 141.868 124.198 142.818 124.476 143.127C124.754 143.436 126.488 142.948 126.608 142.272C126.728 141.596 124.83 141.076 123.929 140.717C123.028 140.358 120.715 139.286 119.893 139.426Z" fill="#9761E9"/>
<path d="M164.257 158.749C163.846 157.499 164.143 152.129 163.938 148.775C163.733 145.421 165.558 125.696 166.292 122.061C167.025 118.426 167.491 117.175 168.687 115.887C169.883 114.6 173.429 110.806 173.391 109.395C173.352 107.983 172.854 104.459 173.746 102.607C174.638 100.755 189.332 83.435 191.936 80.374C194.54 77.314 202.077 68.31 203.283 67.082C204.489 65.854 205.82 65.458 208.143 66.032C210.466 66.606 217.123 69.279 217.969 69.547C218.815 69.815 220.901 68.463 221.083 68.622C221.205 68.728 223.735 71.804 228.675 77.849L219.715 92.292L189.462 134.013C172.933 151.336 164.531 159.582 164.257 158.749Z" fill="#DDDDE1"/>
<path d="M164.257 158.749C163.846 157.499 164.861 152.586 164.657 149.231C164.452 145.877 166.277 126.152 167.011 122.517C167.744 118.882 168.21 117.631 169.406 116.343C170.602 115.056 174.148 111.262 174.11 109.851C174.072 108.44 173.573 104.915 174.465 103.063C175.357 101.211 190.051 83.891 192.655 80.83C195.259 77.769 202.531 68.987 203.736 67.758C204.942 66.53 206.273 66.134 208.596 66.708C210.919 67.282 217.576 69.955 218.422 70.223C219.268 70.491 220.901 68.462 221.083 68.621C221.205 68.727 223.735 71.803 228.675 77.848L219.715 92.291L189.462 134.012C172.933 151.336 164.531 159.582 164.257 158.749Z" fill="#B9BDC1"/>
<path d="M218.421 70.223C219.267 70.491 220.9 68.462 221.082 68.621L228.674 77.848L220.577 90.895L216.996 78.217C216.075 74.963 214.024 71.361 210.843 67.41L214.574 68.774C216.425 69.472 218.034 70.101 218.421 70.223Z" fill="#CCC8C8"/>
<path d="M192.179 14.274C194.329 13.281 198.06 13.233 200.609 17.149C203.158 21.065 203.817 25.274 202.781 28.759C201.745 32.245 197.963 36.554 197.811 37.432C197.66 38.31 201.263 41.773 202.52 42.939C203.777 44.105 203.786 46.116 204.896 46.708C206.006 47.3 209.209 45.721 214.537 46.241C219.865 46.761 222.736 49.546 224.082 52.51C225.428 55.474 223.747 61.241 222.948 65.115C222.149 68.989 224.626 70.635 226.68 72.572C228.734 74.509 229.535 75.871 228.959 77.126C228.383 78.382 227.888 77.967 227.617 77.798C227.346 77.628 225.092 74.69 224.204 73.417C223.315 72.144 221.85 70.178 221.537 69.531C221.225 68.883 221.12 68.396 220.875 67.34C220.63 66.284 221.353 62.056 221.978 60.284C222.603 58.511 222.82 54.501 221.309 51.373C219.798 48.245 215.242 48.148 213.184 47.851C211.126 47.554 206.581 48.782 204.876 48.6C203.171 48.418 200.245 45.331 199.308 44.274C198.371 43.217 194.701 39.858 193.849 38.978C192.997 38.098 191.402 36.297 191.037 35.502C190.672 34.707 190.766 32.476 190.745 31.413C190.724 30.35 188.602 28.125 187.388 23.763C186.176 19.403 190.029 15.267 192.179 14.274ZM193.092 15.89C191.004 16.862 189.298 20.017 189.331 22.785C189.364 25.553 191.596 28.543 192.854 30.046C194.112 31.549 193.687 33.248 193.92 34.3C194.153 35.352 195.397 36.699 195.805 36.414C196.213 36.129 197.125 34.736 198.163 33.224C199.201 31.711 200.446 29.364 201.22 26.502C201.994 23.641 200.682 20.304 199.355 18.312C198.03 16.32 195.18 14.918 193.092 15.89Z" fill="#2C2F28"/>
<path d="M209.989 68.133L213.102 69.186C216.831 70.386 219.496 70.657 221.743 69.749L221.952 69.65L223.369 71.368C223.104 71.501 222.825 71.617 222.544 71.731C220.025 72.749 217.299 72.614 213.798 71.629L211.335 70.85L210.254 70.474C207.162 69.394 206.726 69.443 205.02 70.974L203.792 72.21L202.192 73.936C198.851 77.597 193.474 83.768 189.439 88.729L185.37 93.843L179.129 102.003C179.072 102.085 179.028 102.15 178.998 102.196C178.685 102.688 178.003 108.793 177.68 110.391C177.338 112.079 176.466 113.815 175.19 115.588C174.716 116.247 174.202 116.889 173.653 117.518L172.445 118.829L171.281 119.992L171.227 120.079L171.071 120.46L170.906 121.101C170.593 122.532 170.22 125.417 169.709 130.523L169.267 135.116C168.836 139.754 168.57 144.292 168.469 148.729C168.834 148.494 180.177 136.522 184.823 131.867C186.451 130.236 185.243 128.501 183.346 129.424C181.449 130.347 179.811 130.505 179.067 129.379C177.566 127.108 177.148 124.114 179.542 120.589C180.293 119.484 184.11 115.062 183.317 110.466C182.523 105.87 182.688 103.329 184.033 101.399C186.671 97.614 196.962 82.614 205.405 74.83C207.56 72.843 208.731 72.607 211.479 73.268C216.239 74.413 215.245 87.901 218.568 85.301C222.109 82.531 225.644 78.151 227.054 76.995C228.087 76.148 229.816 78.334 232.239 83.552C189.7 130.855 168.436 154.814 168.445 155.429L167.064 156.717C166.856 156.906 166.66 157.083 166.475 157.246C166.386 157.098 166.337 156.929 166.332 156.748C166.168 149.729 166.437 142.452 167.138 134.917L167.944 126.769L168.207 124.523C168.632 121.159 168.999 119.619 169.499 118.83L169.8 118.459L171.244 116.991C172.058 116.125 172.8 115.245 173.452 114.339C174.566 112.791 175.309 111.311 175.581 109.966L176.316 104.932C176.594 103.153 176.907 101.494 177.191 101.047L177.933 100.009L181.363 95.503C182.809 93.633 184.471 91.509 186.091 89.477L189.662 85.088L192.677 81.513C197.447 75.927 202.323 70.517 203.588 69.382C205.723 67.471 206.949 67.18 209.989 68.133Z" fill="#AA7EF7"/>
<path d="M16.988 214.445C16.485 214.346 14.961 217.159 18.302 223.823C21.644 230.487 25.9369 231.974 28.7689 233.529C31.6009 235.084 41.745 237.661 49.399 236.509C57.053 235.357 60.789 233.929 62.095 233.796C63.401 233.663 66.3859 233.287 67.1699 232.654C67.9539 232.02 69.8779 231.953 71.0429 231.937C72.208 231.921 74.462 230.45 74.994 230.427C75.526 230.403 76.784 230.497 78.9889 229.394C81.1929 228.291 91.0029 223.382 92.3859 222.69C93.769 221.998 93.1939 220.51 92.5129 219.365C91.8319 218.221 90.055 216.43 88.436 216.192C86.8159 215.955 61.429 226.564 53.766 228.207C46.103 229.85 37.3429 231.37 33.8619 230.561C30.3809 229.752 28.453 228.446 26.871 227.273C25.289 226.1 22.757 224.141 21.38 221.544C20.003 218.947 17.491 214.544 16.988 214.445Z" fill="#E2E2E2"/>
<path d="M17.6829 215.217C18.6649 216.613 20.3439 219.587 21.3789 221.542C22.5589 223.768 24.5879 225.525 26.1399 226.721L26.8699 227.272C28.4519 228.446 30.3789 229.752 33.8609 230.56C37.3419 231.369 46.1009 229.849 53.7649 228.206C61.4289 226.563 86.8159 215.954 88.4349 216.191C90.0549 216.428 91.8309 218.219 92.5119 219.364C93.1169 220.381 93.6389 221.67 92.7759 222.43L92.3849 222.689L78.9879 229.393C76.7839 230.496 75.5249 230.402 74.9929 230.426C74.4609 230.45 72.2069 231.92 71.0419 231.936C70.0709 231.95 68.5729 231.998 67.6469 232.381L67.1689 232.653C66.4969 233.196 64.2079 233.55 62.7449 233.724L62.0939 233.796C60.7879 233.929 57.0519 235.357 49.3979 236.509C46.9089 236.884 44.1579 236.864 41.4789 236.614C42.4689 236.46 43.4349 236.278 44.3249 236.047L47.5429 235.241C49.5259 234.788 49.2689 235.029 50.2209 235.21C51.5189 235.456 52.6879 234.204 54.8999 233.469C57.1119 232.733 56.6729 234.033 58.6059 233.776C60.2629 233.555 60.9999 232.766 61.6269 232.639L61.9349 232.636C62.6499 232.786 63.0349 231.736 63.6179 230.559C64.2009 229.382 66.5649 230.968 67.9439 230.82C69.3229 230.673 68.0699 228.604 69.8249 228.964C71.5799 229.323 72.8809 228.434 73.1869 227.005C73.4929 225.576 76.7969 227.051 78.7629 226.963C80.7299 226.875 79.8419 225.981 79.8519 224.412C79.8619 222.843 81.7369 224.7 83.3079 224.688C84.8789 224.676 84.7319 224.249 84.5769 223.226C84.4219 222.203 86.3569 223.255 87.9139 223.619C89.4709 223.982 92.1789 222.301 91.4249 219.912C90.6709 217.523 89.6069 216.95 87.5129 217.683C85.4189 218.415 74.0189 222.876 67.1659 225.46C60.3129 228.044 52.7239 230.449 44.8669 231.51C40.7419 232.067 37.0309 232.34 34.1579 231.859C31.5579 231.424 29.7459 230.099 29.4039 229.815C28.6839 229.217 27.3059 227.811 24.9269 226.129C22.7309 224.576 18.5599 218.374 17.7589 215.899L17.6279 215.375L17.6829 215.217Z" fill="#B7B7B6"/>
<path d="M92.5129 219.363C93.1179 220.38 93.6399 221.669 92.7769 222.429L92.3859 222.688L78.9889 229.392C76.7849 230.495 75.5259 230.401 74.9939 230.425C74.4619 230.449 72.2079 231.919 71.0429 231.935C70.3289 231.945 69.3299 231.974 68.4829 232.141C68.8269 231.894 69.0849 231.689 69.4129 231.534L69.9769 231.339C70.8129 231.14 72.3529 230.424 73.3799 230.053L74.0359 229.852C74.9049 229.67 76.2999 228.963 76.7329 228.925C77.1659 228.887 78.6479 227.902 79.4999 227.847C80.3519 227.792 81.8329 226.798 81.8429 226.191C81.8529 225.584 85.1919 225.642 84.9969 225.494C84.8009 225.346 84.8379 224.901 85.4039 224.621C85.9699 224.341 87.9509 224.17 88.8399 223.787L89.9699 223.201C90.8639 222.67 91.8629 221.978 92.0739 221.599C92.2819 221.226 92.3709 220.35 92.3429 218.972L92.3569 219.119L92.5129 219.363Z" fill="#727272"/>
<path d="M262.004 105.846C260.125 102.092 257.154 100.499 256.288 100.256C255.423 100.013 254.605 97.477 254.86 95.59C255.115 93.703 253.456 92.1 251.23 91.14C249.003 90.181 226.085 91.871 224.509 93.18C222.933 94.489 191.006 126.844 187.533 130.396C184.06 133.948 174.968 143.644 172.981 145.649C170.994 147.654 164.28 153.591 162.763 154.776C161.246 155.961 135.824 173.597 133.645 174.817C131.466 176.036 92.678 197.472 75.07 205.914C57.462 214.356 28.979 226.785 28.088 227.643C27.197 228.501 30.186 231.346 34.362 231.763C38.538 232.18 48.046 231.874 63.223 226.445C78.4 221.017 88.197 216.781 89.142 216.773C90.087 216.765 91.626 217.813 92.069 218.924C92.512 220.036 92.576 221.078 93.08 220.945C93.584 220.812 95.554 219.928 95.953 219.168C96.352 218.408 97.895 219.082 100.724 217.941C103.553 216.8 106.066 215.841 109.175 214.286C112.283 212.73 143.329 197.107 147.341 195.099C151.353 193.091 154.096 189.429 155.488 185.863C156.879 182.297 158.641 180.646 159.965 180.239C161.289 179.832 162.278 181.85 163.37 181.422C164.462 180.994 165.141 180.716 165.565 181.287C165.989 181.858 168.346 183.459 170.758 182.715C173.17 181.971 178.275 179.618 185.557 175.973C192.839 172.329 221.5 157.986 230.686 153.388C239.873 148.791 241.207 144.108 242.095 142.987C242.982 141.866 245.618 142.692 246.163 142.003C246.708 141.314 247.531 139.555 249.108 139.477C250.685 139.399 252.516 138.158 252.614 137.255C252.712 136.352 253.91 135.779 254.007 136.062C254.103 136.345 256.323 135.904 256.732 133.913C257.141 131.922 257.13 131.137 258.313 131.019C259.496 130.901 259.883 129.323 259.595 128.169C259.307 127.015 260.94 127.949 261.254 127.339C261.463 126.932 261.709 126.057 261.99 124.714C263.482 121.196 264.292 118.35 264.42 116.177C264.614 112.919 263.883 109.6 262.004 105.846Z" fill="#DFDFDF"/>
<path d="M224.51 93.18C226.086 91.871 249.004 90.181 251.231 91.14L251.896 91.454C248.777 94.207 241.34 104.807 238.355 105.53C234.909 106.364 234.277 103.944 232.923 103.687C231.568 103.429 229.111 104.733 225.319 108.571C223.694 109.727 218.008 110.008 208.259 109.413L223.848 93.8C224.183 93.475 224.409 93.264 224.51 93.18Z" fill="#E2E2E2"/>
<path d="M95.8731 215.081L97.2881 214.42L98.3101 213.982C98.7391 213.805 99.0361 213.722 99.1621 213.879C99.4561 214.245 101.142 215.229 102.537 215.066L103.525 214.924L105.349 214.605C107.106 214.273 109.362 213.781 111.405 213.165L109.176 214.285C106.068 215.841 103.554 216.799 100.725 217.94C98.2101 218.954 96.7121 218.534 96.1301 218.962L95.9541 219.167C95.5541 219.927 93.5851 220.811 93.0811 220.944C92.7001 221.044 92.5711 220.476 92.3401 219.713C93.1361 219.453 93.7861 218.957 94.2911 218.223C95.1571 216.964 94.6821 215.606 95.8731 215.081Z" fill="#9C9C9C"/>
<path d="M100.134 215.53L101.068 215.817C102.025 216.099 103.401 216.392 104.989 215.967L106.224 215.665C104.348 216.503 102.607 217.181 100.726 217.94C98.2109 218.954 96.7129 218.534 96.1309 218.962L95.9549 219.167C95.5549 219.927 93.5859 220.811 93.0819 220.944C92.7919 221.021 92.6469 220.708 92.4929 220.218L93.7059 219.684C94.1349 219.481 94.5389 219.256 94.7609 219.017C95.3669 218.368 95.7439 217.14 96.8109 216.516C97.8779 215.893 99.3109 215.31 100.134 215.53Z" fill="#404040"/>
<path d="M258.406 113.678C255.349 119.609 249.826 126.195 247.883 130.988C246.024 135.573 251.58 133.318 256.644 129.575L257.331 129.056C258.72 127.982 260.166 126.988 261.67 126.074C261.523 126.671 261.382 127.092 261.255 127.34C260.941 127.951 259.308 127.016 259.596 128.17C259.884 129.324 259.497 130.902 258.314 131.02C257.131 131.138 257.142 131.923 256.733 133.914C256.365 135.706 254.53 136.242 254.097 136.125L254.008 136.063C253.926 135.821 253.033 136.207 252.718 136.891L252.615 137.256C252.517 138.159 250.686 139.4 249.109 139.478C247.532 139.556 246.708 141.314 246.164 142.004C245.62 142.694 242.983 141.868 242.096 142.988C241.255 144.05 240.013 148.308 232.074 152.663L230.688 153.389L183.917 176.792C177.507 179.971 172.986 182.029 170.76 182.716C168.616 183.378 166.515 182.186 165.777 181.512L165.567 181.288C165.143 180.717 164.465 180.995 163.372 181.423C162.279 181.851 161.291 179.833 159.967 180.24C158.79 180.602 157.267 181.947 155.966 184.745L155.49 185.864C155.077 186.921 154.546 187.987 153.898 189.016C154.244 185.2 154.823 182.737 155.627 181.62C157.125 179.539 162.18 178.483 164.835 177.027L167.3 175.564C171.584 172.956 179.182 168.227 182.062 167.483C185.404 166.619 193.635 163.219 199.062 159.969L200.261 159.223C205.591 155.764 234.778 134.879 236.223 134.508C237.668 134.137 237.676 142.814 240.036 141.53C242.397 140.246 243.023 131.308 243.232 128.903C243.255 128.637 245.41 122.59 241.568 126.181C237.749 129.751 219.01 142.531 233.692 126.278C248.374 110.025 250.3 107.379 252.93 104.041L253.469 103.343C256.526 99.284 261.464 107.747 258.406 113.678Z" fill="#D4D4D4"/>
<path d="M257.617 131.231C257.11 131.606 257.039 132.421 256.733 133.913C256.365 135.705 254.53 136.241 254.097 136.124L254.008 136.062C253.926 135.82 253.033 136.206 252.718 136.89L252.615 137.255C252.517 138.158 250.686 139.399 249.109 139.477C247.532 139.555 246.708 141.313 246.164 142.003C245.62 142.693 242.983 141.867 242.096 142.987L241.772 143.489C240.87 145.052 239.079 148.819 232.073 152.661L230.687 153.387L183.916 176.79C177.506 179.969 172.985 182.027 170.759 182.714C168.615 183.376 166.514 182.184 165.776 181.51L165.566 181.286C165.142 180.715 164.464 180.993 163.371 181.421C162.842 181.628 162.338 181.262 161.807 180.876L167.567 177.398C172.033 174.74 175.401 172.836 177.671 171.686C182.59 169.195 195.223 164.358 198.909 162.398C202.595 160.439 206.254 160.59 207.224 160.201C208.194 159.812 208.868 156.692 211.662 156.938C214.281 157.169 213.115 160.227 215.285 157.492L215.766 156.865C218.59 153.083 220.009 154.751 220.541 154.475C221.073 154.199 222.82 153.02 222.722 151.727C222.624 150.434 221.713 150.168 223.763 150.882C225.813 151.596 229.27 151.57 229.351 150.066C229.432 148.563 227.737 146.168 230.698 146.488C233.659 146.809 235.197 147.652 236.237 147.123C237.277 146.594 236.547 146.598 235.954 145.104C235.362 143.61 236.306 141.585 237.792 141.597C238.172 141.6 238.576 141.502 238.966 141.339C239.252 141.664 239.604 141.76 240.033 141.527C240.77 141.126 241.337 139.98 241.776 138.52C242.682 138.194 244.446 138.236 245.73 138.143C247.545 138.013 247.463 134.889 249.987 136.013C252.511 137.137 253.088 135.499 253.205 132.697C253.269 131.205 254.739 130.716 257.617 131.231Z" fill="#B0B0B0"/>
<path d="M162.973 179.043C164.523 179.674 175.94 174.245 178.363 173.702C180.786 173.159 181.841 174.906 182.43 173.998C183.018 173.091 181.921 172.126 184.615 171.517L187.728 170.801C188.936 170.508 189.882 170.242 190.459 169.98L191.194 169.587C193.278 168.418 198.758 165.175 202.406 163.854L203.277 163.566C207.409 162.349 218.052 156.263 221.528 155.684C222.812 155.47 223.359 156.082 223.281 157.102L183.92 176.79C177.51 179.969 172.989 182.027 170.763 182.714C168.619 183.376 166.518 182.184 165.78 181.51L165.57 181.286C165.146 180.715 164.468 180.993 163.375 181.421C162.282 181.849 161.294 179.831 159.97 180.238C158.793 180.6 157.27 181.945 155.969 184.743L155.493 185.862C155.344 186.244 155.18 186.627 155 187.009C155.289 184.362 156.19 181.425 156.793 180.903C157.614 180.188 161.423 178.412 162.973 179.043Z" fill="#828282"/>
<path d="M241.922 143.245L241.09 144.675C239.945 146.563 237.678 149.589 232.074 152.662L230.688 153.388L183.917 176.791C177.507 179.97 172.986 182.028 170.76 182.715C169.673 183.05 168.597 182.909 167.704 182.601C169.008 182.047 170.562 181.182 171.521 180.227C173.201 178.553 176.652 176.169 178.869 175.764L181.653 175.313C182.978 175.066 184.01 174.73 183.878 174.043C183.658 172.898 183.89 172.258 186.288 172.051L188.337 171.88C189.686 171.748 190.975 171.534 192.055 170.972L192.823 170.481C194.512 169.163 195.181 170.312 196.793 168.869L197.776 167.962C198.799 166.972 199.329 166.226 198.75 165.815C198.006 165.286 201.045 165.61 201.551 165.271C201.985 164.981 201.84 164.433 202.468 164.473L202.853 164.546C203.93 164.85 205.656 163.979 204.856 163.544C204.234 163.206 204.7 163.241 206.053 163.032L207.425 162.779C209.625 162.304 207.746 163.429 210.65 161.944L216.264 159.062C217.491 158.413 218.306 157.929 218.645 157.558L221.321 154.519C222.51 153.522 223.317 153.119 223.742 153.307L225.17 154.004C225.859 154.315 226.483 154.514 226.353 154.075L225.855 152.786C225.722 152.352 225.718 151.987 226.128 151.914L226.518 151.918C227.947 152.114 230.242 150.895 231.231 150.439C232.22 149.983 232.551 150.821 233.276 149.843C233.91 148.988 234.055 147.74 235.15 147.413L235.682 147.333C237.277 147.29 240.06 145.638 240.455 144.494C240.67 143.868 241.051 143.529 241.922 143.245Z" fill="#404040"/>
<path d="M146.554 183.373C152.885 180.252 153.829 182.342 154.168 183.449C154.293 183.857 154.931 186.123 155.528 185.748L155.489 185.863C154.098 189.429 151.355 193.091 147.342 195.099L109.176 214.286C107.453 215.148 105.912 215.827 104.4 216.456L103.273 215.232C103.191 215.151 103.124 215.089 103.071 215.044L101.603 213.966C100.765 213.326 99.804 212.479 99.211 211.448C98.303 209.869 99.886 208.489 104.742 205.43L107.026 204.011C113.661 199.922 140.223 186.494 146.554 183.373ZM136.561 172.919C130.808 177.366 120.471 183.876 107.852 191.489L104.558 193.426C85.049 204.634 51.995 219.496 45.498 222.781C38.918 226.108 40.956 227.978 46.482 227.152C52.008 226.327 56.674 225 63.185 222.97L66.061 222.04C73.665 219.522 86.091 215.577 87.458 215.475C88.812 215.375 88.971 215.925 89.919 216.943C89.639 216.832 89.373 216.771 89.142 216.773C88.197 216.78 78.401 221.017 63.223 226.445C48.046 231.873 38.538 232.179 34.362 231.763C30.186 231.346 27.197 228.501 28.088 227.643C28.954 226.809 55.942 215.019 73.619 206.607L77.597 204.685C96.129 195.565 131.565 175.981 133.645 174.817L136.561 172.919ZM167.271 150.902C167.751 152.603 167.878 153.922 167.65 154.859C167.034 157.393 163.409 160.114 162.09 161.165C160.77 162.216 162.474 158.522 161.784 156.941C161.639 156.609 160.704 156.759 159.308 157.233L162.764 154.774L165.238 152.682L167.271 150.902Z" fill="#EDEDED"/>
<path d="M40.6829 225.245L42.9559 224.105C43.2649 223.955 43.5909 223.799 43.9329 223.636C39.3069 226.418 41.4469 227.904 46.4829 227.152C52.0089 226.327 56.6749 225 63.1859 222.97L76.4839 218.671C81.8359 216.981 86.6379 215.536 87.4589 215.476C88.8029 215.377 88.9699 215.917 89.8979 216.92C88.8769 216.569 87.9579 216.319 87.3789 216.371C85.3879 216.55 49.3509 230.006 42.6249 229.952C35.8989 229.898 36.8189 227.299 40.6829 225.245Z" fill="#E7E7E7"/>
<path d="M255.178 98.611C255.458 99.476 255.868 100.137 256.289 100.256C257.154 100.499 260.126 102.092 262.005 105.846C262.333 106.502 262.626 107.144 262.885 107.775C261.639 106.527 260.742 107.188 258.416 110.854C255.791 114.992 249.408 121.958 247.189 124.315C245.71 125.886 245.321 127.466 245.159 129.16L244.763 134.606C244.562 136.937 244.231 139.358 243.392 140.077C242.328 140.991 241.141 140.207 240.497 138.787L240.282 138.227C239.722 136.469 238.192 135.011 237.206 134.603C236.59 134.348 234.424 135.821 231.58 138.025L225.915 142.565C220.919 146.628 210.517 153.9 205.487 156.952L202.639 158.59C197.401 161.534 188.213 166.571 186.809 167.769L184.827 169.384C182.858 170.952 180.443 172.804 180.988 172.199L181.523 171.679C184.097 169.305 182.996 168.655 185.382 166.892C187.768 165.128 200.07 158.197 206.587 154.127L208.428 152.932C215.556 148.17 229.335 137.75 232.215 135.256L232.55 134.955C234.61 133.002 236.9 131.964 239.002 133.03C241.103 134.095 242.18 138.926 242.541 137.098C242.902 135.27 243.09 127.074 243.677 125.181C244.265 123.288 258.525 109.657 258.441 106.846C258.357 104.035 255.407 102.956 254.803 102.052C254.552 101.675 254.582 101.036 254.749 100.243L255.178 98.611Z" fill="#C8C8C8"/>
<path d="M248.51 91.12L248.467 90.865L249.93 90.925C250.552 90.971 251.001 91.042 251.231 91.14C253.458 92.099 255.116 93.703 254.861 95.59C254.606 97.477 255.423 100.013 256.289 100.256C256.928 100.436 258.717 101.352 260.366 103.332L260.126 104.384L260.054 104.852C259.92 106.337 258.682 108.597 257.295 110.89C256.007 113.019 249.446 120.204 246.871 122.879L246.352 123.412C244.298 125.484 244.046 126.347 243.79 129.648C243.534 132.949 243.748 135.884 242.933 138.28C242.118 140.676 241.074 138.696 241.013 137.751C240.951 136.806 239.406 134.867 237.989 133.968C236.667 133.129 235.282 133.892 230.788 137.557L229.776 138.387C224.469 142.766 213.356 150.592 208.514 153.737L206.765 154.819C201.088 158.206 190.741 163.474 195.128 160.713L204.122 155.075C208.918 152.026 214.241 148.522 217.942 145.643L220.744 143.45C225.902 139.384 231.029 135.165 233.704 132.388L235.624 130.303C240.131 125.494 253.766 110.764 256.09 107.351C258.688 103.536 255.78 102.416 254.706 103.866L251.76 107.174C248.071 111.754 238.989 122.716 231.534 130.428C222.385 139.892 206.875 151.075 205.602 150.175C204.33 149.275 226.301 129.748 230.821 124.907L232.004 123.604C237.629 117.282 251.397 100.464 251.964 98.204C252.577 95.763 249.85 93.182 248.78 91.657C248.662 91.488 248.573 91.308 248.51 91.12Z" fill="#E7E7E7"/>
<path d="M185.272 132.741L184.878 133.792L179.119 140.724C175.412 145.13 172.841 148.044 171.405 149.467C168.664 152.184 165.739 153.973 163.531 155.465L150.016 165.068C144.644 168.854 139.072 172.715 136.57 174.236L133.032 176.284C127.559 179.482 117.515 185.432 106.325 191.333L100.311 194.453C84.609 202.501 57.002 216.078 44.409 221.323L41.468 222.53C35.546 224.922 32.454 225.908 30.45 226.417L41.391 221.395C50.205 217.401 61.846 212.159 71.379 207.666L77.595 204.685C96.127 195.565 131.563 175.981 133.643 174.817L135.086 173.9C140.996 170.007 161.407 155.834 162.761 154.776C164.278 153.591 170.992 147.654 172.979 145.649L185.272 132.741ZM224.51 93.18C226.086 91.871 249.004 90.181 251.231 91.14C253.458 92.099 255.116 93.703 254.861 95.59C254.681 96.923 255.036 98.579 255.565 99.523C255.119 99.359 254.825 99.134 254.819 98.791C254.798 97.477 253.39 95.849 252.141 94.965C251.225 94.316 248.399 98.084 246.857 100.303L245.837 101.822C245.583 102.235 244.702 101.974 240.877 100.602C237.052 99.23 230.582 98.489 230.113 98.412C229.644 98.334 227.508 100.555 221.674 108.401L220.311 110.146C213.342 118.743 195.714 136.792 192.761 139.624L192.495 139.875C190.46 141.732 189.758 142.392 188.837 141.702C188.008 141.082 187.455 139.835 187.761 137.066L187.896 136.085C188.161 134.448 188.176 132.41 187.942 129.973L219.638 97.968C222.323 95.282 224.161 93.47 224.51 93.18Z" fill="#ECECEC"/>
<path d="M147.545 190.069C148.74 190.018 148.887 191.89 149.88 191.243C150.873 190.596 150.776 189.141 152.133 188.75C152.91 188.526 153.76 188.293 154.331 188.42C153.982 189.204 153.304 190.047 152.205 191.006C149.415 193.44 143.795 196.856 137.961 199.869L107 215.376C106.599 215.577 103.969 215.371 103.707 215.277C103.57 215.228 103.108 214.346 102.705 213.331L103.017 213.501C103.648 213.791 104.907 214.191 106.794 214.704C105.209 213.167 104.853 212.455 105.724 212.566C107.031 212.733 108.812 213.93 109.424 213.197C110.036 212.465 110.146 210.38 111.064 210.309C111.982 210.238 114.547 210.501 115.195 209.966C115.843 209.431 116.754 206.121 117.777 206.127L119.347 206.171C120.381 206.163 121.564 206.01 122.298 205.267C123.473 204.077 125.462 201.034 126.188 201.441C126.913 201.849 126.99 202.453 126.94 202.944C126.89 203.435 128.827 201.422 129.185 200.825C129.498 200.302 129.172 199.135 130.151 198.857L130.656 198.797C132.07 198.805 133.87 197.525 134.352 197.94L134.468 198.181C134.61 199.178 137.02 196.748 137.595 197.031C138.17 197.314 139.561 197.447 140.081 196.368C140.601 195.288 141.93 193.312 142.908 193.074C143.886 192.836 144.909 193.707 145.225 193.267C145.539 192.826 146.35 190.12 147.545 190.069Z" fill="#727272"/>
<path d="M146.7 193.391C147.138 193.343 147.639 193.269 148.168 193.112L148.979 192.807L149.85 192.334C150.573 191.906 151.581 191.252 152.874 190.373L152.204 191.005C149.414 193.439 143.794 196.855 137.96 199.868L106.999 215.375C106.761 215.494 105.736 215.47 104.888 215.411C105.662 215.198 106.364 214.884 106.526 214.626L106.793 214.703L106.519 214.435C106.205 214.037 107.499 213.819 107.991 213.677L108.158 213.611C108.22 213.563 108.45 213.506 108.733 213.428C109.018 213.447 109.25 213.391 109.409 213.214C109.765 213.067 110.069 212.881 110.121 212.629C110.249 212.009 111.72 212.146 112.544 211.844C113.368 211.543 118.851 208.684 120.544 207.841C122.237 206.998 122.544 206.62 123.871 205.373C125.198 204.127 125.217 205.076 125.816 204.774C126.415 204.472 127.875 203.209 128.341 202.645C128.714 202.194 129.731 201.891 130.61 201.757L131.231 201.689C132.182 201.63 132.999 201.46 134.694 200.33C136.39 199.2 136.262 198.539 137.789 197.916C139.098 197.382 139.693 197.464 140.025 197.313L140.171 197.214C140.47 196.921 142.292 196.052 142.88 195.367C143.338 194.833 144.649 193.787 145.048 193.717C145.314 193.672 145.864 193.563 146.7 193.391Z" fill="#1A0855"/>
<path d="M48.3369 225.839C51.4669 224.046 90.5009 208.487 90.0619 209.284C89.6229 210.082 79.8579 214.632 68.4569 219.368C57.0559 224.105 45.2059 227.632 48.3369 225.839Z" fill="#D4D5D5"/>
<path d="M48.4541 226.268C53.9561 224.173 57.9491 222.625 60.4331 221.624C73.2201 216.468 82.8761 212.385 89.4091 209.74C88.4111 210.414 86.8471 211.238 84.7171 212.212C81.5211 213.673 76.3281 216.099 68.4561 219.369L66.0961 220.33C58.2221 223.476 50.6411 225.908 48.4541 226.268Z" fill="#EDEDED"/>
<path d="M99.7311 207.179C99.7241 206.826 99.1141 204.3 106.365 200.048C113.616 195.796 135.26 184.572 138.162 183.613C141.063 182.654 116.786 195.449 113.62 197.23C110.455 199.011 104.509 202.226 103.339 203.243C102.169 204.259 99.7391 207.531 99.7311 207.179Z" fill="#F1F1F1"/>
<path d="M150.287 178.697C148.692 177.559 146.179 176.87 143.235 178.63C141.272 179.803 139.766 180.106 138.716 179.539C139.092 181.009 140 181.694 141.441 181.594C143.603 181.444 144.759 179.062 146.801 178.912C148.842 178.761 151.882 179.835 150.287 178.697Z" fill="#D0D0D0"/>
<path d="M160.679 175.52C160.446 173.629 162.945 171.83 165.193 169.113C167.442 166.396 168.759 164.127 168.288 162.253C167.817 160.379 169.701 161.809 169.59 164.145C169.479 166.482 167.764 168.183 165.98 170.051C164.197 171.919 162.289 173.118 160.679 175.52Z" fill="#D0D0D0"/>
<path d="M216.771 144.355C210.723 149.372 197.24 157.915 198.733 157.515C200.225 157.115 214.446 149.028 224.505 140.735C234.564 132.442 244.599 119.952 242.414 120.968C240.229 121.984 231.794 131.302 227.338 135.216C222.882 139.13 222.819 139.339 216.771 144.355Z" fill="#CFD1D2"/>
<path d="M231.953 75.756C233.452 77.231 235.262 80.85 239.195 83.407C243.128 85.964 244.994 86.324 247.359 87.798C249.724 89.273 251.491 90.54 251.525 91.711C251.546 92.454 249.399 95.462 247.714 97.732C239.986 94.07 234.586 91.764 231.515 90.813C225.964 89.095 219.662 89.193 218.643 88.834C217.732 88.513 217.319 87.889 217.401 86.916C217.985 86.968 218.689 86.583 219.526 85.715C221.906 83.245 225.303 78.599 227.167 77.268L228.74 76.075C229.893 75.225 230.904 74.723 231.953 75.756Z" fill="#7756D3"/>
<path d="M139.522 179.837C138.233 179.163 139.813 177.296 144.261 174.235C150.933 169.644 164.473 162.224 165.712 161.659C166.951 161.095 168.082 161.7 168.175 161.491C168.268 161.282 167.273 159.909 165.541 160.542C163.809 161.175 149.991 168.957 143.502 173.392C139.176 176.349 137.58 178.397 138.716 179.537L139.522 179.837Z" fill="#E6E6E6"/>
</g>
<defs>
<clipPath id="clip0_7_88">
<rect width="270" height="253" fill="white"/>
</clipPath>
</defs>
</svg>
