<svg width="40" height="40" viewBox="0 0 40 40" fill="none" xmlns="http://www.w3.org/2000/svg">
<path d="M26.4968 18.7394C29.5338 17.2823 29.9865 6.19187 28.1947 2.92531C25.8542 -1.3391 14.7285 -0.482744 11.2153 2.56539C10.8119 4.07953 10.8542 6.82731 10.8729 9.01164H21.9002V10.0343H10.8753C10.8753 10.0492 5.96671 10.0666 5.96671 10.0666C-2.49719 10.0666 -2.3213 29.522 8.84664 29.522C8.84664 29.522 9.25706 25.2129 9.97469 23.0534C12.1909 16.3887 21.5015 21.1372 26.4968 18.7394ZM14.9513 7.43297C13.6801 7.43297 12.6506 6.34329 12.6506 4.99546C12.6506 3.65011 13.6801 2.55794 14.9513 2.55794C16.2247 2.55794 17.2543 3.65011 17.2543 4.99546C17.2566 6.3408 16.2247 7.43297 14.9513 7.43297Z" fill="#484848"/>
<path d="M30.7697 10.4761C30.7697 10.4761 30.4765 14.7876 29.7589 16.9447C27.5427 23.6069 18.2345 18.8609 13.2368 21.2587C10.2021 22.7158 9.74477 33.8062 11.5389 37.0728C13.8771 41.3397 25.0028 40.4833 28.5183 37.4327C28.9217 35.921 28.8794 33.1732 28.8607 30.9889H17.8311V29.9663H28.856C28.856 29.9514 34.2899 29.934 34.2899 29.934C42.0901 29.934 42.7889 10.4761 30.7697 10.4761ZM24.386 32.1431C25.6571 32.1431 26.689 33.2328 26.689 34.5807C26.689 35.926 25.6571 37.0157 24.386 37.0157C23.1149 37.0157 22.0853 35.926 22.0853 34.5807C22.0853 33.2328 23.1149 32.1431 24.386 32.1431Z" fill="#484848"/>
</svg>


