<svg width="143" height="24" viewBox="0 0 143 24" fill="none" xmlns="http://www.w3.org/2000/svg">
<path d="M24.4052 8.45108L16.8446 7.35612L13.4649 0.528203C13.3725 0.341259 13.2207 0.189923 13.0331 0.0979342C12.5626 -0.133521 11.9909 0.0593584 11.7556 0.528203L8.37583 7.35612L0.815268 8.45108C0.606824 8.48076 0.416246 8.57868 0.270335 8.72705C0.0939371 8.90772 -0.00326634 9.15079 8.38122e-05 9.40284C0.00343397 9.6549 0.107064 9.89531 0.288202 10.0713L5.75837 15.3858L4.46602 22.8903C4.43571 23.0649 4.4551 23.2444 4.52198 23.4086C4.58886 23.5727 4.70055 23.7149 4.8444 23.819C4.98825 23.9231 5.15849 23.985 5.33582 23.9976C5.51316 24.0102 5.69049 23.973 5.84771 23.8903L12.6102 20.3473L19.3728 23.8903C19.5574 23.9882 19.7718 24.0209 19.9772 23.9853C20.4954 23.8962 20.8438 23.4066 20.7544 22.8903L19.4621 15.3858L24.9323 10.0713C25.0811 9.92587 25.1794 9.73595 25.2092 9.52824C25.2896 9.00895 24.9263 8.52823 24.4052 8.45108Z" fill="black"/>
<path d="M53.6255 8.45108L46.065 7.35612L42.6852 0.528203C42.5929 0.341259 42.441 0.189923 42.2534 0.0979342C41.7829 -0.133521 41.2112 0.0593584 40.9759 0.528203L37.5962 7.35612L30.0356 8.45108C29.8272 8.48076 29.6366 8.57868 29.4907 8.72705C29.3143 8.90772 29.2171 9.15079 29.2204 9.40284C29.2238 9.6549 29.3274 9.89531 29.5085 10.0713L34.9787 15.3858L33.6864 22.8903C33.656 23.0649 33.6754 23.2444 33.7423 23.4086C33.8092 23.5727 33.9209 23.7149 34.0647 23.819C34.2086 23.9231 34.3788 23.985 34.5562 23.9976C34.7335 24.0102 34.9108 23.973 35.068 23.8903L41.8306 20.3473L48.5931 23.8903C48.7777 23.9882 48.9921 24.0209 49.1976 23.9853C49.7157 23.8962 50.0641 23.4066 49.9748 22.8903L48.6824 15.3858L54.1526 10.0713C54.3015 9.92587 54.3997 9.73595 54.4295 9.52824C54.5099 9.00895 54.1466 8.52823 53.6255 8.45108Z" fill="black"/>
<path d="M82.8459 8.45108L75.2853 7.35612L71.9055 0.528203C71.8132 0.341259 71.6613 0.189923 71.4737 0.0979342C71.0033 -0.133521 70.4315 0.0593584 70.1963 0.528203L66.8165 7.35612L59.2559 8.45108C59.0475 8.48076 58.8569 8.57868 58.711 8.72705C58.5346 8.90772 58.4374 9.15079 58.4408 9.40284C58.4441 9.6549 58.5477 9.89531 58.7289 10.0713L64.199 15.3858L62.9067 22.8903C62.8764 23.0649 62.8958 23.2444 62.9627 23.4086C63.0295 23.5727 63.1412 23.7149 63.2851 23.819C63.4289 23.9231 63.5992 23.985 63.7765 23.9976C63.9538 24.0102 64.1312 23.973 64.2884 23.8903L71.0509 20.3473L77.8134 23.8903C77.998 23.9882 78.2125 24.0209 78.4179 23.9853C78.9361 23.8962 79.2844 23.4066 79.1951 22.8903L77.9028 15.3858L83.3729 10.0713C83.5218 9.92587 83.6201 9.73595 83.6499 9.52824C83.7303 9.00895 83.367 8.52823 82.8459 8.45108Z" fill="black"/>
<path d="M112.066 8.45108L104.506 7.35612L101.126 0.528203C101.034 0.341259 100.882 0.189923 100.694 0.0979342C100.224 -0.133521 99.6519 0.0593584 99.4166 0.528203L96.0368 7.35612L88.4763 8.45108C88.2678 8.48076 88.0773 8.57868 87.9313 8.72705C87.7549 8.90772 87.6577 9.15079 87.6611 9.40284C87.6644 9.6549 87.7681 9.89531 87.9492 10.0713L93.4194 15.3858L92.127 22.8903C92.0967 23.0649 92.1161 23.2444 92.183 23.4086C92.2499 23.5727 92.3616 23.7149 92.5054 23.819C92.6493 23.9231 92.8195 23.985 92.9968 23.9976C93.1742 24.0102 93.3515 23.973 93.5087 23.8903L100.271 20.3473L107.034 23.8903C107.218 23.9882 107.433 24.0209 107.638 23.9853C108.156 23.8962 108.505 23.4066 108.415 22.8903L107.123 15.3858L112.593 10.0713C112.742 9.92587 112.84 9.73595 112.87 9.52824C112.951 9.00895 112.587 8.52823 112.066 8.45108Z" fill="black"/>
<path d="M141.287 8.45108L133.726 7.35612L130.346 0.528203C130.254 0.341259 130.102 0.189923 129.914 0.0979342C129.444 -0.133521 128.872 0.0593584 128.637 0.528203L125.257 7.35612L117.697 8.45108C117.488 8.48076 117.298 8.57868 117.152 8.72705C116.975 8.90772 116.878 9.15079 116.881 9.40284C116.885 9.6549 116.988 9.89531 117.17 10.0713L122.64 15.3858L121.347 22.8903C121.317 23.0649 121.336 23.2444 121.403 23.4086C121.47 23.5727 121.582 23.7149 121.726 23.819C121.87 23.9231 122.04 23.985 122.217 23.9976C122.395 24.0102 122.572 23.973 122.729 23.8903L129.492 20.3473L136.254 23.8903C136.439 23.9882 136.653 24.0209 136.859 23.9853C137.377 23.8962 137.725 23.4066 137.636 22.8903L136.343 15.3858L141.814 10.0713C141.962 9.92587 142.061 9.73595 142.091 9.52824C142.171 9.00895 141.808 8.52823 141.287 8.45108Z" fill="black"/>
<path d="M24.4052 8.45108L16.8446 7.35612L13.4649 0.528203C13.3725 0.341259 13.2207 0.189923 13.0331 0.0979342C12.5626 -0.133521 11.9909 0.0593584 11.7556 0.528203L8.37583 7.35612L0.815268 8.45108C0.606824 8.48076 0.416246 8.57868 0.270335 8.72705C0.0939371 8.90772 -0.00326634 9.15079 8.38122e-05 9.40284C0.00343397 9.6549 0.107064 9.89531 0.288202 10.0713L5.75837 15.3858L4.46602 22.8903C4.43571 23.0649 4.4551 23.2444 4.52198 23.4086C4.58886 23.5727 4.70055 23.7149 4.8444 23.819C4.98825 23.9231 5.15849 23.985 5.33582 23.9976C5.51316 24.0102 5.69049 23.973 5.84771 23.8903L12.6102 20.3473L19.3728 23.8903C19.5574 23.9882 19.7718 24.0209 19.9772 23.9853C20.4954 23.8962 20.8438 23.4066 20.7544 22.8903L19.4621 15.3858L24.9323 10.0713C25.0811 9.92587 25.1794 9.73595 25.2092 9.52824C25.2896 9.00895 24.9263 8.52823 24.4052 8.45108Z" fill="#F6C000"/>
<path d="M53.6255 8.45108L46.065 7.35612L42.6852 0.528203C42.5929 0.341259 42.441 0.189923 42.2534 0.0979342C41.7829 -0.133521 41.2112 0.0593584 40.9759 0.528203L37.5962 7.35612L30.0356 8.45108C29.8272 8.48076 29.6366 8.57868 29.4907 8.72705C29.3143 8.90772 29.2171 9.15079 29.2204 9.40284C29.2238 9.6549 29.3274 9.89531 29.5085 10.0713L34.9787 15.3858L33.6864 22.8903C33.656 23.0649 33.6754 23.2444 33.7423 23.4086C33.8092 23.5727 33.9209 23.7149 34.0647 23.819C34.2086 23.9231 34.3788 23.985 34.5562 23.9976C34.7335 24.0102 34.9108 23.973 35.068 23.8903L41.8306 20.3473L48.5931 23.8903C48.7777 23.9882 48.9921 24.0209 49.1976 23.9853C49.7157 23.8962 50.0641 23.4066 49.9748 22.8903L48.6824 15.3858L54.1526 10.0713C54.3015 9.92587 54.3997 9.73595 54.4295 9.52824C54.5099 9.00895 54.1466 8.52823 53.6255 8.45108Z" fill="#F6C000"/>
<path d="M82.8459 8.45108L75.2853 7.35612L71.9055 0.528203C71.8132 0.341259 71.6613 0.189923 71.4737 0.0979342C71.0033 -0.133521 70.4315 0.0593584 70.1963 0.528203L66.8165 7.35612L59.2559 8.45108C59.0475 8.48076 58.8569 8.57868 58.711 8.72705C58.5346 8.90772 58.4374 9.15079 58.4408 9.40284C58.4441 9.6549 58.5477 9.89531 58.7289 10.0713L64.199 15.3858L62.9067 22.8903C62.8764 23.0649 62.8958 23.2444 62.9627 23.4086C63.0295 23.5727 63.1412 23.7149 63.2851 23.819C63.4289 23.9231 63.5992 23.985 63.7765 23.9976C63.9538 24.0102 64.1312 23.973 64.2884 23.8903L71.0509 20.3473L77.8134 23.8903C77.998 23.9882 78.2125 24.0209 78.4179 23.9853C78.9361 23.8962 79.2844 23.4066 79.1951 22.8903L77.9028 15.3858L83.3729 10.0713C83.5218 9.92587 83.6201 9.73595 83.6499 9.52824C83.7303 9.00895 83.367 8.52823 82.8459 8.45108Z" fill="#F6C000"/>
<path d="M112.066 8.45108L104.506 7.35612L101.126 0.528203C101.034 0.341259 100.882 0.189923 100.694 0.0979342C100.224 -0.133521 99.6519 0.0593584 99.4166 0.528203L96.0368 7.35612L88.4763 8.45108C88.2678 8.48076 88.0773 8.57868 87.9313 8.72705C87.7549 8.90772 87.6577 9.15079 87.6611 9.40284C87.6644 9.6549 87.7681 9.89531 87.9492 10.0713L93.4194 15.3858L92.127 22.8903C92.0967 23.0649 92.1161 23.2444 92.183 23.4086C92.2499 23.5727 92.3616 23.7149 92.5054 23.819C92.6493 23.9231 92.8195 23.985 92.9968 23.9976C93.1742 24.0102 93.3515 23.973 93.5087 23.8903L100.271 20.3473L107.034 23.8903C107.218 23.9882 107.433 24.0209 107.638 23.9853C108.156 23.8962 108.505 23.4066 108.415 22.8903L107.123 15.3858L112.593 10.0713C112.742 9.92587 112.84 9.73595 112.87 9.52824C112.951 9.00895 112.587 8.52823 112.066 8.45108Z" fill="#F6C000"/>
</svg>
